SplineFontDB: 3.2
FontName: KKOTARO
FullName: KKOTARO
FamilyName: KKOTARO
Weight: Regular
Copyright: @kurokky black-tree.net
Version: 
ItalicAngle: 0
UnderlinePosition: 0
UnderlineWidth: 0
Ascent: 819
Descent: 205
InvalidEm: 0
LayerCount: 2
Layer: 0 0 "Back" 1
Layer: 1 0 "Fore" 0
HasVMetrics: 1
XUID: [1021 417 -389133839 11529500]
OS2Version: 0
OS2_WeightWidthSlopeOnly: 0
OS2_UseTypoMetrics: 0
CreationTime: 1643214113
ModificationTime: 1643263951
PfmFamily: 17
TTFWeight: 400
TTFWidth: 5
LineGap: 92
VLineGap: 92
Panose: 2 0 5 3 0 0 0 0 0 0
OS2TypoAscent: 0
OS2TypoAOffset: 1
OS2TypoDescent: 0
OS2TypoDOffset: 1
OS2TypoLinegap: 92
OS2WinAscent: 0
OS2WinAOffset: 1
OS2WinDescent: 0
OS2WinDOffset: 1
HheadAscent: 0
HheadAOffset: 1
HheadDescent: 0
HheadDOffset: 1
OS2Vendor: 'PfEd'
MarkAttachClasses: 1
DEI: 91125
Encoding: Original
UnicodeInterp: none
NameList: AGL For New Fonts
DisplaySize: -48
AntiAlias: 1
FitToEm: 0
WinInfo: 0 39 14
BeginPrivate: 0
EndPrivate
BeginChars: 179 168

StartChar: "+MLAw6jDV-1"
Encoding: 1 12353 0
Width: 628
Flags: W
LayerCount: 2
Fore
SplineSet
284.691 619.041 m 1
 267.6889 618.909764 253.8207 605.4676 252.9781 588.6426 c 0
 251.69615 563.0415 249.05447 536.0978 246.11872 508.5606 c 1
 157.33162 506.46099 l 2
 140.02252 506.054764 126.09532 491.87599 126.09532 474.46999 c 0
 126.09532 474.213306 126.08532509 473.97012 126.09134879 473.714873 c 0
 126.49747679 456.405773 140.67624879 442.478473 158.08234879 442.478473 c 0
 158.34168479 442.478473 158.58739279 442.468541 158.84526079 442.47468943 c 2
 239.32186079 444.37898943 l 1
 238.24752079 433.52158943 237.26037079 422.66288943 236.39998079 411.83208943 c 1
 173.66328079 393.31238943 130.07298079 335.48298943 121.05598079 274.94908943 c 1
 121.06598079 274.94908943 l 1
 117.56859079 251.47918943 118.96638079 226.33228943 128.83941079 202.77718943 c 0
 133.77593079 190.99958943 141.23141079 178.91778943 154.49181079 170.22248943 c 0
 167.75031079 161.52839943 186.89501079 159.06248943 202.83561079 163.88849943 c 0
 226.83071079 171.15429943 248.43131079 181.37819943 268.19691079 193.76739943 c 1
 282.37801079 171.98249943 301.72721079 153.08039943 326.60701079 139.52129943 c 0
 331.14901079 137.04552943 336.35579079 135.63828943 341.88861079 135.63828943 c 0
 354.01841079 135.63828943 364.59451079 142.34825943 370.02101079 152.30648943 c 0
 372.49651079 156.84829943 373.90358079 162.05478943 373.90358079 167.58728943 c 0
 373.90358079 179.71768943 367.19293079 190.29428943 357.23388079 195.72048943 c 0
 339.66848079 205.29338943 327.69698079 217.37618943 318.81978079 233.16778943 c 1
 351.74248079 263.97498943 379.57158079 300.32998943 406.40568079 336.41778943 c 1
 429.18328079 323.54588943 443.04078079 306.49018943 449.48578079 289.97248943 c 0
 456.84157079 271.12058943 455.43791079 252.23228943 447.84711079 237.87088943 c 0
 440.25630079 223.50938943 427.33731079 212.64888943 403.97011079 209.25178943 c 0
 388.50251079 207.00304943 376.60621079 193.67278943 376.60621079 177.58588943 c 0
 376.60621079 176.00997943 376.68709859 174.49159943 376.90759979 172.97641943 c 0
 379.15680979 157.50931943 392.48689979 145.61361943 408.57339979 145.61361943 c 0
 410.14665979 145.61361943 411.66246979 145.69412433 413.17521979 145.91389943 c 0
 454.64901979 151.94360943 487.61091979 176.14729943 504.42911979 207.96659943 c 0
 521.24741979 239.78589943 522.78271979 278.19579943 509.10880979 313.23959943 c 0
 497.78230979 342.26789943 475.55530979 367.82389943 444.37830979 386.93299943 c 1
 445.14350979 387.91730943 445.89850979 389.00262943 446.66541979 389.98182943 c 0
 450.91969979 395.41519943 453.45679979 402.25642943 453.45679979 409.68542943 c 0
 453.45679979 419.91452943 448.68406979 429.04012943 441.20449979 434.89972943 c 0
 435.76913979 439.15998943 428.89909979 441.71411943 421.46429979 441.71417943 c 0
 411.23579979 441.71229607 402.13519979 436.92512943 396.27679979 429.44467943 c 0
 391.65009979 423.53708943 387.49080979 417.92297943 382.98969979 412.04627943 c 1
 358.75649979 417.96996943 331.62509979 421.01491943 301.53659979 420.19861943 c 1
 302.31329979 428.68641943 303.14784979 437.25281943 304.03854979 445.90951943 c 1
 411.47654979 448.45247943 l 2
 428.78284979 448.86180543 442.70684979 463.03937943 442.70684979 480.44327943 c 0
 442.70684979 480.70001043 442.71692949 480.94324343 442.71090359 481.19853643 c 0
 442.30143759 498.50473643 428.12400359 512.42863643 410.72010359 512.42863643 c 0
 410.57628259 512.42863643 410.44025459 512.44070343 410.29688059 512.43880773 c 0
 410.18468059 512.43543727 410.07674859 512.4316328 409.96484059 512.42710773 c 2
 310.80864059 510.08335773 l 1
 313.37664059 535.30345773 315.65734059 560.61345773 316.90044059 585.44075773 c 0
 316.92732469 585.97811273 316.94092779 586.51893773 316.94092779 587.06292773 c 0
 316.94092779 604.17772773 303.45202779 618.14972773 286.54672779 618.99932773 c 0
 286.06683879 619.02319683 285.60418579 619.03597243 285.11898779 619.03842773 c 2
 285.11698779 619.04042773 l 2
 285.04473519 619.040908425 284.97242579 619.041149151 284.90006079 619.041149151 c 0
 284.82769579 619.041149151 284.76345979 619.040908425 284.69120779 619.04042773 c 2
 284.691 619.041 l 1
316.275 356.775 m 1
 324.5355 356.73 332.277 356.28286 339.7164 355.6168 c 1
 326.2022 338.1703 312.7613 321.5424 298.9664 306.2398 c 1
 297.9091 317.6006 297.37825 329.5993 297.34335 342.1441 c 0
 297.33045 346.77119 297.38435 351.46583 297.49374 356.2183 c 0
 301.00954 356.42806 304.45959 356.58384 307.83354 356.67924 c 0
 310.71065 356.76014 313.52145 356.78968 316.27495 356.77494 c 2
 316.275 356.775 l 1
233.365 339.506 m 1
 233.365 339.502 l 2
 233.56638 310.145 235.92418 281.5871 242.58961 254.6465 c 1
 225.74751 242.7158 207.81471 233.1741 188.21661 226.7364 c 0
 187.90279 227.30212 188.20961 226.6933 187.86309 227.5196 c 0
 184.51606 235.50487 182.55433 253.3756 184.36309 265.5137 c 2
 184.363090545 265.51966516 l 1
 184.36309 265.5254 l 1
 188.40908 292.6875 208.15009 322.4344 233.36499 339.5059 c 1
 233.36499 339.50601 l 1
 233.365 339.506 l 1
EndSplineSet
EndChar

StartChar: "+MLAw6jDV 2"
Encoding: 2 12354 1
Width: 1024
LayerCount: 2
Fore
SplineSet
473.125 869.842 m 1
 473.123 869.838 l 1
 454.5935 869.740354 439.2639 855.9556 436.6953 838.1096 c 0
 430.52462 795.2382 424.1704 750.6565 419.4512 705.3266 c 1
 268.4712 700.74652 l 2
 248.5769 700.143117 232.6113 683.80322 232.6113 663.76372 c 0
 232.6113 663.38206 232.5983828 663.019937 232.60988195 662.64104 c 0
 233.21331595 642.74684 249.55318195 626.78124 269.59268195 626.78124 c 0
 269.97367495 626.78124 270.33516395 626.7683026 270.71340195 626.77976178 c 2
 413.52040195 631.11179178 l 1
 412.00073195 602.07719178 411.53861195 572.95139178 412.59657195 543.97119178 c 1
 347.76447195 523.59619178 286.84757195 482.34359178 234.27057195 414.51419178 c 0
 234.09728895 414.29112778 233.92906395 414.06940778 233.76081195 413.84232178 c 0
 207.32951195 378.09132178 206.22231195 333.41002178 215.65341195 293.01632178 c 0
 225.08453195 252.62242178 246.58621195 211.68182178 289.89951195 195.22722178 c 0
 290.70918995 194.92152678 291.55227195 194.63672978 292.38779195 194.38738178 c 0
 328.18989195 183.62158178 356.48889195 188.46050178 377.48739195 194.96941178 c 0
 378.45155195 195.20223178 379.74183195 195.37447178 380.51278195 195.59636178 c 0
 387.73901195 197.67639178 389.52273195 199.41844178 391.36438195 200.63152178 c 0
 395.04761195 203.05782178 396.44142195 204.42237178 398.18469195 205.97527178 c 0
 401.67123195 209.08079178 405.06667195 212.46057178 409.28819195 216.78387178 c 0
 417.73124195 225.43068178 428.91699195 237.47627178 442.24719195 252.16477178 c 0
 452.75169195 263.73967178 464.57529195 276.95947178 477.14959195 291.18037178 c 1
 492.60619195 263.73747178 511.36429195 237.28917178 533.98359195 212.12567178 c 0
 540.75901195 204.58677178 550.58369195 199.84237178 561.50769195 199.84237178 c 0
 571.00655195 199.84237178 579.68499195 203.45001178 586.23939195 209.34246178 c 0
 593.77829195 216.11788178 598.52269195 225.94256178 598.52269195 236.86656178 c 0
 598.52269195 246.36542178 594.91505195 255.04386178 589.02260195 261.59826178 c 0
 563.97920195 289.45846178 544.50790195 319.52546178 529.58900195 351.32486178 c 1
 532.66584195 354.90033178 535.74297195 358.47408178 538.82533195 362.07286178 c 0
 570.65823195 399.23916178 601.12173195 436.05496178 626.60263195 468.00286178 c 1
 681.81453195 447.38056178 712.40663195 423.77186178 726.52453195 403.58296178 c 0
 741.32823195 382.41316178 742.51143195 364.37866178 736.57143195 342.78416178 c 0
 724.69143195 299.59536178 668.90773195 249.52546178 637.89763195 237.57916178 c 0
 624.03163195 232.23631178 614.18253195 218.77906178 614.18253195 203.03946178 c 0
 614.18253195 198.35848178 615.08614295 193.87487178 616.67500195 189.75106178 c 0
 622.01625195 175.88186178 635.47520195 166.02986178 651.21700195 166.02986178 c 0
 655.89636195 166.02986178 660.37847195 166.93281278 664.50110195 168.52062178 c 0
 722.28270195 190.78062178 786.78910195 246.35332178 807.91710195 323.16362178 c 0
 818.48120195 361.56862178 814.35070195 407.11842178 787.16710195 445.99162178 c 0
 764.04950195 479.05032178 725.87880195 506.44892178 672.43110195 529.08142178 c 1
 674.61676195 532.44202178 677.01869195 535.91240178 678.82368195 539.16542178 c 0
 681.86117195 544.63969178 686.24112195 546.43411178 686.66938195 564.24942178 c 0
 686.67670963 564.55211678 686.68039455 564.85570778 686.68039455 565.16015278 c 0
 686.68039455 585.27795278 670.57439455 601.65205278 650.57169455 602.13415278 c 0
 650.25651855 602.14209923 649.94036855 602.14609628 649.62329155 602.14609628 c 0
 649.60170265 602.14609628 649.59718465 602.14588981 649.57560435 602.145852765 c 0
 632.72320435 602.098740765 618.50920435 590.754152765 614.09900435 575.298252765 c 0
 614.05480435 575.162182765 614.19160435 575.204152765 614.12240435 575.077542765 c 0
 614.09970435 575.038642765 614.00483435 574.895702765 613.98178435 574.854892765 c 0
 613.79644335 574.171819765 613.62637635 573.465102765 613.47983435 572.766992765 c 1
 613.55313435 573.147902765 613.59167435 574.104152765 613.66537435 574.360752765 c 1
 612.48899435 572.302752765 610.33382435 568.822132765 607.15365435 564.210352765 c 0
 605.01852435 561.113942765 600.53978435 555.507422765 597.72006435 551.661552765 c 1
 560.48916435 558.863442765 523.21656435 561.398132765 486.61606435 558.362722765 c 1
 486.07499435 583.058522765 486.66596435 608.111022765 488.09067435 633.380322765 c 1
 688.81167435 639.470162765 l 2
 708.70597435 640.073560765 724.67157435 656.413462765 724.67157435 676.452962765 c 0
 724.67157435 676.834622765 724.68449145 677.196745765 724.67299228 677.575642765 c 0
 724.07109928 697.471242765 707.73059228 713.438442765 687.69009228 713.438442765 c 0
 687.45926928 713.438442765 687.24068828 713.454838565 687.01086528 713.450620565 c 0
 686.86101728 713.446247325 686.71690328 713.441174225 686.56750528 713.435020565 c 2
 494.32150528 707.602990565 l 1
 498.62226528 747.584290565 504.21703528 787.755990565 509.94850528 827.575990565 c 0
 510.19777428 829.308810565 510.32678028 831.080270565 510.32678028 832.881620565 c 0
 510.32678028 851.499320565 496.50758028 866.887820565 478.59888028 869.466620565 c 0
 476.96664028 869.701841565 475.33147028 869.829089565 473.63794028 869.843580565 c 0
 473.55110918 869.844181027 473.46420728 869.84448175 473.37723628 869.84448175 c 0
 473.29026488 869.84448175 473.21305128 869.844181027 473.12622028 869.843580565 c 2
 473.125 869.842 l 1
509.418 488.357 m 1
 516.12575 488.3683 522.8968 488.13181 529.7305 487.67536 c 0
 534.76415 487.33936 540.038 486.22138 545.1426 485.64606 c 1
 530.7428 468.06716 516.7029 450.76966 501.5645 432.63436 c 1
 497.28593 450.66266 494.02075 469.05896 491.64849 487.76326 c 1
 497.52516 488.15244 503.44559 488.35191 509.41799 488.35701 c 1
 509.418 488.357 l 1
418.768 471.383 m 1
 423.7487 435.3055 431.767 399.7866 443.7875 365.321 c 1
 423.0703 341.6044 403.5843 319.6738 387.4516 301.8972 c 0
 374.4608 287.5828 363.5781 275.8955 356.3364 268.4792 c 0
 354.32378 266.41803 353.57517 265.75138 352.24069 264.45576 c 0
 340.18019 260.02876 336.35109 258.56977 315.78759 264.67646 c 0
 307.73295 268.07116 293.38079 285.58086 287.71529 309.84636 c 0
 281.99843 334.33206 286.71791 360.71716 293.17818 369.65496 c 0
 333.24128 421.19466 374.77558 453.67636 418.76818 471.38396 c 1
 418.768 471.383 l 1
366.9 268.115 m 1
 366.931 268.115 366.9861 268.1033 367.01719 268.1033 c 1
 366.9211799 268.09388018 366.825874 268.0841536 366.73008 268.074 c 1
 366.80188 268.0853 366.82728 268.0996 366.9 268.1072 c 2
 366.9 268.115 l 1
EndSplineSet
EndChar

StartChar: "+MLAw6jDV 3"
Encoding: 3 12356 2
Width: 1024
LayerCount: 2
Fore
SplineSet
730.258 612.643 m 1
 718.8981 612.567742 708.7535 607.38533 702.0139 599.2524 c 0
 696.70752 592.84786 693.51658 584.6284 693.51658 575.6695 c 0
 693.51658 564.2096 698.70334 553.9476 706.89478 547.1586 c 0
 762.56718 501.0155 794.75698 445.9046 803.87718 373.4266 c 0
 806.16805 355.1982 821.74168 341.0786 840.58708 341.0786 c 0
 842.1623 341.0786 843.67778 341.1375185 845.20144 341.328973 c 0
 863.42934 343.620263 877.54854 359.193673 877.54854 378.038673 c 0
 877.54854 379.616633 877.4892775 381.134763 877.297168 382.660973 c 0
 865.949468 472.841373 822.002368 547.864973 754.115168 604.131973 c 0
 747.709958 609.440673 739.488668 612.633173 730.527668 612.633173 c 0
 730.4438085 612.633173 730.341523 612.6442499 730.257794 612.6436916 c 1
 730.258 612.643 l 1
183.045 607.771 m 1
 181.20095 607.75555 179.41916 607.60599 177.64852 607.3296 c 0
 159.94862 604.56876 146.38692 589.242 146.38692 570.7727 c 0
 146.38692 568.82062 146.501214 566.93863 146.793086 565.06789 c 0
 169.166086 421.67589 222.819586 315.15689 281.814086 227.67189 c 0
 288.463916 217.81009 299.738086 211.31909 312.516286 211.31909 c 0
 316.770596 211.31909 320.846226 212.086344 324.651986 213.41019 c 0
 409.221486 242.84639 457.751986 303.15439 483.694986 345.98819 c 0
 487.075076 351.57054 489.021266 358.11619 489.021266 365.11269 c 0
 489.021266 378.53299 481.923926 390.31019 471.218466 396.79679 c 0
 465.634866 400.17901 459.087166 402.12653 452.088166 402.12653 c 0
 438.666466 402.12653 426.888166 395.02764 420.402066 384.32023 c 0
 402.681166 355.06183 374.047166 318.77463 327.154066 294.92573 c 1
 279.110166 370.97233 238.324966 458.44573 219.910066 576.47073 c 0
 217.162196 594.09933 201.944266 607.66003 183.576066 607.77153 c 0
 183.4859264 607.772177133 183.395711 607.772501249 183.30542 607.772501249 c 0
 183.2151291 607.772501249 183.134956 607.772177133 183.044816 607.77153 c 1
 183.045 607.771 l 1
EndSplineSet
EndChar

StartChar: "+MLAw6jDV 4"
Encoding: 4 12358 3
Width: 1024
LayerCount: 2
Fore
SplineSet
490.635 930.066 m 1
 479.9898 930.0271703 470.3974 925.49557 463.6682 918.2554 c 0
 457.52959 911.64978 453.77351 902.8003 453.77351 893.0804 c 0
 453.77351 882.3814 458.31028 872.7264 465.58031 865.9683 c 0
 492.29541 841.1375 510.84781 826.8056 522.25021 791.9136 c 0
 527.08881 777.1111 541.01801 766.4049 557.42811 766.4049 c 0
 561.43798 766.4049 565.29517 767.057655 568.91231 768.23972 c 0
 583.71451 773.07849 594.42041 787.00762 594.42041 803.41742 c 0
 594.42041 807.42664 593.767861 811.28322 592.58616 814.89992 c 0
 575.06146 868.52612 540.31386 897.52692 515.95526 920.16792 c 0
 509.34939 926.30781 500.49896 930.06477 490.77796 930.06477 c 0
 490.7335524 930.06477 490.6793444 930.06651888 490.634973 930.06636221 c 1
 490.635 930.066 l 1
592.062 668.469 m 1
 560.5971 668.2677 527.1353 660.93159 493.269 647.5237 c 0
 483.70642 643.73771 475.4017 639.32112 458.4936 630.9514 c 0
 441.5825 622.58013 420.2127 611.7997 398.8256 600.7229 c 0
 377.4386 589.646 356.0933 578.3154 338.9506 568.635 c 0
 330.3793 563.79471 322.9004 559.40267 316.5834 555.3616 c 0
 310.2664 551.32053 307.17747 551.91529 297.31 539.4905 c 0
 292.29637 533.17652 289.3003 525.1898 289.3003 516.5088 c 0
 289.3003 504.7702 294.73758 494.2884 303.2748 487.5081 c 0
 309.58913 482.49341 317.5767 479.49663 326.2587 479.49663 c 0
 337.7961 479.49663 348.1218 484.75028 354.9095 493.03743 c 1
 348.95869 485.60083 352.30968 490.36601 356.46028 493.02183 c 0
 360.81207 495.80572 367.46318 499.74779 375.34308 504.19763 c 0
 391.10288 513.09713 411.93798 524.18473 432.85478 535.01793 c 0
 453.77158 545.85113 474.82928 556.47033 491.31958 564.63313 c 0
 507.37558 572.58114 522.97818 579.64523 520.68088 578.78153 c 1
 562.56448 595.32893 600.43808 597.24933 623.58088 590.42603 c 0
 646.75468 583.59363 655.89018 574.55623 658.19418 550.76983 c 0
 670.14338 427.40283 640.68058 351.09883 599.52428 293.39283 c 0
 558.36818 235.68723 503.61428 197.93633 460.35228 158.17983 c 0
 452.98896 151.41494 448.37108 141.70763 448.37108 130.93023 c 0
 448.37108 121.2828 452.08768 112.48223 458.14522 105.89273 c 0
 464.90995 98.53169 474.61572 93.91543 485.39122 93.91543 c 0
 495.03657 93.91543 503.83542 97.63044 510.42452 103.68566 c 0
 546.96232 137.26286 609.71342 180.24416 659.76652 250.42366 c 0
 709.81952 320.60346 745.27262 419.33566 731.85052 557.90766 c 0
 726.91903 608.82136 689.72522 648.07066 644.50872 661.40166 c 0
 633.20462 664.73447 621.44402 666.86066 609.32712 667.83916 c 0
 603.64733 668.29786 597.88842 668.50537 592.06152 668.46807 c 1
 592.06152 668.46804 l 1
 592.062 668.469 l 1
EndSplineSet
EndChar

StartChar: "+MLAw6jDV 5"
Encoding: 5 12360 4
Width: 1024
LayerCount: 2
Fore
SplineSet
413.811 928.58 m 1
 405.50801 928.5548636 397.8121 925.77165 391.6469 921.12297 c 0
 382.6854 914.36795 376.8876 903.63537 376.8876 891.55927 c 0
 376.8876 883.21242 379.70551 875.49407 384.37542 869.30067 c 0
 417.59012 825.24877 451.14402 784.73517 489.01442 756.31467 c 0
 495.19531 751.67789 502.87262 748.92969 511.18682 748.92969 c 0
 523.29112 748.92969 534.05922 754.70605 540.81132 763.70329 c 0
 545.45037 769.88504 548.20007 777.56429 548.20007 785.88069 c 0
 548.20007 797.98319 542.42544 808.74979 533.43047 815.50209 c 0
 506.43247 835.76349 475.12077 871.87079 443.46757 913.85169 c 0
 436.78899 922.7119 426.23217 928.44889 414.32307 928.57829 c 0
 414.2362389 928.578890462 414.149337 928.579191185 414.062366 928.579191185 c 0
 413.9753946 928.579191185 413.898181 928.578890462 413.81135 928.57829 c 1
 413.81135 928.58025 l 1
 413.811 928.58 l 1
464.254 686.238 m 2
 464.1944854 686.238281915 464.134938 686.238423031 464.075357 686.238423031 c 0
 458.801567 686.238423031 453.758957 685.114703031 449.216857 683.122773031 c 2
 449.216857 683.122773031 391.423257 657.751973031 332.663857 631.847373031 c 0
 303.284257 618.895073031 273.664857 605.811273031 250.865057 595.677473031 c 0
 239.465157 590.610563031 229.784957 586.284833031 222.622857 583.054473031 c 0
 219.041957 581.439253031 216.101197 580.104293031 213.808397 579.044703031 c 0
 211.515497 577.985113031 211.554327 578.216923031 207.415827 575.915803031 c 0
 196.051427 569.597933031 188.354727 557.467603031 188.354727 543.553903031 c 0
 188.354727 537.044583031 190.101787 530.909703031 193.058357 525.593603031 c 0
 199.376747 514.231003031 211.506057 506.535903031 225.418457 506.535903031 c 0
 231.925347 506.535903031 238.058157 508.281703031 243.372857 511.236223031 c 1
 240.184357 509.463323031 242.922217 510.980413031 244.849417 511.870983031 c 0
 246.776717 512.761713031 249.577377 514.034563031 253.042777 515.597553031 c 0
 259.973377 518.723633031 269.589577 523.020863031 280.923677 528.058453031 c 0
 303.591877 538.133753031 333.172977 551.203653031 362.517477 564.140453031 c 0
 378.493777 571.183763031 379.523077 571.620583031 394.214777 578.085753031 c 1
 332.978477 439.748753031 255.376777 303.973753031 173.902777 168.103753031 c 0
 170.573757 162.551543031 168.659347 156.055953031 168.659347 149.116753031 c 0
 168.659347 135.636453031 175.820757 123.814153031 186.605947 117.345953031 c 0
 192.158157 114.016933031 198.653747 112.102523031 205.592947 112.102523031 c 0
 219.073247 112.102523031 230.895547 119.263933031 237.363747 130.049123031 c 0
 271.189847 186.459323031 304.600147 243.132123031 336.629347 300.311123031 c 1
 354.517847 315.112923031 390.555347 336.020323031 416.994547 344.943923031 c 0
 422.592977 346.833423031 427.354347 347.731973031 431.590247 348.486893031 c 1
 436.876377 283.004693031 446.297047 231.991893031 466.381247 191.806893031 c 0
 488.042547 148.466893031 526.053547 118.981793031 571.512247 108.752193031 c 0
 658.318547 89.217993031 752.609247 112.237593031 841.905247 160.152593031 c 0
 853.534447 166.392373031 861.450047 178.668493031 861.450047 192.778793031 c 0
 861.450047 199.088073031 859.806127 205.046193031 857.016577 210.246393031 c 0
 850.776797 221.875593031 838.500677 229.791193031 824.390377 229.791193031 c 0
 818.081097 229.791193031 812.122977 228.147273031 806.922777 225.357723031 c 0
 728.243577 183.139323031 650.689777 166.786623031 587.760777 180.947623031 c 0
 559.739277 187.253343031 546.366677 197.298923031 532.575177 224.892923031 c 0
 518.783677 252.486923031 508.756477 299.663623031 504.043977 368.572923031 c 0
 503.155367 381.566423031 497.753537 396.214423031 487.538077 406.465523031 c 0
 477.322677 416.716623031 464.488977 421.404723031 453.456077 423.117923031 c 0
 447.939557 423.974513031 442.626977 424.311133031 437.465877 424.225343031 c 0
 424.140277 424.003483031 411.799377 420.988063031 399.379977 417.035893031 c 1
 436.178277 488.812993031 469.870977 561.611893031 498.602577 635.900893031 c 0
 500.199077 640.033573031 501.074607 644.523703031 501.074607 649.216693031 c 0
 501.074607 669.581793031 484.598307 686.145293031 464.254907 686.238793031 c 1
 464.254 686.238 l 2
EndSplineSet
EndChar

StartChar: "+MLAw6jDV 6"
Encoding: 6 12362 5
Width: 1024
LayerCount: 2
Fore
SplineSet
402.008 840.291 m 1
 402.01 840.289 l 1
 401.9546208 840.289244105 401.899213 840.289366284 401.843777 840.289366284 c 0
 401.7883409 840.289366284 401.739199 840.289244105 401.68382 840.289 c 0
 381.42592 840.098434 365.03832 823.5932 365.03832 803.2906 c 0
 365.03832 803.172553 365.03235022 803.061084 365.0334558 802.943296 c 2
 366.1643158 680.099296 l 1
 329.1312158 679.868596 292.5305158 679.672466 264.2773158 679.612966 c 0
 248.6512158 679.580066 235.5001158 679.588266 226.2168158 679.644166 c 0
 221.5752158 679.672166 217.8742658 679.719166 215.4980158 679.769166 c 0
 214.4563158 679.791066 213.8139858 679.813766 213.4530858 679.827766 c 2
 213.4530858 679.827766 213.4430858 679.827676 213.4430858 679.827766 c 0
 212.2978958 679.934749 211.1376158 679.989448 209.9646558 679.989448 c 0
 192.4235558 679.989448 177.7557558 667.734248 173.9567558 651.341448 c 0
 173.3335038 648.651098 173.0040368 645.848728 173.0040368 642.970008 c 0
 173.0040368 625.429808 185.2547368 610.746908 201.6462368 606.946908 c 0
 211.0024468 604.779308 208.4867568 605.965868 209.8122568 605.905888 c 0
 211.1373568 605.845788 212.4240868 605.812988 213.9528768 605.780888 c 0
 217.0101768 605.716988 220.9263268 605.677558 225.7634768 605.648078 c 0
 235.4367768 605.589078 248.6986768 605.583178 264.4294768 605.616878 c 0
 292.9294768 605.676978 329.6815768 605.867058 366.8434768 606.097348 c 1
 367.7770668 504.810348 l 1
 276.8769668 479.437248 194.8330668 431.707248 161.0310668 352.035348 c 0
 141.1364668 305.144848 156.0232168 254.346248 184.6248668 215.890348 c 0
 213.2264668 177.434948 258.8057668 147.529548 312.7598668 147.638348 c 0
 338.8631668 147.690548 367.4915668 150.133608 394.1289668 165.974248 c 0
 420.7662668 181.814848 440.5235668 213.540448 443.9355668 251.634448 c 0
 444.0343278 252.735458 444.0847768 253.850298 444.0847768 254.976838 c 0
 444.0847768 255.089932 444.08306112 255.160267 444.08204639 255.273123 c 2
 442.32618639 445.630123 l 1
 522.99788639 458.496123 609.17518639 452.107973 665.43018639 428.444623 c 0
 698.19978639 414.660223 716.03348639 391.039023 725.23098639 361.069623 c 0
 734.42880639 331.100123 732.78494639 294.956023 722.27785639 265.223923 c 0
 716.84595639 249.852523 708.62985639 241.511523 696.38915639 234.759123 c 0
 684.14835639 228.006733 667.36575639 224.078223 649.70555639 223.493523 c 0
 632.04525639 222.908833 613.69985639 225.644693 599.95945639 229.739613 c 0
 586.21895639 233.834353 577.10915639 242.230313 580.80325639 237.585323 c 1
 574.02247639 246.111683 563.56015639 251.581923 551.83025639 251.581923 c 0
 543.13872639 251.581923 535.13065639 248.537723 528.81305639 243.513103 c 0
 520.28669639 236.732323 514.81645639 226.270003 514.81645639 214.540103 c 0
 514.81645639 205.848573 517.86065639 197.840503 522.88527639 191.522903 c 0
 538.68367639 171.657503 557.06817639 165.305403 578.82467639 158.821703 c 0
 600.58117639 152.338033 625.72837639 148.659603 652.15667639 149.534593 c 0
 678.58467639 150.409583 706.49477639 155.818363 732.13127639 169.960393 c 0
 757.76827639 184.102393 780.61807639 208.213693 792.05117639 240.567793 c 0
 807.73507639 284.948993 810.47727639 335.514893 795.97109639 382.780793 c 0
 781.46529639 430.046593 747.51339639 474.195693 694.12309639 496.653793 c 0
 621.96669639 527.006393 530.31009639 533.419393 441.63909639 520.452593 c 1
 440.84417639 606.616693 l 1
 495.33567639 607.019703 541.75217639 607.395983 541.75217639 607.395983 c 2
 562.02467639 607.56967 578.42927639 624.081483 578.42927639 644.394683 c 0
 578.42927639 644.505333 578.43475976 644.6098 578.43378826 644.720223 c 0
 578.25899526 664.991723 561.74758826 681.395323 541.43508826 681.395323 c 0
 541.32775326 681.395323 541.22642126 681.40086982 541.11930026 681.39995561 c 2
 541.11930026 681.39995561 494.66440026 681.02200561 440.16030026 680.61870561 c 1
 439.02553026 803.63070561 l 2
 438.83939026 823.89240561 422.33243026 840.28450561 402.02703026 840.28450561 c 0
 402.0205455 840.28450561 402.01440736 840.29085422 402.00792336 840.29085088 c 1
 402.008 840.291 l 1
691.658 725.676 m 2
 691.5929248 725.676337124 691.52781 725.676505893 691.462656 725.676505893 c 0
 678.371756 725.676505893 666.886156 718.901925893 660.308356 708.631105893 c 0
 656.623956 702.879455893 654.487056 696.043205893 654.487056 688.711905893 c 0
 654.487056 675.622705893 661.236986 664.096105893 671.505656 657.517905893 c 0
 727.935556 621.374705893 780.946656 596.659105893 831.626656 576.281605893 c 0
 835.888236 574.567295893 840.541436 573.623665893 845.413256 573.623665893 c 0
 860.963556 573.623665893 874.292756 583.200055893 879.763356 596.803065893 c 0
 881.476976 601.063915893 882.420216 605.716185893 882.420216 610.587065893 c 0
 882.420216 626.139865893 872.840626 639.470965893 859.234116 644.939865893 c 0
 811.166516 664.266865893 763.063016 686.751265893 711.420116 719.828565893 c 0
 705.721136 723.480845893 698.914416 725.636525893 691.658416 725.676225893 c 2
 691.658 725.676 l 2
368.494 427.381 m 1
 370.06627 257.088 l 2
 368.14257 237.6189 363.8383 234.0553 356.30647 229.5763 c 0
 348.59927 224.99302 332.66797 221.68097 312.61307 221.64075 c 0
 287.13267 221.58975 260.85947 237.38415 243.99787 260.05485 c 0
 227.13627 282.72555 222.94027 308.48115 229.15407 323.12715 c 0
 247.66127 366.74855 300.68687 404.33725 368.49407 427.38115 c 1
 368.494 427.381 l 1
EndSplineSet
EndChar

StartChar: "+MLAw6jDV 7"
Encoding: 7 12363 6
Width: 1024
LayerCount: 2
Fore
SplineSet
365.982 900.688 m 2
 365.934133 900.688182345 365.8862446 900.6882736 365.838335 900.6882736 c 0
 348.524735 900.6882736 333.978435 888.7544736 329.950735 872.6821736 c 2
 271.243735 638.4791736 l 1
 153.546735 626.5260736 l 2
 134.894035 624.6346836 120.317035 608.8642736 120.317035 589.7161736 c 0
 120.317035 588.4417836 120.3425952 587.2186636 120.468636 585.9772936 c 0
 122.362356 567.3269936 138.131636 552.7525936 157.278036 552.7525936 c 0
 158.555286 552.7525936 159.781166 552.7784306 161.025236 552.9050296 c 2
 252.113136 562.1569796 l 1
 153.642436 169.3209796 l 2
 152.919668 166.4366196 152.535846 163.4184596 152.535846 160.3113496 c 0
 152.535846 142.9991496 164.464646 128.4671496 180.535046 124.4381496 c 0
 183.421056 123.7144956 186.441076 123.3301896 189.550146 123.3301896 c 0
 206.862846 123.3301896 221.395146 135.2595896 225.423746 151.3306896 c 2
 330.396746 570.1076896 l 1
 474.931746 584.7873896 l 2
 474.9789437 584.79065541 475.025227 584.79394661 475.072376 584.7973896 c 0
 499.408776 587.3602096 509.021176 582.4334296 510.386876 581.1528496 c 0
 511.726716 579.8963496 515.474486 575.1025796 512.187656 553.8520496 c 2
 456.845856 336.8360496 l 2
 455.757166 332.5651396 449.305036 318.9154496 443.521656 311.6251496 c 1
 380.738456 363.2481496 l 2
 374.349606 368.5012096 366.172056 371.6565196 357.263356 371.6565196 c 0
 345.751456 371.6565196 335.448556 366.4235996 328.660356 358.1681196 c 0
 323.406816 351.7791296 320.251186 343.6012196 320.251186 334.6920196 c 0
 320.251186 323.1807196 325.483626 312.8782196 333.738486 306.0899196 c 2
 410.066586 243.3282196 l 2
 412.610026 241.2369396 415.431136 239.4847896 418.474786 238.1250996 c 0
 435.018686 230.7327196 454.857386 232.3762196 468.525586 238.5157196 c 0
 482.193786 244.6552296 491.534886 253.5587196 499.226786 262.6095196 c 0
 514.608886 280.7089196 523.758886 299.7719196 528.547086 318.5509196 c 1
 528.547086 318.5626196 l 1
 584.449386 537.7286196 l 2
 584.714462 538.7726796 584.939378 539.8545196 585.113446 540.9317396 c 0
 590.839316 576.1027396 585.820566 611.8593396 561.004046 635.1309396 c 0
 542.391646 652.5845396 518.743446 659.0198396 493.275546 659.5879396 c 0
 484.786236 659.7773296 476.095246 659.3166296 467.320446 658.3926296 c 2
 349.527446 646.4297296 l 1
 401.732546 854.6917296 l 2
 402.455094 857.5756796 402.838786 860.5933796 402.838786 863.6999996 c 0
 402.838786 881.0113996 390.911186 895.5427996 374.841886 899.5725996 c 0
 372.000196 900.2866606 369.041376 900.6747896 365.982506 900.6878296 c 1
 365.982506 900.6875996 l 1
 365.982 900.688 l 2
675.119 834.93 m 1
 665.0264 834.8401669 655.8821 830.70619 649.2557 824.0648 c 0
 642.57671 817.3699 638.4449 808.1328 638.4449 797.9383 c 0
 638.4449 787.7098 642.60387 778.4349 649.3221 771.7347 c 0
 711.9505 709.2604 773.5361 650.3927 824.9741 579.0377 c 0
 831.69495 569.7142 842.6479 563.6401 855.0083 563.6401 c 0
 863.0686 563.6401 870.5445 566.27611 876.6245 570.65874 c 0
 885.948 577.37959 892.0221 588.33254 892.0221 600.69294 c 0
 892.0221 608.75324 889.38609 616.22914 885.00346 622.30914 c 0
 828.52906 700.64954 763.41046 762.45114 701.58546 824.12314 c 0
 694.93017 830.76317 685.75366 834.88114 675.63036 834.92974 c 0
 675.5435289 834.930340462 675.456627 834.930641185 675.369656 834.930641185 c 0
 675.282685 834.930641185 675.205471 834.930340462 675.11864 834.92974 c 1
 675.119 834.93 l 1
EndSplineSet
EndChar

StartChar: "+MLAw6jDV 8"
Encoding: 8 12365 7
Width: 1024
LayerCount: 2
Fore
SplineSet
505.377 909.867 m 1
 505.3113829 909.866492775 505.249176 909.86584914 505.18364 909.865 c 0
 501.28396 909.8425598 497.51861 909.206757 493.99224 908.06422 c 0
 479.13724 903.25621 468.38214 889.30082 468.38214 872.85332 c 0
 468.38214 868.87782 469.022893 865.05296 470.1856 861.46262 c 2
 490.5391 798.60322 l 1
 445.6332 788.97502 399.5761 780.74582 352.0311 774.25942 c 0
 333.9888 771.79964 320.067 756.31272 320.067 737.59982 c 0
 320.067 735.89007 320.1439782 734.24376 320.368941 732.59535 c 0
 322.829561 714.55395 338.316041 700.63325 357.028241 700.63325 c 0
 358.738091 700.63325 360.384501 700.7102452 362.033001 700.935234 c 0
 414.147501 708.045024 464.508001 717.161234 513.447001 727.847334 c 1
 547.868901 621.536334 l 1
 445.457901 600.399634 339.465901 581.599134 241.081901 561.600734 c 0
 224.201801 558.168614 211.481801 543.229134 211.481801 525.342134 c 0
 211.481801 522.809404 211.709402 520.364014 212.195162 517.973774 c 0
 215.628002 501.094574 230.567062 488.375574 248.453362 488.375574 c 0
 250.986232 488.375574 253.431752 488.603215 255.822112 489.089026 c 0
 355.427812 509.335726 464.338112 528.453026 570.830112 550.622226 c 1
 604.654312 446.155226 l 1
 439.779312 459.790026 l 2
 397.366612 463.298106 350.707112 450.999066 309.984312 426.180626 c 0
 269.261712 401.362226 232.497212 359.609026 232.466712 304.496626 c 0
 232.439512 255.256926 251.139812 213.367826 282.589712 187.064626 c 0
 314.039612 160.761726 354.026012 149.493426 396.359712 144.746226 c 0
 481.026212 135.251746 580.471712 151.648466 666.869712 164.890726 c 0
 684.616612 167.611016 698.227412 182.959826 698.227412 201.462526 c 0
 698.227412 203.381016 698.118648 205.230346 697.836549 207.070456 c 0
 695.115889 224.816956 679.767249 238.427256 661.264949 238.427256 c 0
 659.348439 238.427256 657.501049 238.318794 655.662739 238.037267 c 0
 569.132539 224.774567 472.629739 210.655167 404.605739 218.283367 c 0
 370.594039 222.097287 345.054239 231.300367 330.070539 243.832167 c 0
 315.086739 256.363567 306.452739 271.672967 306.470939 304.451267 c 0
 306.483039 326.442067 321.512239 346.546367 348.494339 362.990367 c 0
 375.476339 379.434267 412.427339 387.803367 433.681839 386.045067 c 2
 653.913839 367.826267 l 2
 654.929659 367.742387 655.957049 367.699612 656.994359 367.699612 c 0
 677.417259 367.699612 693.998159 384.280412 693.998159 404.703412 c 0
 693.998159 408.675912 693.326756 412.507822 692.165839 416.095812 c 2
 643.501739 566.396812 l 1
 691.976039 577.403212 739.365639 589.262112 784.491739 602.400712 c 0
 799.881339 606.882962 811.140339 621.102412 811.140339 637.930812 c 0
 811.140339 641.520732 810.626991 644.980732 809.671449 648.264012 c 0
 805.190079 663.655012 790.969949 674.915312 774.140549 674.915312 c 0
 774.1084858 674.915312 774.0843207 674.92036443 774.0522766 674.92028274 c 0
 770.4960866 674.91301952 767.0608066 674.39697474 763.8061766 673.45152274 c 0
 718.5381766 660.27172274 670.3366766 648.31962274 620.5911766 637.15272274 c 1
 585.6809766 744.97872274 l 1
 612.5897766 751.85852274 639.1049766 759.16422274 665.2512766 766.85372274 c 0
 680.5961766 771.36421274 691.8126766 785.56172274 691.8126766 802.35832274 c 0
 691.8126766 805.98439274 691.2879806 809.47875274 690.3138166 812.79122274 c 0
 685.8018466 828.13382274 671.6055166 839.34802274 654.8106166 839.34802274 c 0
 654.7438478 839.34802274 654.6871636 839.35214999 654.6204776 839.35179595 c 0
 651.0650976 839.33199385 647.6280676 838.80332695 644.3763776 837.84593595 c 0
 617.5475776 829.95573595 590.3858776 822.49723595 562.8412776 815.51973595 c 1
 540.5853776 884.25603595 l 2
 535.7782476 899.11253595 521.8249776 909.86543595 505.3763776 909.86543595 c 1
 505.377 909.867 l 1
EndSplineSet
EndChar

StartChar: "+MLAw6jDV 9"
Encoding: 9 12367 8
Width: 1024
LayerCount: 2
Fore
SplineSet
661.656 836.111 m 2
 649.5738 836.0798735 638.8609 830.27636 632.1287 821.2809 c 1
 636.67838 827.36069 627.55259 816.75155 617.5642 807.5426 c 0
 607.57582 798.33367 593.848 786.0017 577.8357 771.7496 c 0
 545.8111 743.2455 504.6006 706.9815 464.4057 671.0976 c 0
 424.2108 635.2137 385.1044 599.7906 356.6227 572.2675 c 0
 342.3817 558.5059 330.9346 546.9465 322.3922 536.998 c 0
 318.12103 532.02372 314.64481 528.08351 310.736 520.9199 c 0
 308.78153 517.33808 305.80939 513.39111 305.236 502.2578 c 0
 304.94913 496.69116 305.81233 488.3561 310.77311 480.2168 c 0
 315.7326 472.07959 324.42391 466.2169 331.11101 463.9395 c 1
 324.21326 466.28821 335.21471 461.517 345.61491 454.32036 c 0
 356.01511 447.12373 369.88521 436.89966 385.75161 424.80666 c 0
 417.48451 400.62076 457.36831 368.87316 496.82561 336.88286 c 0
 536.28321 304.89256 575.36801 272.63016 605.75361 247.25786 c 0
 636.13891 221.88586 660.26921 201.03446 661.40591 199.96296 c 0
 668.03205 193.71536 676.96101 189.88406 686.77771 189.88406 c 0
 697.38051 189.88406 706.95811 194.3421 713.70671 201.49816 c 0
 719.95664 208.12473 723.78951 217.05536 723.78951 226.87416 c 0
 723.78951 237.47886 719.32984 247.05796 712.17151 253.80676 c 0
 703.41226 262.06654 683.83981 278.45456 653.18131 304.05486 c 0
 622.52271 329.65516 583.22161 362.10226 543.42731 394.36536 c 0
 503.63311 426.62856 463.39721 458.67536 430.61131 483.66416 c 0
 417.90071 493.35181 407.50441 500.83786 397.35541 508.08996 c 1
 401.3777 512.14033 403.16617 514.33842 408.04481 519.05286 c 0
 434.98151 545.08276 473.76451 580.25286 513.68781 615.89466 c 0
 553.61081 651.53646 594.74211 687.72946 627.03581 716.47266 c 0
 643.18251 730.84426 657.09801 743.33486 667.72521 753.13276 c 0
 678.35251 762.93073 682.81791 765.50686 691.37751 776.94526 c 0
 695.99763 783.11982 698.73496 790.78326 698.73496 799.08086 c 0
 698.73496 811.20366 692.94116 821.98606 683.92046 828.73626 c 0
 677.74591 833.35636 670.08256 836.09368 661.78486 836.09368 c 0
 661.7519394 836.09368 661.6896723 836.1113505 661.656772 836.1112643 c 2
 661.656 836.111 l 2
EndSplineSet
EndChar

StartChar: "+MLAw6jDV 10"
Encoding: 10 12369 9
Width: 1024
LayerCount: 2
Fore
SplineSet
603.955 880.799 m 1
 603.955 880.797 l 1
 603.9088984 880.797169138 603.862777 880.79725378 603.816636 880.79725378 c 0
 603.770495 880.79725378 603.7296117 880.797169138 603.68351 880.797 c 0
 598.74503 880.7442339 594.0044 879.70503 589.70891 877.89465 c 0
 576.40871 872.28446 567.06341 859.11825 567.06341 843.78655 c 0
 567.06341 838.69545 568.13638 833.83435 569.99995 829.41815 c 0
 584.65235 794.68485 596.22035 761.11095 605.11325 728.50415 c 1
 428.79125 704.34005 l 2
 410.75925 701.87106 396.84835 686.38895 396.84835 667.68335 c 0
 396.84835 665.96788 396.9261473 664.31599 397.152594 662.66229 c 0
 399.624914 644.63399 415.105294 630.72699 433.808194 630.72699 c 0
 435.524034 630.72699 437.176274 630.8048507 438.830314 631.031393 c 2
 620.869314 655.974793 l 1
 648.217814 486.991793 605.951314 342.163793 556.763814 191.697793 c 0
 555.580644 188.079103 554.940774 184.215573 554.940774 180.203793 c 0
 554.940774 163.793093 565.634274 149.867893 580.437674 145.029893 c 0
 584.054344 143.848193 587.915484 143.209143 591.924674 143.209143 c 0
 608.334474 143.209143 622.259074 153.901543 627.097774 168.703743 c 0
 676.616074 320.181743 722.277574 480.860743 693.597774 665.939743 c 1
 829.560774 684.570643 l 2
 847.592974 687.039523 861.503974 702.521743 861.503974 721.227343 c 0
 861.503974 722.943483 861.426086 724.596013 861.199467 726.250323 c 0
 858.747247 744.158723 843.451267 758.040123 824.918267 758.228823 c 0
 824.787304 758.23019008 824.656179 758.23087531 824.524895 758.23087531 c 0
 822.809975 758.23087531 821.167155 758.11527531 819.513965 757.88897331 c 2
 678.683965 738.58817331 l 1
 668.781155 777.33687331 655.486865 817.15567331 638.178065 858.18617331 c 0
 632.566365 871.48297331 619.401865 880.82537331 604.072565 880.82537331 c 0
 604.0269975 880.82537331 604.0009153 880.79963381 603.955386 880.79946881 c 2
 603.955 880.799 l 1
223.117 730.75 m 1
 205.0839 730.6890414 190.0693 717.6685 186.8709 700.543 c 0
 162.4442 569.838 138.0289 417.606 212.1619 248.469 c 0
 217.88498 235.4246 230.9187 226.3038 246.0658 226.3038 c 0
 254.23373 226.3038 261.8016 229.00308 267.9256 233.49243 c 0
 322.9252 273.83023 345.8763 327.83753 367.9566 371.23043 c 0
 370.51695 376.26029 371.9608 381.95203 371.9608 387.97843 c 0
 371.9608 402.37543 363.7789 414.87763 351.7613 420.99213 c 0
 346.73315 423.55027 341.0438 424.99279 335.0203 424.99279 c 0
 320.624 424.99279 308.1222 416.81161 302.0074 404.79489 c 0
 287.8225 376.91859 275.545 352.41019 260.1519 330.97649 c 1
 219.8112 458.40449 238.3405 573.12749 259.61284 686.95349 c 0
 260.026789 689.16761 260.243266 691.4509 260.243266 693.78435 c 0
 260.243266 711.87245 247.204066 726.91555 230.040566 730.12345 c 0
 227.831356 730.535486 225.553356 730.750939 223.225426 730.750939 c 0
 223.1778443 730.750939 223.1642765 730.750579439 223.116737 730.750399579 c 1
 223.117 730.75 l 1
EndSplineSet
EndChar

StartChar: "+MLAw6jDV 11"
Encoding: 11 12371 10
Width: 1024
LayerCount: 2
Fore
SplineSet
520.672 784.949 m 1
 485.3731 784.892 450.3646 781.88555 418.307 775.98025 c 0
 375.5632 768.10655 338.0936 756.60185 309.77 732.87085 c 0
 301.66913 726.08134 296.5146 715.88935 296.5146 704.50295 c 0
 296.5146 695.46808 299.7926 687.17355 305.18011 680.74585 c 0
 311.96962 672.64288 322.16291 667.48685 333.55101 667.48685 c 0
 342.58352 667.48685 350.87611 670.76321 357.30311 676.1482 c 0
 367.16691 684.4126 395.83231 696.5934 431.71331 703.2029 c 0
 467.59431 709.8123 510.72441 712.37835 551.94731 710.13455 c 0
 593.17061 707.89075 632.69641 700.63027 660.66231 689.80445 c 0
 669.21882 686.49215 675.87921 682.9673 681.68571 679.43135 c 1
 652.18761 663.19895 l 2
 640.74531 656.90345 632.98441 644.73005 632.98441 630.75835 c 0
 632.98441 624.30811 634.70073 618.22535 637.60756 612.94305 c 0
 643.9033 601.50155 656.07616 593.74135 670.04726 593.74135 c 0
 676.49784 593.74135 682.58096 595.45785 687.86336 598.36495 c 2
 756.66216 636.22625 l 2
 768.10576 642.52233 775.86766 654.69695 775.86766 668.67025 c 0
 775.86766 672.3385 775.287135 675.85629 774.29111 679.20285 c 0
 762.07951 720.22535 726.18641 743.79475 687.37701 758.81805 c 0
 648.56771 773.84145 602.90201 781.46475 555.97101 784.01925 c 0
 544.23861 784.65785 532.43861 784.96804 520.67221 784.94894 c 2
 520.672 784.949 l 1
285.023 372.895 m 1
 285.0065459 372.89433653 284.9906486 372.893685 284.9742 372.893 c 0
 270.0586 372.8206103 257.2331 363.93411 251.4469 351.1528 c 0
 249.34524 346.50857 248.17497 341.3543 248.17497 335.9288 c 0
 248.17497 320.934 257.06463 307.999 269.89997 302.1899 c 0
 435.57397 227.2124 584.34797 226.8332 717.94497 261.2114 c 0
 733.90307 265.31822 745.70917 279.815 745.70917 297.0474 c 0
 745.70917 300.23537 745.31592 303.31185 744.55627 306.2641 c 0
 740.44945 322.2222 725.95267 334.0283 708.72027 334.0283 c 0
 705.5323 334.0283 702.45582 333.63505 699.50357 332.8754 c 0
 578.38257 301.7075 451.37457 301.2798 300.40957 369.6001 c 0
 295.76294 371.70439 290.60543 372.87621 285.17637 372.87621 c 0
 285.1345682 372.87621 285.064609 372.8951594 285.02284 372.8950205 c 1
 285.023 372.895 l 1
EndSplineSet
EndChar

StartChar: "+MLAw6jDV 12"
Encoding: 12 12373 11
Width: 1024
LayerCount: 2
Fore
SplineSet
508.801 872.1 m 2
 508.7907445 872.100008365 508.7804879 872.100012548 508.7702305 872.100012548 c 0
 502.4290505 872.100012548 496.4203305 870.478412548 491.2014305 867.662502548 c 0
 479.6133305 861.410222548 471.7318305 849.156702548 471.7318305 835.076802548 c 0
 471.7318305 829.375302548 473.0833205 823.962402548 475.3908705 819.137102548 c 1
 475.3568705 819.195102548 475.3504705 819.197102548 475.3908705 819.098002548 c 0
 475.6981505 818.349702548 476.2177305 817.041112548 476.8811105 815.355812548 c 0
 478.2078705 811.984812548 480.1167605 807.056832548 482.4768105 800.900712548 c 0
 487.1968805 788.588112548 493.7509105 771.311612548 501.5002105 750.793312548 c 0
 508.4139505 732.487612548 516.5137105 710.960012548 524.8967105 688.658512548 c 1
 263.6547105 642.389012548 l 2
 246.3202105 639.320392548 233.1373105 624.165612548 233.1373105 605.956012548 c 0
 233.1373105 603.745512548 233.2979695 601.612472548 233.6703425 599.508162548 c 0
 236.7414825 582.176762548 251.8948425 568.996962548 270.1022425 568.996962548 c 0
 272.3158425 568.996962548 274.4519125 569.158205548 276.5590025 569.531603548 c 2
 551.3420025 618.193703548 l 1
 553.4067925 612.685493548 555.3724425 607.460903548 557.4396525 601.943703548 c 0
 582.5480525 534.931503548 592.1189525 509.247403548 607.3263525 468.531703548 c 1
 592.9160525 474.180203548 577.4712525 480.026903548 561.2482525 485.687903548 c 0
 526.8893525 497.676903548 489.7637525 508.893803548 454.4342525 515.443803548 c 0
 419.1043525 521.993723548 385.9000525 525.590203548 353.8402525 513.937943548 c 0
 313.5221525 499.284343548 282.8799525 469.561843548 261.2933525 437.209443548 c 0
 239.7067525 404.857043548 226.1994525 369.977843548 226.3909525 335.133443548 c 0
 226.6806925 282.427543548 258.7464525 240.350943548 298.6097525 214.299443548 c 0
 338.4730525 188.247943548 387.1548525 173.451943548 436.0527525 164.184243548 c 0
 484.9510525 154.916843548 534.0681525 151.614143548 574.4847525 151.922543548 c 0
 594.6929525 152.076743548 612.6654525 153.123083548 627.8343525 154.992853548 c 0
 643.0032525 156.862163548 653.5297525 157.524113548 668.6038525 165.586653548 c 0
 680.2542525 171.819903548 688.1875525 184.107653548 688.1875525 198.233653548 c 0
 688.1875525 204.528193548 686.5511325 210.473253548 683.7737325 215.664753548 c 0
 677.5400725 227.313853548 665.2530325 235.246053548 651.1280325 235.246053548 c 0
 644.8353325 235.246053548 638.8919325 233.610553548 633.7015325 230.834663548 c 1
 639.0078025 233.672673548 630.1184425 229.833223548 618.7835325 228.436233548 c 0
 607.4487325 227.039313548 591.8250325 226.055433548 573.9163325 225.918653548 c 0
 538.0989325 225.645393548 492.8844325 228.728533548 449.8343325 236.887453548 c 0
 406.7842325 245.046773548 365.9067325 258.715653548 339.0903325 276.240953548 c 0
 312.2737325 293.765853548 300.5333325 310.377453548 300.3950325 335.539753548 c 0
 300.3271325 347.888953548 308.0096825 373.893053548 322.8520325 396.137453548 c 0
 337.6944325 418.382253548 358.7213325 436.973353548 379.1157325 444.385453548 c 0
 386.6972025 447.141063548 411.5248325 448.134573548 440.9458325 442.680373548 c 0
 470.3668325 437.225793548 504.7125325 427.037773548 536.8677325 415.817073548 c 0
 601.1781325 393.376473548 656.3347325 367.289673548 656.3347325 367.289673548 c 2
 661.1290625 365.018843548 666.4880325 363.748323548 672.1413325 363.748323548 c 0
 692.5642325 363.748323548 709.1451325 380.329123548 709.1451325 400.752123548 c 0
 709.1451325 405.296793548 708.3443355 409.646773548 706.8425825 413.670523548 c 2
 706.8425825 413.670523548 667.0608825 520.280523548 626.7351825 627.906523548 c 0
 626.3011325 629.064913548 625.8880425 630.160133548 625.4539225 631.318633548 c 1
 760.3309225 655.205333548 l 2
 777.6632225 658.275713548 790.8440225 673.429533548 790.8440225 691.637533548 c 0
 790.8440225 693.851023548 790.6828095 695.986973548 790.3094495 698.093963548 c 0
 787.2386295 715.425763548 772.0850495 728.605963548 753.8774495 728.605963548 c 0
 753.8532251 728.605963548 753.829812 728.638931248 753.8055984 728.638884648 c 0
 751.6200284 728.633929198 749.5100484 728.439646648 747.4286384 728.070524648 c 2
 599.0186384 701.785424648 l 1
 588.7516384 729.118724648 579.0274384 754.964224648 570.7276384 776.939724648 c 0
 562.9558384 797.517424648 556.3759384 814.854524648 551.5714384 827.387024648 c 0
 549.1692084 833.653124648 547.2179084 838.709724648 545.7413584 842.461224648 c 0
 545.0031084 844.336624648 544.3900884 845.866504648 543.8429284 847.199504648 c 0
 543.2957284 848.532204648 543.9899784 847.745904648 541.3331584 852.670204648 c 0
 535.0853084 864.248904648 522.8680584 872.088204648 508.8018584 872.099904648 c 2
 508.801 872.1 l 2
EndSplineSet
EndChar

StartChar: "+MLAw6jDV 13"
Encoding: 13 12375 12
Width: 1024
LayerCount: 2
Fore
SplineSet
375.23 830.084 m 2
 375.099227 830.084 374.973735 830.083356479 374.84328 830.082 c 0
 368.49791 830.0139179 362.48698 828.32186 357.28858 825.43747 c 0
 345.91228 819.12298 338.20588 806.98607 338.20588 793.06347 c 0
 338.20588 786.56543 339.94706 780.44047 342.8941 775.13077 c 0
 361.8284 741.01867 378.0324 721.69707 381.1168 693.38267 c 1
 366.2359 368.38067 l 2
 366.2092926 367.80551 366.1958417 367.22694 366.1958417 366.64525 c 0
 366.1958417 365.911156 366.2170463 365.23705 366.2593 364.51348 c 0
 369.05063 317.23388 382.3568 278.91888 404.9253 250.69948 c 0
 427.4938 222.47968 458.5046 206.00348 489.7358 198.90068 c 0
 552.1984 184.69498 616.4858 202.06528 664.4568 224.56668 c 0
 677.0465 230.47351 685.7737 243.26728 685.7737 258.08318 c 0
 685.7737 263.68601 684.47296 269.01228 682.23996 273.77368 c 0
 676.33446 286.36688 663.53896 295.09698 648.72046 295.09698 c 0
 643.11881 295.09698 637.79356 293.7968 633.03296 291.56468 c 0
 596.41726 274.38938 542.84966 262.71138 506.14596 271.05878 c 0
 487.79426 275.23252 473.89576 282.93948 462.71826 296.91618 c 0
 451.68556 310.71148 442.56116 332.34848 440.27686 367.59778 c 2
 455.21046 693.75978 l 2
 455.2362577 694.326176 455.2492969 694.89587 455.2492969 695.46859 c 0
 455.2492969 696.63077 455.1963581 697.71858 455.0913199 698.85353 c 0
 450.2216199 751.61003 422.1939199 784.74543 407.5972199 811.04253 c 0
 401.2823299 822.41743 389.1462199 830.12273 375.2246199 830.12273 c 0
 375.21853935 830.12273 375.2360829 830.083539 375.23000307 830.0835361 c 1
 375.23004307 830.0835361 l 1
 375.23 830.084 l 2
EndSplineSet
EndChar

StartChar: "+MLAw6jDV 14"
Encoding: 14 12377 13
Width: 1024
LayerCount: 2
Fore
SplineSet
549.455 872.18 m 2
 545.89888 872.1649349 542.46208 871.640912 539.2089 870.68781 c 0
 523.8532 866.1841 512.6266 851.98131 512.6266 835.17711 c 0
 512.6266 831.56106 513.148167 828.07622 514.11715 824.77181 c 0
 522.97863 794.55051 531.30915 758.78751 538.39255 720.99481 c 1
 408.55355 717.71041 266.57355 720.49397 204.92755 734.00461 c 0
 202.36808 734.565504 199.70978 734.861114 196.98298 734.861114 c 0
 179.28938 734.861114 164.50518 722.391614 160.86508 705.783914 c 0
 160.304186 703.224444 160.008576 700.566144 160.008576 697.839344 c 0
 160.008576 680.145744 172.478076 665.361544 189.085776 661.721444 c 0
 271.589376 643.639644 415.956776 643.465444 550.190776 647.272244 c 1
 551.793976 635.223044 553.251076 623.187744 554.503276 611.274244 c 1
 547.429286 611.371344 540.531176 610.656224 534.231776 609.141424 c 0
 508.584976 602.972824 486.438176 588.861824 466.311876 571.471524 c 0
 446.185576 554.080724 428.454076 533.098624 415.665376 509.883624 c 0
 402.876776 486.669024 393.694376 460.397424 399.741576 431.287924 c 0
 408.104686 391.033224 438.777976 373.140924 462.030676 359.506724 c 0
 485.207976 345.917024 506.676276 338.222624 506.815876 338.172724 c 0
 517.982276 334.078734 530.113876 332.186394 542.028776 332.674674 c 1
 521.732276 262.121874 497.190876 203.342674 497.190876 203.342674 c 2
 495.292236 198.891554 494.241276 193.993614 494.241276 188.852174 c 0
 494.241276 173.572274 503.479926 160.433974 516.708476 154.791974 c 0
 521.158406 152.894534 526.054796 151.844274 531.194576 151.844274 c 0
 546.471476 151.844274 559.607576 161.079274 565.251476 174.303674 c 2
 565.251476 174.303674 596.388776 247.088074 619.028876 332.149674 c 0
 630.348876 374.679974 639.741076 420.420374 641.815976 463.710674 c 0
 643.175846 492.082874 641.304086 519.852974 633.091366 545.368874 c 1
 632.002856 579.014574 629.013666 614.460474 624.587456 649.909874 c 1
 666.737956 651.707074 705.712956 653.873194 738.269456 656.075894 c 0
 763.038256 657.751694 784.102856 659.438304 800.328056 661.021204 c 0
 816.553356 662.604104 824.521156 662.857254 836.654256 666.144254 c 0
 852.385956 670.404204 863.972756 684.790954 863.972756 701.862554 c 0
 863.972756 705.211824 863.532964 708.442584 862.697206 711.528974 c 0
 858.434996 727.257274 844.049906 738.840874 826.980706 738.840874 c 0
 826.844971 738.840874 826.721299 738.85079973 826.585907 738.84933851 c 0
 823.377737 738.81504581 820.270267 738.36704851 817.306607 737.56417851 c 1
 821.389447 738.66997851 808.261837 736.14599851 793.146407 734.67159851 c 0
 778.031007 733.19679851 757.512607 731.55017851 733.271407 729.90987851 c 0
 699.358407 727.61507851 658.021907 725.34333851 613.365407 723.50753851 c 1
 605.462007 767.44253851 595.744107 809.36983851 585.123207 845.59153851 c 0
 580.620577 860.94893851 566.416907 872.17723851 549.611507 872.17723851 c 0
 549.556277 872.17723851 549.510415 872.18166215 549.455242 872.18141986 c 2
 549.455 872.18 l 2
555.383 538.738 m 1
 556.97158 536.63088 558.42528 533.47458 559.83417 530.13839 c 0
 559.87427 527.74746 560.22572 524.96261 560.24042 522.6091 c 0
 560.53409 475.6039 554.58787 435.8665 546.53922 417.6301 c 0
 542.51493 408.5124 539.01124 406.1386 538.98063 406.1223 c 0
 538.95043 406.1072 539.80912 404.88276 532.2775 407.64964 c 0
 532.2284566 407.6671705 532.1782085 407.6850111 532.12907 407.70234 c 2
 532.12907 407.70234 515.97927 413.6572 499.45717 423.34494 c 0
 482.93487 433.03255 471.83147 448.09134 472.19547 446.33904 c 1
 471.67159 448.86116 472.82615 460.28524 480.47868 474.17694 c 0
 488.13127 488.06824 500.95068 503.60314 514.69348 515.47774 c 0
 528.43618 527.35224 543.47198 535.25484 551.53728 537.19454 c 0
 554.86088 537.99387 555.17488 538.4068 555.38298 538.73751 c 2
 555.38298 538.73754 l 1
 555.383 538.738 l 1
EndSplineSet
EndChar

StartChar: "+MLAw6jDV 15"
Encoding: 15 12379 14
Width: 1024
LayerCount: 2
Fore
SplineSet
670.742 796.447 m 1
 651.5278 796.3772213 635.7418 781.5935 634.0291 762.8064 c 0
 630.7236 726.6136 628.41366 691.4722 625.23418 656.7014 c 1
 588.36068 650.7229 549.19878 644.253 509.66018 637.5959 c 0
 480.78448 632.73422 452.10138 627.82881 424.09178 622.9943 c 1
 422.04295 716.5744 l 2
 421.606837 736.6178 405.19905 752.7556 385.05175 752.7556 c 0
 384.926632 752.7556 384.808359 752.7689613 384.683533 752.7677194 c 0
 384.533327 752.76523202 384.38994 752.76199554 384.240173 752.7577194 c 0
 364.197073 752.3212064 348.059673 735.9135194 348.059673 715.7666194 c 0
 348.059673 715.4907454 348.0485901 715.2294764 348.05461023 714.9550354 c 2
 350.35344023 610.1190354 l 1
 335.50724023 607.4896554 321.12234023 604.9234954 307.67574023 602.4920854 c 0
 249.99254023 592.0620854 210.19224023 584.7450854 191.29274023 579.5565854 c 0
 175.62234023 575.2560154 164.09454023 560.8990854 164.09454023 543.8710854 c 0
 164.09454023 540.4783854 164.54724323 537.2061654 165.40407023 534.0839654 c 0
 169.70398023 518.4125654 184.06137023 506.8837654 201.09017023 506.8837654 c 0
 204.48548023 506.8837654 207.76021023 507.3371724 210.88456023 508.1952754 c 0
 217.91676023 510.1258654 263.59386023 519.3255754 320.84556023 529.6776754 c 0
 330.64796023 531.4502054 341.39976023 533.3582954 351.99596023 535.2440854 c 1
 355.63854023 369.2400854 l 1
 353.20684023 290.1037854 420.08514023 220.7800854 500.87454023 228.0600854 c 0
 611.84854023 238.0617854 710.85454023 255.8647854 798.35654023 281.5424854 c 0
 813.70834023 286.0486654 824.93124023 300.2494854 824.93124023 317.0509854 c 0
 824.93124023 320.6671454 824.40957623 324.1520654 823.44053023 327.4565854 c 0
 818.93520023 342.8096854 804.73363023 354.0338854 787.93123023 354.0338854 c 0
 784.31182023 354.0338854 780.82378023 353.5112854 777.51663023 352.5405654 c 0
 695.63083023 328.5114654 601.29563023 311.4107654 494.22963023 301.7612654 c 0
 461.31843023 298.7954654 428.17283023 332.8854654 429.61633023 367.6382654 c 0
 429.63714873 368.1473944 429.64765963 368.6591654 429.64765963 369.1733654 c 0
 429.64765963 369.4568704 429.6441865 369.7019854 429.63783027 369.9839764 c 2
 425.73158027 548.1829764 l 1
 456.98208027 553.5935964 489.41378027 559.1379764 521.94058027 564.6145764 c 0
 553.86978027 569.9902764 585.53468027 575.2354764 616.00508027 580.2161764 c 1
 609.79218027 541.3408764 600.69068027 502.3282764 585.96408027 462.2361764 c 0
 584.50466027 458.2628164 583.70784027 453.9706164 583.70784027 449.4937764 c 0
 583.70784027 433.5496764 593.78764027 419.9454764 607.93864027 414.7478764 c 0
 611.91182027 413.2886064 616.20381027 412.4918664 620.68044027 412.4918664 c 0
 636.62514027 412.4918664 650.22974027 422.5725664 655.42694027 436.7244664 c 0
 675.32424027 490.8937664 686.05684027 542.6244664 692.78824027 592.5784664 c 1
 702.54354027 594.1178764 712.08354027 595.6140464 721.09684027 597.0081564 c 0
 749.06764027 601.3342864 773.17284027 604.9117664 791.34294027 607.3948564 c 0
 809.51264027 609.8780464 824.25884027 611.1569864 823.47574027 611.1448564 c 1
 843.62774027 611.4574014 859.89174027 627.9145564 859.89174027 648.1403564 c 0
 859.89174027 648.3343984 859.90064599 648.5178934 859.89766304 648.7112304 c 0
 859.58706204 668.8649304 843.12916304 685.1308304 822.90206304 685.1308304 c 0
 822.85876534 685.1308304 822.81786914 685.1410268 822.77460604 685.1408779 c 0
 822.62440004 685.13839052 822.48101304 685.13515403 822.33124604 685.1308779 c 0
 811.11814604 684.9570579 800.23134604 683.2926079 781.32534604 680.7089979 c 0
 762.41904604 678.1248979 738.00894604 674.5048879 709.78044604 670.1386979 c 0
 706.85486604 669.6861979 703.72507604 669.1946879 700.71989604 668.7265879 c 1
 703.15368604 698.3265879 705.10110604 727.4051879 707.71989604 756.0781879 c 0
 707.82202404 757.1974779 707.87421304 758.3311179 707.87421304 759.4768479 c 0
 707.87421304 778.7518479 693.06561304 794.5687479 674.23551304 796.2871479 c 0
 673.24249204 796.3788227 672.26717304 796.4299649 671.25309304 796.4414479 c 0
 671.16626194 796.442048362 671.07936004 796.442349085 670.99238904 796.442349085 c 0
 670.90541804 796.442349085 670.82820404 796.442048362 670.74137304 796.4414479 c 1
 670.742 796.447 l 1
EndSplineSet
EndChar

StartChar: "+MLAw6jDV 16"
Encoding: 16 12381 15
Width: 1024
LayerCount: 2
Fore
SplineSet
653.416 831.363 m 1
 653.416 831.361 l 1
 653.4075413 831.361005689 653.3990819 831.361008535 653.3906219 831.361008535 c 0
 651.7982919 831.361008535 650.2680819 831.261631735 648.7285019 831.066079535 c 0
 571.6314019 821.205719535 492.0775019 813.071579535 398.4235019 783.269279535 c 0
 383.4800019 778.513369535 372.6423019 764.514079535 372.6423019 748.003479535 c 0
 372.6423019 744.093939535 373.2604749 740.331279535 374.3864319 736.792679535 c 0
 379.1428719 721.850079535 393.1417319 711.013179535 409.6516319 711.013179535 c 0
 413.5613819 711.013179535 417.3242319 711.631433535 420.8629319 712.757499535 c 0
 461.5272319 725.697499535 499.2473319 734.022999535 536.1089319 740.462599535 c 1
 439.3624319 663.533699535 334.6499319 601.203599535 230.7649319 529.360599535 c 0
 221.1176419 522.679159535 214.7937319 511.531899535 214.7937319 498.919199535 c 0
 214.7937319 478.496299535 231.3745319 461.915399535 251.7975319 461.915399535 c 0
 255.9052319 461.915399535 259.8999019 462.616860535 263.5931319 463.854729535 c 0
 372.3071319 500.374029535 476.5821319 540.521829535 585.0811319 571.032729535 c 1
 538.9920319 530.669629535 506.8161319 489.024629535 487.2041319 447.399729535 c 0
 448.9817319 366.274029535 461.8477319 283.679729535 510.4131319 230.600729535 c 0
 528.1633319 211.202729535 549.6527319 205.025029535 571.7334319 200.239429535 c 0
 593.8138319 195.453419535 617.6201319 193.525599535 641.2119319 192.880059535 c 0
 688.3955319 191.589349535 733.5363319 195.581959535 755.5729319 198.749199535 c 0
 773.4886319 201.321759535 787.2766319 216.749599535 787.2766319 235.372299535 c 0
 787.2766319 237.170909535 787.1866711 238.903649535 786.9381469 240.633949535 c 0
 784.3627769 258.546449535 768.9364469 272.331149535 750.3159469 272.331149535 c 0
 748.5143169 272.331149535 746.7786369 272.240738035 745.0455569 271.991393535 c 0
 729.2252569 269.717623535 684.6199569 265.722703535 643.2425569 266.854673535 c 0
 622.5541569 267.420463535 602.3742569 269.315403535 587.4046569 272.559753535 c 0
 572.4346569 275.804473535 563.8070569 281.866523535 565.0081569 280.553893535 c 1
 536.4768569 311.736493535 526.1005569 356.332693535 554.1487569 415.864893535 c 0
 582.1973569 475.396193535 652.9471569 548.242893535 788.5097569 614.895893535 c 0
 800.7594569 620.930543535 809.1960569 633.543593535 809.1960569 648.111493535 c 0
 809.1960569 668.534393535 792.6152569 685.115293535 772.1922569 685.115293535 c 0
 770.5870469 685.115293535 769.0085469 684.993034535 767.4569869 684.794355535 c 0
 674.1948869 672.767855535 587.7919869 650.457355535 504.5589869 624.411555535 c 1
 564.3185869 666.852255535 623.3189869 712.950355535 679.3459869 767.966555535 c 0
 686.1795069 774.681965535 690.4200869 784.027555535 690.4200869 794.355855535 c 0
 690.4200869 814.777155535 673.8349869 831.360355535 653.4143869 831.363055535 c 1
 653.416 831.363 l 1
EndSplineSet
EndChar

StartChar: "+MLAw6jDV 17"
Encoding: 17 12383 16
Width: 1024
LayerCount: 2
Fore
SplineSet
312.061 847.1 m 1
 312.061 847.096 l 1
 311.9983352 847.096312599 311.935634 847.096469083 311.872896 847.096469083 c 0
 311.8101583 847.096469083 311.754525 847.096312599 311.69186 847.096 c 0
 293.01646 846.872979 277.64146 832.7463 275.41066 814.6175 c 2
 263.71336 719.512 l 1
 161.89936 696.012 l 2
 145.49266 692.22311 133.24606 677.5099 133.24606 659.9589 c 0
 133.24606 657.09028 133.553784 654.32059 134.172793 651.6389 c 0
 137.958983 635.2285 152.673993 622.9782 170.227493 622.9782 c 0
 173.095503 622.9782 175.864613 623.285727 178.545783 623.904481 c 2
 254.100483 641.343881 l 1
 202.084883 218.433881 l 2
 201.900978 216.939891 201.806277 215.418461 201.806277 213.875081 c 0
 201.806277 194.995281 216.017277 179.436181 234.293877 177.189781 c 0
 235.787327 177.006012 237.308197 176.911382 238.850997 176.911382 c 0
 257.729997 176.911382 273.288597 191.121282 275.536097 209.396782 c 2
 330.838797 659.056782 l 1
 496.660797 697.332182 l 2
 513.071097 701.118422 525.321297 715.833382 525.321297 733.386882 c 0
 525.321297 736.257672 525.013121 739.029472 524.393202 741.713022 c 0
 520.605992 758.119022 505.897202 770.387422 488.348302 770.390722 c 0
 485.477482 770.390143326 482.703672 770.060057 480.020172 769.439552 c 2
 340.452172 737.224752 l 1
 348.860382 805.588052 l 2
 349.043684 807.079652 349.138072 808.598592 349.138072 810.139402 c 0
 349.138072 829.018202 334.928572 844.576602 316.653372 846.824402 c 0
 315.163802 847.007196 313.646972 847.101318 312.108322 847.101318 c 0
 312.0793955 847.101318 312.0904884 847.09985887 312.0615773 847.09979237 c 1
 312.0615773 847.09988237 l 1
 312.061 847.1 l 1
718.014 608.824 m 1
 716.34012 608.824 714.67494 608.82373 713.01595 608.8123 c 0
 633.38315 608.24378 570.88195 589.0796 529.98095 577.1072 c 0
 514.61625 572.60916 503.38105 558.402 503.38105 541.5913 c 0
 503.38105 537.97995 503.901086 534.49957 504.86765 531.199 c 0
 509.36636 515.8354 523.57305 504.6012 540.38295 504.6012 c 0
 543.99169 504.6012 547.46958 505.12049 550.76805 506.08571 c 0
 606.47505 522.39211 682.46305 546.04421 786.34005 529.18341 c 0
 788.28016 528.868739 790.27066 528.705162 792.29907 528.705162 c 0
 810.68907 528.705162 825.92907 542.186862 828.78537 559.775162 c 0
 829.100878 561.717772 829.264898 563.710912 829.264898 565.742062 c 0
 829.264898 584.131762 815.783498 599.371762 798.195498 602.228262 c 0
 769.897098 606.821782 743.121798 608.756382 718.013898 608.823962 c 1
 718.013898 608.823942 l 1
 718.014 608.824 l 1
547.318 392.289 m 1
 543.59417 392.2726535 539.99706 391.697636 536.609 390.65619 c 0
 521.4799 386.01191 510.4678 371.92079 510.4678 355.27789 c 0
 510.4678 351.5008 511.041533 347.86329 512.09531 344.42969 c 0
 518.35217 324.04779 532.95291 313.26239 546.22031 305.83789 c 0
 559.48771 298.41339 573.79411 293.58609 589.50151 289.45699 c 0
 620.91641 281.19906 658.00981 276.39389 695.13651 273.29879 c 0
 732.26301 270.20407 769.14451 268.98912 798.58551 268.88473 c 0
 813.30611 268.83253 826.13311 269.05245 836.43311 269.49605 c 0
 846.73321 269.93973 851.40171 269.45605 862.68311 272.25777 c 0
 878.79161 276.26016 890.74451 290.82967 890.74451 308.16897 c 0
 890.74451 311.24777 890.381452 314.21956 889.67139 317.08005 c 0
 885.67174 333.19245 871.10029 345.14925 853.75829 345.14925 c 0
 850.67949 345.14925 847.70768 344.786252 844.84718 344.07619 c 1
 850.541 345.49019 841.94024 343.80813 833.24368 343.43361 c 0
 824.54706 343.05868 812.64008 342.83178 798.84328 342.88088 c 0
 771.24968 342.97878 735.94528 344.15358 701.28468 347.04299 c 0
 666.62408 349.93206 632.33518 354.71201 608.31788 361.02539 c 0
 596.30928 364.18201 586.88228 367.88065 582.35498 370.41406 c 0
 580.72173 371.32837 580.80023 371.44089 580.69482 371.56641 c 0
 574.72578 383.75091 562.26892 392.14581 547.82962 392.28711 c 0
 547.7427889 392.287710462 547.655887 392.288011185 547.568916 392.288011185 c 0
 547.4819446 392.288011185 547.404731 392.287710462 547.3179 392.28711 c 1
 547.3179 392.28906 l 1
 547.318 392.289 l 1
EndSplineSet
EndChar

StartChar: "+MLAw6jDV 18"
Encoding: 18 12385 17
Width: 1024
LayerCount: 2
Fore
SplineSet
428.062 890.977 m 1
 409.9198 890.77669 394.5969 877.4532 391.8823 859.5141 c 2
 391.8823 859.5141 379.2003 775.5366 370.3628 717.0471 c 1
 347.2814 715.14839 325.3378 713.42207 306.3706 712.00217 c 0
 271.8769 709.41967 243.6863 707.78279 242.4741 707.76389 c 0
 222.3285 707.444044 206.072 690.98979 206.072 670.76859 c 0
 206.072 670.572487 206.06290339 670.387033 206.06594993 670.19165 c 0
 206.38157893 650.04235 222.83754993 633.78155 243.06134993 633.78155 c 0
 243.25807393 633.78155 243.44411493 633.77259036 243.64011493 633.77565619 c 0
 254.78431493 633.95064619 277.05631493 635.59663619 311.89991493 638.20534619 c 0
 326.16271493 639.27294619 342.24831493 640.53353619 359.00931493 641.88112619 c 1
 356.82120493 627.38082619 356.77581493 627.11412619 354.56009493 612.42022619 c 0
 345.26828493 550.79992619 336.01559493 489.33322619 329.16559493 443.55922619 c 0
 325.74057493 420.67192619 322.91399493 401.71672619 320.98004493 388.58662619 c 0
 320.01309493 382.02203619 319.26840493 376.92812619 318.77301493 373.44602619 c 0
 318.52545493 371.70483619 318.34775493 370.40742619 318.20465493 369.31321619 c 0
 318.13325493 368.76631619 318.08341493 368.44030619 317.97418493 367.35032619 c 0
 317.91978493 366.80531619 319.09238493 368.40511619 317.81207493 361.93040619 c 0
 306.26907493 303.54990619 376.92927493 302.70280619 385.43117493 342.77420619 c 0
 385.43217493 342.77420619 390.30419493 353.10610619 390.56789493 354.10620619 c 0
 398.76905493 385.20490619 439.82729493 423.93430619 494.88189493 447.20000619 c 0
 549.93709493 470.46600619 615.76989493 477.68480619 658.33889493 464.69410619 c 0
 682.04559493 457.45899619 710.42519493 434.81840619 727.06349493 408.30350619 c 0
 743.70169493 381.78900619 747.92019493 355.17170619 739.63579493 336.33090619 c 0
 705.64059493 259.01530619 645.66049493 226.64790619 577.58879493 213.50290619 c 0
 509.51709493 200.35810619 434.91879493 210.48369619 390.47179493 222.81931619 c 0
 370.78239493 228.28341619 350.39059493 216.75256619 344.92489493 197.06341619 c 0
 339.46109493 177.37171619 350.99662493 156.98101619 370.68859493 151.51851619 c 0
 424.81499493 136.49711619 507.47659493 124.59411619 591.62259493 140.84271619 c 0
 675.76759493 157.09161619 762.95959493 205.53761619 807.37259493 306.54571619 c 0
 828.58189493 354.78151619 815.31958493 406.89671619 789.75149493 447.64171619 c 0
 764.18329493 488.38731619 725.63699493 521.52571619 679.93949493 535.47181619 c 0
 612.59319493 556.02411619 534.22249493 544.16469619 466.07049493 515.36441619 c 0
 446.60069493 507.13668619 427.87629493 497.30671619 410.39669493 486.13981619 c 1
 415.94859493 523.10241619 421.38539493 559.31931619 427.72869493 601.38581619 c 0
 430.29559493 618.40821619 432.28739493 631.56591619 434.81072493 648.28421619 c 0
 434.91654493 648.29421619 435.02130493 648.30281619 435.12712493 648.31161619 c 0
 479.26612493 652.24541619 523.23002493 656.54054619 557.85712493 660.67681619 c 0
 575.17102493 662.74491619 590.09082493 664.75823619 602.03092493 666.78033619 c 0
 608.00091493 667.79133619 613.18352493 668.78219619 618.07192493 669.97759619 c 0
 622.96032493 671.17309619 626.00235493 670.62833619 636.17932493 677.09283619 c 0
 646.51332493 683.65838619 653.37672493 695.20693619 653.37672493 708.34593619 c 0
 653.37672493 715.62647619 651.20750493 722.43453619 647.56998493 728.16123619 c 0
 641.00473493 738.49673619 629.45528493 745.36123619 616.31518493 745.36123619 c 0
 616.10913993 745.36123619 615.93735993 745.32080199 615.73210993 745.31743939 c 0
 610.28425993 745.22859179 605.07680993 743.93939939 600.44300993 741.73540939 c 1
 600.59872993 741.83440939 600.67451993 741.89834939 600.49570993 741.85454939 c 0
 598.45661993 741.35603939 594.58976993 740.56689939 589.68120993 739.73540939 c 0
 579.86410993 738.07309939 565.72090993 736.14292939 549.07960993 734.15532939 c 0
 520.29780993 730.71722939 483.78780993 727.07698939 446.18660993 723.63192939 c 1
 456.58190993 792.43582939 465.05170993 848.44292939 465.05180993 848.44292939 c 0
 468.10540993 868.64562939 454.20510993 887.49892939 434.00300993 890.55622939 c 0
 432.03677993 890.85480939 430.05049993 890.99779939 428.06159993 890.97809939 c 1
 428.062 890.977 l 1
EndSplineSet
EndChar

StartChar: "+MLAw6jDV 19"
Encoding: 19 12388 18
Width: 1024
LayerCount: 2
Fore
SplineSet
566.572 773.846 m 1
 559.15038 773.7938 551.8159 773.63495 544.5954 773.3753 c 1
 544.5954 773.3673 l 1
 525.3409 772.67489 506.896 771.26806 489.7634 769.24034 c 2
 489.7554 769.24034 l 1
 489.7398 769.24034 l 1
 365.4328 754.44484 235.8188 700.19084 146.7478 634.46934 c 0
 137.61447 627.72911 131.686 616.89144 131.686 604.68004 c 0
 131.686 596.47191 134.41513 588.87064 138.94509 582.73104 c 0
 145.68527 573.59718 156.52329 567.66824 168.73509 567.66824 c 0
 176.94379 567.66824 184.54549 570.39774 190.68529 574.92827 c 0
 267.27099 631.43747 389.84929 682.82927 498.46629 695.76227 c 0
 557.79779 702.78501 642.65029 700.84024 709.49129 685.37557 c 0
 742.91219 677.64303 771.73769 666.36227 790.19639 653.76617 c 0
 808.65499 641.17017 815.77299 630.17167 817.20029 616.75247 c 0
 826.19799 532.12397 781.12799 471.31647 713.48529 421.62747 c 0
 645.84279 371.93837 557.52529 339.24867 499.15129 322.77787 c 0
 483.60879 318.39365 472.20379 304.09927 472.20379 287.16207 c 0
 472.20379 283.67452 472.685142 280.31185 473.58883 277.11187 c 0
 477.97626 261.57427 492.26823 250.17407 509.20183 250.17407 c 0
 512.68686 250.17407 516.04709 250.654788 519.24503 251.55721 c 0
 583.04073 269.55761 677.75803 303.56911 757.28803 361.99121 c 0
 836.81833 420.41251 903.05903 509.11221 890.78203 624.57921 c 0
 886.65581 663.37421 861.99443 694.36201 831.91293 714.88981 c 0
 801.83133 735.41721 765.35243 748.40351 726.17493 757.46791 c 0
 674.75413 769.36481 618.52293 774.21251 566.57093 773.84681 c 1
 566.572 773.846 l 1
EndSplineSet
EndChar

StartChar: "+MLAw6jDV 20"
Encoding: 20 12390 19
Width: 1024
LayerCount: 2
Fore
SplineSet
699.969 811.055 m 1
 694.71461 811.0333338 689.6853 809.89587 685.1624 807.89679 c 0
 683.17248 807.41982 679.59297 806.6492 674.598 805.71906 c 0
 663.8895 803.72536 647.925 801.11127 628.8089 798.18781 c 0
 590.5767 792.34126 539.4736 785.17771 488.2639 778.21321 c 0
 437.0542 771.2483 385.6999 764.47671 346.6799 759.36751 c 0
 327.17 756.81292 310.749 754.67127 298.9494 753.12923 c 0
 293.04963 752.35858 288.3088 751.73669 284.8869 751.28352 c 0
 281.46503 750.82998 281.55576 750.93701 277.74823 750.29524 c 0
 260.26523 747.35007 246.92893 732.12524 246.92893 713.81004 c 0
 246.92893 711.70479 247.069903 709.67396 247.408358 707.66433 c 0
 250.353538 690.18133 265.578358 676.84503 283.893558 676.84503 c 0
 285.998808 676.84503 288.029638 676.986003 290.039268 677.324458 c 1
 287.159198 676.839168 291.283948 677.491118 294.607628 677.929928 c 0
 297.931268 678.370618 302.644898 678.985008 308.529528 679.754148 c 0
 320.298728 681.292038 336.744228 683.432108 356.283428 685.990468 c 0
 395.361828 691.107198 446.829628 697.897168 498.238428 704.888868 c 0
 526.435028 708.723578 549.861728 712.219838 575.990428 715.939668 c 1
 547.165628 685.968068 521.576228 653.799668 501.072428 619.494368 c 0
 458.564428 548.373468 437.322528 466.997368 455.482528 384.367368 c 0
 467.380728 330.230968 499.642428 275.546368 552.257928 241.816368 c 0
 604.873528 208.086368 678.931928 200.104768 756.390928 238.064408 c 0
 768.676128 244.085248 777.143028 256.716708 777.143028 271.310008 c 0
 777.143028 277.139188 775.735968 282.669208 773.330408 287.576108 c 0
 767.309118 299.860008 754.678308 308.325908 740.085908 308.325908 c 0
 734.260138 308.325908 728.733108 306.920438 723.828508 304.517508 c 0
 665.115108 275.744308 624.826908 283.191208 592.193508 304.111258 c 0
 559.560208 325.031358 535.667708 364.221458 527.750108 400.246058 c 0
 514.313608 461.383358 529.068048 522.103058 564.586008 581.529058 c 0
 599.755208 640.370958 655.572608 696.310058 719.797008 742.521058 c 0
 722.889408 743.908908 727.023818 745.983418 732.693508 756.487858 c 0
 735.506958 761.705348 737.104088 767.673758 737.104088 774.012258 c 0
 737.104088 794.435158 720.523288 811.016058 700.100288 811.016058 c 0
 700.0478169 811.016058 700.0212799 811.0545344 699.96886 811.0543158 c 1
 699.969 811.055 l 1
680.186 805.23 m 1
 679.653483 804.887893 679.13494 804.535689 678.62154 804.1675 c 0
 677.37959 803.28044 676.24921 802.25667 675.01217 801.36281 c 1
 677.20392 803.35802 678.82499 804.66194 680.186 805.23 c 1
EndSplineSet
EndChar

StartChar: "+MLAw6jDV 21"
Encoding: 21 12392 20
Width: 1024
LayerCount: 2
Fore
SplineSet
654.049 743.26 m 1
 646.27448 743.2452953 639.0223 740.80658 633.0705 736.68968 c 0
 555.2151 682.84278 468.1225 631.26968 399.1335 554.76168 c 1
 362.246 590.87168 336.8533 652.02948 300.3171 711.85768 c 0
 293.82308 722.48628 282.1404 729.55088 268.7878 729.56668 c 0
 268.7688899 729.566708443 268.7499764 729.56672267 268.7310596 729.56672267 c 0
 261.6874896 729.56672267 255.0625596 727.57086267 249.4557596 724.14871267 c 0
 238.8123596 717.64811267 231.7019596 705.92231267 231.7019596 692.54891267 c 0
 231.7019596 685.50173267 233.7393396 678.89601267 237.1647396 673.28731267 c 0
 269.8605396 619.74841267 295.5161396 547.30431267 353.5707396 495.89831267 c 1
 344.1579396 481.53991267 335.3642396 466.38901267 327.3187396 450.31631267 c 0
 307.2948396 414.51331267 296.0245396 384.36501267 292.7718396 356.59561267 c 0
 289.4746396 328.44841267 295.8981696 301.80041267 309.8831396 282.49011267 c 0
 337.8531396 243.86941267 381.2687396 237.26501267 408.3948396 231.84171267 c 0
 521.8958396 209.14871267 658.8308396 213.24911267 772.7348396 274.31041267 c 0
 784.3698396 280.54841267 792.2902396 292.82771267 792.2902396 306.94221267 c 0
 792.2902396 313.24919267 790.6474996 319.20531267 787.8598396 324.40411267 c 0
 781.6216996 336.03861267 769.3426396 343.95871267 755.2284396 343.95871267 c 0
 748.9220696 343.95871267 742.9665396 342.31628267 737.7680396 339.52912267 c 0
 644.9852396 289.79022267 523.0710396 284.37992267 422.9070396 304.40612267 c 0
 397.6979396 309.44612267 375.4426396 318.12672267 369.8172396 325.89442267 c 0
 367.0044396 329.77785267 364.6404496 334.10634267 366.2664496 347.98822267 c 0
 367.8923496 361.87012267 375.0710696 384.41582267 392.5320496 415.40032267 c 0
 392.8294406 415.93215467 393.1160356 416.47580267 393.3875196 417.02337267 c 0
 452.0026196 534.27937267 562.6965196 598.05037267 675.1605196 675.83437267 c 0
 684.8160196 682.51387267 691.1464196 693.66547267 691.1464196 706.28407267 c 0
 691.1464196 714.08383267 688.6709196 721.33797267 684.5433396 727.30707267 c 0
 677.8640796 736.96432267 666.7114396 743.29607267 654.0915396 743.29607267 c 0
 654.0700098 743.29607267 654.0707362 743.26023657 654.049215 743.26019967 c 2
 654.049 743.26 l 1
EndSplineSet
EndChar

StartChar: "+MLAw6jDV 22"
Encoding: 22 12394 21
Width: 1024
LayerCount: 2
Fore
SplineSet
363.699 851.42 m 1
 363.6775743 851.420036516 363.6561444 851.420054781 363.6347102 851.420054781 c 0
 347.3280102 851.420054781 333.4820102 840.855154781 328.5603102 826.197354781 c 2
 299.8005102 740.586054781 l 1
 194.9545102 737.828234781 l 2
 174.9896102 737.303720781 158.9425102 720.931634781 158.9425102 700.841134781 c 0
 158.9425102 700.511419781 158.9302448 700.198859781 158.93883525 699.871201781 c 0
 159.46221825 679.905301781 175.83473525 663.857101781 195.92603525 663.857101781 c 0
 196.25839125 663.857101781 196.57346525 663.844933281 196.90373125 663.853661531 c 2
 274.71033125 665.900531531 l 1
 186.65763125 403.783531531 l 2
 185.41533125 400.084621531 184.74207125 396.125471531 184.74207125 392.010331531 c 0
 184.74207125 375.705931531 195.29417125 361.853531531 209.94867125 356.930031531 c 0
 213.64907125 355.686611531 217.61002125 355.012711531 221.72707125 355.012711531 c 0
 238.03207125 355.012711531 251.88497125 365.565611531 256.80797125 380.221011531 c 2
 353.47207125 667.971011531 l 1
 500.06407125 671.826481531 l 2
 520.02907125 672.350887531 536.07627125 688.722981531 536.07627125 708.813581531 c 0
 536.07627125 709.145954531 536.08846675 709.461045531 536.07973758 709.791328531 c 0
 535.55462258 729.755728531 519.18273758 745.802128531 499.09263758 745.802128531 c 0
 498.91302458 745.802128531 498.74308458 745.817313331 498.56407458 745.814756831 c 0
 498.41477558 745.811014641 498.27153158 745.806566351 498.12267458 745.801056831 c 2
 378.56167458 742.656526831 l 1
 398.71007458 802.633126831 l 2
 399.95386458 806.334026831 400.62798458 810.295566831 400.62798458 814.413326831 c 0
 400.62798458 830.718526831 390.07478458 844.571626831 375.41908458 849.494426831 c 0
 371.73833458 850.730796831 367.79185458 851.413486831 363.69838458 851.420206831 c 1
 363.69838458 851.420236831 l 1
 363.699 851.42 l 1
733.166 733.857 m 1
 722.7112 733.7770901 713.2774 729.36226 706.5937 722.3101 c 0
 700.30704 715.67692 696.4487 706.7197 696.4487 696.8684 c 0
 696.4487 686.2991 700.87954 676.7485 707.996 670.0035 c 2
 761.7812 619.0308 l 1
 750.9646 612.5701 743.7147 600.7461 743.7147 587.2421 c 0
 743.7147 582.15919 744.79835 577.31231 746.65624 572.9019 c 0
 752.26304 559.5942 765.43324 550.2421 780.77034 550.2421 c 0
 785.85318 550.2421 790.70672 551.31159 795.11714 553.16944 c 2
 842.42184 573.09324 l 2
 855.73124 578.70043 865.08454 591.87214 865.08454 607.21114 c 0
 865.08454 617.78194 860.62738 627.30654 853.50974 634.05224 c 2
 758.90234 723.71244 l 2
 752.32126 729.94983 743.43774 733.79694 733.67774 733.85694 c 0
 733.5909106 733.857540438 733.504011 733.857841149 733.417041 733.857841149 c 0
 733.3300713 733.857841149 733.252859 733.857540438 733.16603 733.85694 c 2
 733.166 733.857 l 1
671.869 607.33 m 1
 651.825 607.164138 635.5535 591.0141 635.1815 571.0195 c 2
 632.42759 422.7835 l 1
 593.91239 433.9497 554.23189 440.0321 516.30459 430.98468 c 0
 491.97349 425.18008 464.91969 415.06868 440.17369 399.66438 c 0
 415.42769 384.26018 391.10069 363.21508 381.78309 330.35778 c 0
 375.20751 307.16018 375.58332 282.56338 382.47059 258.68588 c 0
 389.35784 234.80828 403.79979 210.32848 429.72839 196.14678 c 0
 486.18629 165.26698 550.67039 168.25358 602.11139 183.91438 c 0
 627.83189 191.74481 650.61409 202.78838 669.04299 217.49638 c 0
 687.10829 231.91378 704.47369 251.72608 703.80279 280.45728 c 2
 704.461 315.96318 l 1
 748.1738 295.77108 781.1661 276.51978 781.1661 276.51978 c 2
 786.69709 273.22621 793.1578 271.33383 800.057 271.33383 c 0
 813.5784 271.33383 825.4317 278.53935 831.8868 289.37913 c 0
 835.18216 294.9112 837.07566 301.37363 837.07566 308.27483 c 0
 837.07566 321.79423 829.87234 333.64593 819.03526 340.10173 c 2
 819.03526 340.10173 771.55206 368.42733 711.74026 393.95913 c 0
 709.88444 394.75132 707.82939 395.48965 705.95315 396.28335 c 2
 709.16995 569.64235 l 2
 709.17420608 569.873204 709.17634345 570.104573 709.17634345 570.336436 c 0
 709.17634345 590.525036 692.96004345 606.946936 672.85944345 607.318136 c 0
 672.54438745 607.32607637 672.22835845 607.3300704 671.91140345 607.3300704 c 0
 671.89168145 607.3300704 671.88891815 607.32986695 671.86920325 607.329836034 c 2
 671.869 607.33 l 1
549.615 360.465 m 1
 549.617 360.463 l 1
 570.4529 360.22073 600.3059 353.84247 630.9744 344.4318 c 1
 629.80057 281.1095 l 1
 629.85547 284.42667 630.11662 281.1115 622.8826 275.33801 c 0
 614.30239 268.49022 598.8086 260.27001 580.5545 254.71301 c 0
 544.0462 243.59811 497.7799 243.27511 465.2345 261.07629 c 0
 461.48581 263.12631 456.50399 269.03479 453.5704 279.20519 c 0
 450.63685 289.37589 450.80072 302.48989 452.98056 310.17979 c 0
 454.48602 315.48889 463.28996 326.88939 479.28136 336.84389 c 0
 495.27266 346.79849 516.56666 354.97049 533.47276 359.00409 c 0
 536.92562 359.82761 540.99143 360.29188 545.57236 360.42987 c 0
 546.87886 360.46877 548.22627 360.48017 549.61532 360.46497 c 1
 549.615 360.465 l 1
EndSplineSet
EndChar

StartChar: "+MLAw6jDV 23"
Encoding: 23 12395 22
Width: 1024
LayerCount: 2
Fore
SplineSet
248.225 746.955 m 1
 230.0243 746.9017768 214.8949 733.6452 211.8793 716.289 c 0
 193.6404 611.402 180.5094 504.012 186.8832 392.408 c 0
 188.96526 355.8614 199.3513 313.7936 234.016 285.416 c 0
 240.39526 280.19495 248.5475 277.06102 257.426 277.06102 c 0
 268.9669 277.06102 279.2928 282.31986 286.0804 290.61132 c 0
 291.30286 296.99101 294.43774 305.14442 294.43774 314.02422 c 0
 294.43774 325.56352 289.18037 335.88812 280.89094 342.67582 c 0
 269.81644 351.74181 262.18554 371.63592 260.76204 396.62312 c 0
 254.87361 499.72912 266.98166 601.25112 284.78154 703.61312 c 0
 285.141777 705.68412 285.329573 707.81399 285.329573 709.98737 c 0
 285.329573 728.23397 272.058773 743.38047 254.672173 746.40607 c 0
 252.732523 746.744043 250.767003 746.930121 248.736623 746.95294 c 0
 248.6497919 746.953540462 248.56289 746.953841185 248.475919 746.953841185 c 0
 248.3889476 746.953841185 248.311734 746.953540462 248.224903 746.95294 c 1
 248.224903 746.9549 l 1
 248.225 746.955 l 1
634.619 746.393 m 1
 629.20823 746.3741 623.8019 746.299 618.4061 746.17815 c 0
 575.2394 745.21205 532.7814 741.31898 494.7441 739.88128 c 0
 474.9817 739.132231 459.1674 722.85248 459.1674 702.90818 c 0
 459.1674 702.432876 459.154023 701.981203 459.17182577 701.51022 c 0
 459.92086877 681.74782 476.20062577 665.93352 496.14492577 665.93352 c 0
 496.62022977 665.93352 497.07190177 665.9201431 497.54288577 665.93794587 c 0
 578.33658577 668.99174587 668.13188577 678.26104587 728.28488577 663.13911587 c 0
 731.17738577 662.41198487 734.20465577 662.02577587 737.32142577 662.02577587 c 0
 754.62562577 662.02577587 769.15232577 673.94327587 773.18922577 690.00237587 c 0
 773.91635877 692.89487587 774.30256577 695.92215587 774.30256577 699.03892587 c 0
 774.30256577 716.34312587 762.38506577 730.86982587 746.32596577 734.90672587 c 0
 710.55846577 743.89832587 672.49446577 746.52402587 634.61896577 746.39302587 c 1
 634.619 746.393 l 1
494.73 459.539 m 1
 494.69376 459.539104498 494.6575078 459.539156782 494.621243 459.539156782 c 0
 483.646943 459.539156782 473.789643 454.767326782 467.011243 447.167956782 c 0
 461.175923 440.626356782 457.627703 432.001456782 457.627703 422.554356782 c 0
 457.627703 411.579956782 462.394133 401.704156782 469.993703 394.925756782 c 0
 478.244183 387.565956782 479.982603 388.141566782 483.191003 386.658176782 c 0
 486.399473 385.175096782 489.649593 383.847826782 493.370703 382.398416782 c 0
 500.813013 379.499096782 509.993903 376.220766782 520.648103 372.566386782 c 0
 541.956203 365.257876782 568.961303 356.534586782 595.898103 348.027286782 c 0
 622.834803 339.519986782 649.653203 331.252186782 670.308203 324.958886782 c 0
 690.963203 318.665566782 700.552803 315.583726782 708.900003 313.437386782 c 0
 752.775603 302.153586782 788.489703 306.962896782 812.882003 314.669806782 c 0
 827.862503 319.403716782 838.734903 333.421306782 838.734903 349.958306782 c 0
 838.734903 353.843086782 838.12518 357.582396782 837.012883 361.101406782 c 0
 832.278463 376.081006782 818.261283 386.952606782 801.724883 386.952606782 c 0
 797.842043 386.952606782 794.104593 386.343483782 790.587083 385.232256782 c 0
 775.648683 380.512346782 758.101983 377.194136782 727.333183 385.107256782 c 1
 731.497583 384.036136782 712.324083 389.514556782 691.878083 395.743956782 c 0
 671.431983 401.973756782 644.804683 410.184156782 618.184683 418.591656782 c 0
 591.564683 426.998876782 564.902983 435.625656782 544.661283 442.568256782 c 0
 534.540283 446.039756782 525.977983 449.115896782 520.233583 451.353416782 c 0
 517.534463 452.404796782 515.603963 453.223336782 514.600763 453.677626782 c 0
 508.873833 457.353196782 502.028663 459.516516782 494.729663 459.538956782 c 1
 494.73 459.539 l 1
EndSplineSet
EndChar

StartChar: "+MLAw6jDV 24"
Encoding: 24 12396 23
Width: 1024
LayerCount: 2
Fore
SplineSet
188.389 770.24 m 2
 188.3512103 770.240113629 188.3134074 770.240170484 188.275591 770.240170484 c 0
 188.13946 770.240170484 188.013065 770.239469744 187.87728 770.238000004 c 2
 187.87728 770.234000004 l 1
 187.8411227 770.234104025 187.8049533 770.234156071 187.768772 770.234156071 c 0
 187.7325905 770.234156071 187.7005475 770.234104025 187.66439 770.234000004 c 0
 183.42153 770.175033704 179.32745 769.388205004 175.54329 768.013290004 c 0
 161.33309 762.846730004 151.17249 749.214590004 151.17249 733.228090004 c 0
 151.17249 728.794400004 151.979783 724.540360004 153.41248 720.599190004 c 0
 168.60698 678.797890004 182.88488 633.450290004 197.58238 587.027190004 c 1
 161.17238 552.334090004 125.76078 508.151490004 91.73638 453.353190004 c 0
 64.85388 410.057190004 53.15138 352.617190004 57.17388 299.603190004 c 0
 59.18508 273.096290004 65.1055 247.238690004 80.87698 224.948890004 c 0
 96.64838 202.658790004 126.65418 186.491190004 157.66408 188.792690004 c 0
 215.20488 193.060490004 270.38308 226.793090004 322.17808 278.999690004 c 1
 334.08088 259.667590004 346.86048 241.428990004 360.70348 224.603190004 c 0
 367.49176 216.350360004 377.78108 211.083690004 389.29068 211.083690004 c 0
 398.20117 211.083690004 406.39218 214.276000004 412.78158 219.530960004 c 0
 421.03393 226.319250004 426.30028 236.608260004 426.30028 248.117460004 c 0
 426.30028 257.031920004 423.1052 265.226160004 417.84603 271.616860004 c 0
 402.08953 290.768760004 387.56963 313.356960004 373.98273 338.485960004 c 1
 379.25075 345.267040004 384.48083 352.196860004 389.66243 359.300460004 c 0
 439.25093 427.281660004 483.55833 511.538460004 515.79743 604.761460004 c 1
 544.61953 596.754570004 573.53063 585.050860004 602.45363 570.495860004 c 0
 632.31863 555.467660004 670.15293 528.830360004 697.04343 496.470460004 c 0
 702.02515 490.475340004 706.18106 484.230860004 710.33833 477.993860004 c 1
 640.82023 487.452540004 563.96433 471.234150004 499.91033 403.148160004 c 0
 465.23093 366.286460004 448.43723 310.885060004 468.32243 258.544160004 c 0
 478.265 232.374360004 501.14713 208.394060004 532.31653 198.012860004 c 0
 563.48593 187.631560004 600.66193 188.918160004 645.50453 201.215990004 c 0
 715.74503 220.479490004 788.70953 272.852290004 805.77253 366.311990004 c 1
 844.15383 345.908990004 880.78903 322.195490004 912.02853 304.134290004 c 0
 917.46769 300.989420004 923.77983 299.189080004 930.50913 299.189080004 c 0
 944.20013 299.189080004 956.18053 306.578140004 962.57933 317.644080004 c 0
 965.7242 323.083240004 967.52454 329.395380004 967.52454 336.124680004 c 0
 967.52454 349.815680004 960.13548 361.796080004 949.06954 368.194880004 c 0
 914.04054 388.447080004 863.08234 424.193980004 803.44054 450.392180004 c 1
 794.21336 485.834680004 775.80614 517.468080004 753.96004 543.757380004 c 0
 718.47724 586.457380004 673.89764 617.387480004 635.71604 636.601180004 c 0
 604.32284 652.398780004 571.48854 665.959980004 537.61054 675.540680004 c 1
 541.97124 692.076080004 545.97306 708.798880004 549.48164 725.730080004 c 0
 549.985536 728.162450004 550.25034 730.681900004 550.25034 733.262700004 c 0
 550.25034 751.102600004 537.57084 765.983000004 520.75704 769.466400004 c 0
 518.32412 769.970534004 515.80408 770.235466004 513.22265 770.235466004 c 0
 513.089735 770.235466004 512.99119 770.235380826 512.858604 770.233979614 c 0
 495.196704 770.046627614 480.478704 757.430979614 477.020704 740.743779614 c 0
 473.398784 723.265779614 469.163684 706.013679614 464.530504 688.944979614 c 1
 431.810104 691.737679614 398.449704 690.190459614 364.704304 682.308259614 c 0
 329.387004 674.059069614 294.425204 659.199759614 260.116304 636.890259614 c 1
 247.927304 674.065359614 235.691804 710.850659614 222.958104 745.882259614 c 0
 217.814264 760.030959614 204.286304 770.151659614 188.389704 770.239659614 c 1
 188.389704 770.239809614 l 1
 188.389 770.24 l 2
436.256 616.438 m 1
 437.9185 616.438 439.59045 616.20601 441.25405 616.17238 c 1
 413.67215 540.25118 377.61285 471.04138 338.22305 414.61038 c 1
 318.89515 461.12518 301.24785 512.06788 284.07465 563.87838 c 1
 317.16445 588.33678 349.72605 602.81578 381.53555 610.24558 c 0
 399.68785 614.48549 417.93675 616.45406 436.25625 616.43894 c 1
 436.256 616.438 l 1
223.209 507.564 m 1
 241.4061 452.9415 261.2295 398.674 284.8457 348.576 c 1
 234.3741 295.1258 184.0457 264.9476 152.1857 262.5858 c 0
 144.0648 261.98338 145.32427 261.98745 141.2912 267.68736 c 0
 137.2582 273.38764 132.31827 287.34046 130.9631 305.20106 c 0
 128.2527 340.92286 139.79953 390.46276 154.6076 414.31206 c 0
 177.6084 451.35616 200.4987 482.13826 223.2092 507.56406 c 1
 223.209 507.564 l 1
669.711 408.898 m 1
 669.713 408.898 l 2
 690.839 408.8421 712.3544 404.40378 734.7286 397.5113 c 0
 734.8125 397.4848 734.89311 397.4495 734.97664 397.4234 c 0
 734.85721 394.4104 735.39923 391.52781 735.04304 388.46832 c 0
 726.78375 317.42182 681.86224 287.92032 625.93204 272.58132 c 0
 590.22034 262.78743 567.52264 264.27826 555.69374 268.21804 c 0
 543.86494 272.15774 540.61654 276.60673 537.49644 284.81964 c 0
 531.25603 301.24474 540.59517 338.38944 553.81094 352.43684 c 0
 591.68504 392.69484 628.02354 407.89684 665.49294 408.85094 c 0
 666.89805 408.88874 668.30328 408.90194 669.71169 408.89784 c 1
 669.711 408.898 l 1
EndSplineSet
EndChar

StartChar: "+MLAw6jDV 25"
Encoding: 25 12397 24
Width: 1024
LayerCount: 2
Fore
SplineSet
374.363 867.416 m 1
 374.363 867.412 l 1
 374.2960302 867.412357053 374.229019 867.412535805 374.161966 867.412535805 c 0
 374.0949129 867.412535805 374.03544 867.412357053 373.96847 867.412 c 0
 354.95407 867.187857 339.36017 852.5532 337.57397 833.9511 c 0
 333.09757 787.3183 329.86619 739.6647 327.52707 691.2991 c 1
 145.81607 595.4496 l 2
 134.06027 589.24927 126.03917 576.9039 126.03917 562.6999 c 0
 126.03917 556.48215 127.63676 550.6052 130.35125 545.4593 c 0
 136.55158 533.7035 148.89695 525.6824 163.10085 525.6824 c 0
 169.3186 525.6824 175.19555 527.27999 180.34145 529.99449 c 2
 279.78285 582.44959 l 1
 137.23785 281.26759 l 1
 137.26715 281.25199 l 2
 137.20515 281.11858 137.1138 281.00921 137.0523 280.87504 c 0
 134.94575 276.22607 133.77261 271.06553 133.77261 265.63314 c 0
 133.77261 245.21024 150.35341 228.62934 170.77641 228.62934 c 0
 185.48441 228.62934 198.16011 237.1644 204.12461 249.60544 c 2
 204.32383 250.03317 l 1
 204.25183 249.86536 210.9055 260.87907 220.86683 273.67767 c 0
 230.84293 286.49517 244.48153 302.76997 260.62663 321.00967 c 0
 278.37593 341.06147 299.18143 363.52727 321.73793 386.84167 c 1
 321.73853 322.42347 322.11687 257.78967 322.19887 193.54067 c 0
 322.2236535 173.14077 338.79327 156.58647 359.19887 156.58647 c 0
 359.2154554 156.58647 359.2310845 156.585600647 359.2476648 156.585622513 c 0
 379.6465648 156.611489513 396.1998648 173.180722513 396.1998648 193.585622513 c 0
 396.1998648 193.600216913 396.200774697 193.613969413 396.200757765 193.628559813 c 0
 396.086997765 282.781359813 395.449427765 372.212559813 396.007397765 460.251559813 c 1
 435.842997765 497.822359813 476.851197765 533.519059813 513.316397765 560.870559813 c 0
 554.686897765 591.902359813 593.465897765 610.609559813 604.083997765 611.960459813 c 0
 634.500397765 615.830349813 654.955897765 608.211249813 674.189497765 592.878459813 c 0
 693.423197765 577.545659813 710.146497765 552.850559813 722.437597765 524.743659813 c 0
 734.728597765 496.637259813 742.608897765 465.485259813 746.332097765 439.673359813 c 0
 748.115277765 427.309059813 748.345367765 415.671559813 748.265687765 406.810059813 c 1
 738.080587765 409.228949813 728.378887765 411.809329813 717.787187765 413.978029813 c 0
 676.940287765 422.342119813 634.101487765 428.524029813 594.818187765 427.065929813 c 0
 555.535187765 425.607409813 514.303687765 417.467349813 490.859187765 381.415529813 c 0
 477.856887765 361.419929813 478.912687765 341.280229813 482.193167765 323.460429813 c 0
 485.473757765 305.640329813 492.318467765 288.467529813 501.519367765 272.030729813 c 0
 519.921267765 239.157629813 546.159367765 206.306229813 589.482267765 198.087329813 c 0
 674.032667765 182.046629813 752.472267765 235.894629813 796.205267765 317.665329813 c 1
 827.037967765 308.491619813 848.453267765 301.042329813 848.453267765 301.042329813 c 2
 852.344647765 299.650249813 856.536357765 298.891899813 860.903767765 298.891899813 c 0
 876.959267765 298.891899813 890.640667765 309.116599813 895.755967765 323.423199813 c 0
 897.146317765 327.312429813 897.903667765 331.501519813 897.903667765 335.866099813 c 0
 897.903667765 351.923499813 887.676467765 365.606099813 873.367267765 370.720099813 c 2
 873.367267765 370.720099813 853.001167765 377.938469813 822.425867765 387.151699813 c 1
 825.115797765 406.174099813 823.108647765 425.746199813 819.576257765 450.237599813 c 0
 814.984547765 482.072199813 805.819157765 518.770699813 790.240357765 554.395599813 c 0
 774.661157765 590.020999813 752.695457765 624.932899813 720.318457765 650.743299813 c 0
 687.941157765 676.554099813 643.866557765 691.613899813 594.746457765 685.364399813 c 0
 552.387857765 679.975209813 514.096357765 653.961899813 468.906457765 620.065599813 c 0
 445.709857765 602.666099813 421.552457765 582.761699813 397.283457765 561.499199813 c 1
 399.138867765 652.942999813 403.098607765 742.078199813 411.238557765 826.876199813 c 0
 411.351705765 828.053409813 411.409593765 829.246659813 411.409593765 830.453329813 c 0
 411.409593765 849.670429813 396.688993765 865.449529813 377.939693765 867.247329813 c 0
 376.768323765 867.359340813 375.581083765 867.416639813 374.380563765 867.416639813 c 0
 374.362152265 867.416639813 374.381925715 867.415326913 374.363520465 867.415299963 c 2
 374.363 867.416 l 1
322.26 499.223 m 1
 322.2339 496.76302 322.2137 494.29788 322.1897 491.83628 c 0
 320.0429 489.65088 317.90504 487.46239 315.65064 485.2562 c 1
 322.26 499.223 l 1
603.111 353.244 m 1
 631.4255 353.55279 667.7008 348.69467 702.9411 341.4784 c 0
 709.686 340.09732 715.8626 338.39183 722.4821 336.88074 c 1
 690.7749 288.23784 643.8939 263.08214 603.2711 270.78894 c 0
 598.42998 271.70733 577.7403 287.37664 566.0953 308.17954 c 0
 560.27279 318.58084 556.31185 329.53814 554.9644 336.85724 c 0
 554.4002 339.92202 554.62464 341.45714 554.72026 342.52716 c 0
 558.97726 345.99416 572.13426 352.16939 597.55816 353.11306 c 0
 599.37234 353.17996 601.22329 353.22351 603.1109 353.24392 c 2
 603.111 353.244 l 1
EndSplineSet
EndChar

StartChar: "+MLAw6jDV 26"
Encoding: 26 12398 25
Width: 1024
LayerCount: 2
Fore
SplineSet
535.004 761.545 m 1
 529.77431 761.5707 524.5169 761.5163 519.2325 761.38094 c 1
 519.2405 761.37294 l 1
 384.8825 757.93262 269.9335 682.04984 204.6755 542.32994 c 2
 202.82199 538.36705 l 1
 201.94308 534.07798 l 2
 196.86339 509.21968 182.57408 469.83078 182.90598 426.29498 c 0
 183.07228 404.52678 187.50746 380.61178 201.06618 358.96488 c 0
 214.62448 337.31798 236.82288 319.63988 265.36888 308.31648 c 0
 331.85908 281.95008 421.20488 292.02408 471.17588 366.87118 c 2
 472.04698 368.17782 l 1
 472.80674 369.55087 l 2
 518.98194 453.31807 545.42814 566.33687 536.65244 674.08987 c 0
 536.282501 678.63152 535.06945 683.0107 533.20518 686.94147 c 1
 600.41538 686.70336 659.14618 670.97017 699.48218 643.49227 c 0
 742.28378 614.33437 766.30958 575.23997 767.03488 519.32027 c 0
 768.08483 438.50827 752.17528 393.24127 729.21648 369.21627 c 0
 706.25738 345.19247 670.49478 334.52607 612.48048 336.70647 c 0
 612.012203 336.7240678 611.541712 336.7329457 611.06916 336.7329457 c 0
 591.12236 336.7329457 574.86236 320.8923457 574.11716 301.1263457 c 0
 574.0995622 300.6580687 574.0906843 300.1875777 574.0906843 299.7150257 c 0
 574.0906843 279.7682257 589.9312843 263.5082257 609.6972843 262.7630257 c 0
 678.5500843 260.1755657 740.3692843 273.7723257 782.7202843 318.0892257 c 0
 825.0721843 362.4061257 842.2014843 429.5562257 841.0229843 520.2862257 c 0
 840.0025143 598.9556257 800.5869843 664.1642257 741.1459843 704.6572257 c 0
 685.4200843 742.6195257 613.4489843 761.1589257 535.0029843 761.5439257 c 1
 535.004 761.545 l 1
463.883 680.025 m 1
 463.883 680.017 l 2
 463.16913 677.14932 462.79019 674.14983 462.79019 671.06252 c 0
 462.79019 670.04347 462.8274024 669.08564 462.908392 668.08731 c 0
 470.258822 577.83291 446.355292 475.89731 408.851792 406.96031 c 1
 378.599292 362.68271 335.076292 360.28571 292.652792 377.10871 c 0
 275.510392 383.90845 268.291392 391.05751 263.781692 398.25711 c 0
 259.271962 405.45711 256.997652 414.41421 256.902782 426.87041 c 0
 256.725152 450.38961 266.407212 482.46311 273.180182 513.76101 c 1
 318.911682 610.00401 383.123182 662.30601 463.883182 680.02501 c 1
 463.883182 680.0252 l 1
 463.883 680.025 l 1
EndSplineSet
EndChar

StartChar: "+MLAw6jDV 27"
Encoding: 27 12399 26
Width: 1024
LayerCount: 2
Fore
SplineSet
592.943 832.193 m 1
 591.951205 832.18434369 590.99878 832.1377684 590.02698 832.05237 c 0
 571.14528 830.38488 556.31808 814.50877 556.31808 795.19697 c 0
 556.31808 794.08731 556.3295926 793.02401 556.425457 791.93909 c 2
 565.226237 692.24769 l 1
 532.079137 687.07489 499.375137 681.99569 472.493837 677.89609 c 0
 438.802637 672.75779 411.471237 668.86721 408.558237 668.56602 c 0
 389.937937 666.6434 375.396137 650.88802 375.396137 631.76302 c 0
 375.396137 630.46616 375.4238423 629.22122 375.55431 627.95861 c 0
 377.47604 609.33731 393.23191 594.79461 412.35751 594.79461 c 0
 413.6543 594.79461 414.89916 594.8223117 416.16171 594.952765 c 0
 426.93151 596.065875 449.77891 599.576735 483.64801 604.741835 c 0
 509.33541 608.659425 540.26921 613.461545 571.74961 618.370735 c 1
 589.79841 413.940735 l 1
 563.62971 422.843035 537.10551 429.917235 510.96051 433.179035 c 0
 464.35051 438.994135 414.26141 432.770465 380.57351 396.165335 c 0
 353.04651 366.254535 346.84431 326.290835 355.47581 294.583335 c 0
 364.10731 262.876035 384.09121 237.287035 410.96411 222.005235 c 0
 459.78191 194.244235 519.43511 201.652235 571.28411 219.716175 c 0
 597.20891 228.748075 621.22601 241.206575 640.48921 259.247375 c 0
 651.77241 269.814575 661.26161 283.908275 666.75481 299.751275 c 1
 727.01461 268.640875 773.78381 237.477375 773.78381 237.477875 c 1
 779.70325 233.457585 786.84701 231.107565 794.53521 231.107565 c 0
 807.27051 231.107565 818.52661 237.497385 825.18411 247.304065 c 0
 829.20313 253.222905 831.55234 260.365465 831.55234 268.052465 c 0
 831.55234 280.783465 825.16684 292.036365 815.36574 298.694665 c 2
 815.36574 298.694665 748.33244 343.702065 666.89474 382.044265 c 1
 645.01974 629.855265 l 1
 708.95554 639.909565 764.79874 648.753665 764.79874 648.753665 c 2
 782.44954 651.556745 795.95984 666.860465 795.95984 685.294765 c 0
 795.95984 687.282835 795.839503 689.199795 795.536985 691.103285 c 0
 792.734205 708.754385 777.430385 722.265085 758.995785 722.265085 c 0
 758.856117 722.265085 758.72317 722.3001062 758.583865 722.2985592 c 0
 756.743155 722.2767952 754.962205 722.1213222 753.195195 721.8395692 c 2
 753.195195 721.8395692 699.965795 713.4129192 638.498195 703.7419692 c 1
 630.138815 798.4509692 l 2
 628.475065 817.2752692 612.684415 832.1053692 593.451315 832.1931692 c 0
 593.364816 832.193765074 593.278247 832.194063498 593.191609 832.194063498 c 0
 593.1049707 832.194063498 593.028054 832.193765074 592.941555 832.1931692 c 1
 592.943 832.193 l 1
199.258 757.518 m 1
 180.7361 757.389785 165.4235 743.5856 162.883 725.7309 c 0
 139.1633 558.9959 148.548 367.5649 168.96503 223.6159 c 0
 171.50982 205.6688 186.95223 191.8478 205.59733 191.8478 c 0
 207.3725 191.8478 209.08245 191.934266 210.7912 192.176467 c 0
 228.7383 194.721257 242.5593 210.163667 242.5593 228.808767 c 0
 242.5593 230.583937 242.4728345 232.293887 242.230635 234.002627 c 0
 222.671835 371.901627 213.947735 559.250627 236.148605 715.309627 c 0
 236.392327 717.023587 236.518412 718.775207 236.518412 720.556047 c 0
 236.518412 739.194447 222.668412 754.596447 204.730612 757.149447 c 0
 203.097882 757.382113 201.463502 757.506736 199.769672 757.518587 c 0
 199.6828409 757.519187462 199.595939 757.519488185 199.508968 757.519488185 c 0
 199.421997 757.519488185 199.344783 757.519187462 199.257952 757.518587 c 1
 199.258 757.518 l 1
481.131 361.191 m 1
 481.131 361.189 l 1
 487.4026 361.1588 494.2767 360.69011 501.799 359.7515 c 0
 529.768 356.26232 563.5221 345.0289 597.0783 331.5152 c 1
 597.47674 326.99763 l 2
 597.539376 326.272977 597.622865 325.55548 597.72674 324.84333 c 0
 597.9161 323.5632 598.29976 321.12386 589.90252 313.25933 c 0
 581.50525 305.39492 565.54582 296.08343 546.93962 289.60113 c 0
 509.72722 276.63663 462.10522 278.05073 447.54312 286.3316 c 0
 439.96573 290.6406 429.97902 302.6122 426.87322 314.021 c 0
 423.76747 325.4298 424.05908 334.1364 435.02361 346.0503 c 0
 443.66606 355.44122 457.56531 360.8619 478.48061 361.1753 c 0
 479.35205 361.1866 480.23502 361.1947 481.131 361.1909 c 1
 481.131 361.19097 l 1
 481.131 361.191 l 1
EndSplineSet
EndChar

StartChar: "+MLAw6jDV 28"
Encoding: 28 12402 27
Width: 1024
LayerCount: 2
Fore
SplineSet
427.494 773.5 m 1
 417.0997 773.4666562 407.7045 769.14695 400.9999 762.207 c 0
 400.54027 761.73116 400.06568 761.07763 399.60537 760.59763 c 0
 396.91801 759.23851 393.55974 757.5356 387.42567 755.06833 c 0
 371.75807 748.76597 348.26787 740.80083 323.99987 733.63863 c 0
 299.73187 726.47681 274.38557 720.02183 254.86897 716.28313 c 0
 245.11068 714.41416 236.72387 713.24999 231.58577 712.90227 c 0
 227.80941 712.64527 227.04297 713.38686 230.1971 712.19329 c 1
 226.32583 713.56918 222.15864 714.31829 217.8179 714.31829 c 0
 203.2278 714.31829 190.6083 705.90171 184.5858 693.62099 c 0
 182.18001 688.71396 180.82896 683.19759 180.82896 677.36809 c 0
 180.82896 662.77689 189.23718 650.13319 201.51936 644.11119 c 0
 218.71096 635.68398 226.56846 638.39874 236.58376 639.07603 c 0
 246.59916 639.7537 257.18806 641.37868 268.79076 643.60142 c 0
 283.29526 646.37975 299.31726 650.30996 315.59936 654.60732 c 1
 285.95936 610.60452 258.69856 562.58342 238.30246 515.30432 c 0
 218.63776 469.72052 205.02056 425.33912 203.88836 383.57432 c 0
 202.75617 341.80862 218.53786 297.05832 257.93136 275.68132 c 0
 306.59676 249.26922 359.16436 244.20222 406.67736 258.17742 c 0
 454.19086 272.15302 496.19706 303.31772 532.39836 344.84152 c 0
 591.12786 412.20632 635.85436 508.08152 662.58436 617.41752 c 1
 668.36296 610.69979 674.48116 603.95882 681.20936 597.33942 c 0
 709.36956 569.63582 750.10856 545.63962 804.50236 543.16362 c 0
 805.068476 543.1378454 805.63789 543.1248178 806.21032 543.1248178 c 0
 826.05822 543.1248178 842.25232 558.8123178 843.14692 578.4410178 c 0
 843.1726838 579.0070158 843.1857059 579.5763078 843.1857059 580.1486278 c 0
 843.1857059 599.9992278 827.4941059 616.1950278 807.8618059 617.0855278 c 0
 771.4206059 618.7439778 752.9146059 630.6078278 733.1118059 650.0894278 c 0
 713.3090059 669.5710278 695.1849059 698.2384278 669.1548059 726.4039278 c 0
 662.3929559 733.7156678 652.7198059 738.2964278 641.9853059 738.2964278 c 0
 623.5193059 738.2964278 608.1956059 724.6921278 605.4282059 706.9976278 c 0
 585.0293059 576.3736278 535.6729059 461.2086278 476.6212059 393.4746278 c 0
 447.0955059 359.6074278 415.7538059 337.9826278 385.7931059 329.1699278 c 0
 355.8324059 320.3575878 326.7993059 322.5049678 293.2325059 340.7226278 c 0
 281.5714059 347.0503078 277.1576059 355.5311278 277.8634059 381.5664278 c 0
 278.5691559 407.6017278 288.8233059 445.5926278 306.2540059 485.9984278 c 0
 340.0237059 564.2781278 399.6135059 652.0124278 449.2770059 705.0574278 c 0
 450.6917659 706.2245478 451.6062659 706.3567778 453.3082559 708.1199278 c 0
 456.0588059 710.9689378 459.7397159 714.8235978 462.6246659 723.0535278 c 0
 465.5096159 731.2830778 465.1865859 746.0729278 459.1109959 755.9246278 c 0
 452.5926859 766.4914278 440.9099959 773.5404278 427.5938959 773.5404278 c 0
 427.5519314 773.5404278 427.5357338 773.5009865 427.4938019 773.5008466 c 1
 427.494 773.5 l 1
EndSplineSet
EndChar

StartChar: "+MLAw6jDV 29"
Encoding: 29 12405 28
Width: 1024
LayerCount: 2
Fore
SplineSet
446.641 880.938 m 1
 427.0942 880.837837 411.1081 865.5171 409.9027 846.2486 c 0
 409.8544103 845.475561 409.8299036 844.69612 409.8299036 843.911 c 0
 409.8299036 824.278 425.1862036 808.2259 444.5160036 807.0142 c 1
 441.1049136 807.22771 454.2275136 803.4441 467.9164036 793.106 c 0
 481.6052036 782.7678 497.5527036 767.8053 511.7797036 752.522 c 0
 523.7526036 739.6603 533.9732036 726.9746 541.7211036 716.3931 c 1
 511.3520036 694.7427 l 2
 501.9375336 688.03223 495.7935036 677.0245 495.7935036 664.5932 c 0
 495.7935036 656.6028 498.3860136 649.1863 502.6996336 643.1353 c 0
 509.4101936 633.72156 520.4174336 627.5781 532.8482336 627.5781 c 0
 540.8390436 627.5781 548.2559336 630.17086 554.3070336 634.48488 c 2
 610.2093336 674.33258 l 2
 613.5276736 676.69777 616.3859636 679.54315 618.7659736 682.85016 c 0
 628.5611936 696.46626 626.7096236 707.96556 625.5648036 714.45956 c 0
 624.4200236 720.95356 622.6647936 725.10266 620.8538736 729.11386 c 0
 617.2319836 737.13666 612.8372736 744.16236 607.5003736 751.95956 c 0
 596.8263736 767.55346 582.3946736 785.27226 565.9476736 802.94006 c 0
 549.5006736 820.60816 531.2562736 838.00506 512.5101736 852.16276 c 0
 493.7641736 866.32016 476.2091736 879.16616 449.1371736 880.86196 c 0
 448.4716336 880.9047479 447.8254536 880.9290941 447.1508436 880.93616 c 0
 447.0643429 880.936755898 446.9777726 880.937054333 446.8911326 880.937054333 c 0
 446.8044926 880.937054333 446.7275746 880.936755898 446.6410736 880.93616 c 1
 446.6410736 880.93813 l 1
 446.641 880.938 l 1
486.992 586.084 m 1
 486.998 586.082 l 1
 468.6424 585.954601 453.439 572.3964 450.6953 554.7754 c 0
 445.7191 522.801 443.46591 490.7128 450.02343 459.5918 c 0
 456.58102 428.4708 474.67253 397.128 505.88863 379.248 c 1
 505.88863 379.2597 l 1
 567.02643 344.2367 589.88253 313.5603 593.40813 302.0663 c 0
 595.1709 296.31949 594.54591 295.74365 593.32023 293.41395 c 0
 592.09465 291.08455 588.36085 286.7233 580.60733 282.50385 c 0
 565.10023 274.06495 535.49263 268.63505 507.41003 272.54682 c 0
 479.32743 276.45904 453.92823 288.58752 439.19323 306.97452 c 0
 432.41018 315.43959 421.98643 320.86402 410.30563 320.86402 c 0
 401.56493 320.86402 393.51573 317.78685 387.18153 312.71084 c 0
 378.7192 305.9277 373.29683 295.50564 373.29683 283.82704 c 0
 373.29683 275.08457 376.37518 267.03384 381.45304 260.69904 c 0
 411.26524 223.49794 454.90574 205.14374 497.20104 199.25174 c 0
 539.49654 193.35984 581.60244 198.802 615.97404 217.50764 c 0
 633.16004 226.86012 648.90944 240.14184 658.81194 258.96464 c 0
 668.71434 277.78744 670.85984 301.88034 664.14788 323.76154 c 0
 650.72398 367.52344 611.62968 403.95454 542.65988 443.46454 c 0
 530.99028 450.14864 525.96428 458.05884 522.42548 474.85324 c 0
 518.88671 491.64754 519.56503 516.14194 523.80634 543.39424 c 0
 524.097002 545.26122 524.24786 547.17422 524.24786 549.12217 c 0
 524.24786 567.59627 510.64186 582.89117 492.93526 585.64617 c 0
 491.07227 585.935549 489.16351 586.085729 487.21994 586.085729 c 0
 487.1301268 586.085729 487.081563 586.08431038 486.991899 586.08367007 c 1
 486.992 586.084 l 1
838.693 456.244 m 1
 838.693 456.242 l 1
 838.6167596 456.242462828 838.540465 456.242694575 838.464116 456.242694575 c 0
 838.3877676 456.242694575 838.32002 456.242462828 838.24378 456.242 c 0
 831.18807 456.1756206 824.55618 454.10688 818.96838 450.61114 c 0
 808.51348 444.07001 801.55388 432.45194 801.55388 419.22114 c 0
 801.55388 412.03239 803.67081 405.30384 807.22427 399.62294 c 0
 835.30127 354.73954 843.20867 296.93694 849.04267 232.59394 c 0
 850.74797 213.75044 866.60637 198.96524 885.89087 198.96524 c 0
 887.03105 198.96524 888.12394 198.9791571 889.23795 199.080309 c 0
 908.07765 200.789349 922.85875 216.646009 922.85875 235.927809 c 0
 922.85875 237.067569 922.8448988 238.160049 922.743821 239.273659 c 0
 916.786301 304.981159 909.396121 375.827659 869.962621 438.865659 c 0
 863.438641 449.295859 851.883321 456.209059 838.693121 456.244559 c 1
 838.693121 456.244609 l 1
 838.693 456.244 l 1
138.035 407.004 m 1
 137.545644 407.00291682 137.080284 406.9927485 136.59554 406.9728 c 0
 116.88284 406.169485 101.12524 389.9123 101.12524 370.0039 c 0
 101.12524 369.491945 101.1120268 369.005164 101.13266656 368.49824 c 0
 104.96597656 274.51004 150.61396656 214.51424 174.18346656 182.83624 c 0
 180.93068656 173.77182 191.72686656 167.89594 203.88456656 167.89594 c 0
 211.80470656 167.89594 219.16386656 170.44153 225.18546656 174.68587 c 2
 324.08776656 244.42417 l 2
 333.59040656 251.12389 339.80236656 262.18447 339.80236656 274.68437 c 0
 339.80236656 282.60632 337.25213656 289.96457 333.00568656 295.98667 c 0
 326.30567656 305.48701 315.24648656 311.69727 302.74838656 311.69727 c 0
 294.82775656 311.69727 287.47058656 309.14788 281.44908656 304.90272 c 2
 212.66588656 256.40472 l 1
 194.21518656 284.20762 177.21908656 318.96602 175.07598656 371.50972 c 0
 174.27201756 391.22182 158.01518656 406.97872 138.10708656 406.97872 c 0
 138.08272116 406.97872 138.05932756 407.0019161 138.03497316 407.001869 c 1
 138.03497316 407.003779 l 1
 138.035 407.004 l 1
EndSplineSet
EndChar

StartChar: "+MLAw6jDV 30"
Encoding: 30 12408 29
Width: 1024
LayerCount: 2
Fore
SplineSet
384.15 674.818 m 2
 384.0817251 674.817506832 384.017017 674.81686329 383.94883 674.816 c 0
 378.18685 674.7578015 372.69583 673.35837 367.84923 670.94881 c 0
 273.49973 624.04871 213.30523 549.36381 150.07623 488.74781 c 0
 143.04839 482.01139 138.67023 472.53191 138.67023 462.03791 c 0
 138.67023 452.11091 142.59634 443.08141 148.96883 436.43331 c 0
 155.70531 429.4049 165.18523 425.02631 175.67963 425.02631 c 0
 185.60714 425.02631 194.63703 428.95283 201.28523 435.32591 c 0
 264.97353 496.38191 317.62923 558.46291 387.94323 597.49791 c 1
 567.62123 541.03631 678.45823 437.18291 799.94123 335.08791 c 0
 806.37449 329.68068 814.67273 326.42212 823.72593 326.42212 c 0
 835.09363 326.42212 845.28253 331.52752 852.07203 339.60552 c 0
 857.47732 346.03823 860.73457 354.33492 860.73457 363.38642 c 0
 860.73457 374.75632 855.62727 384.94692 847.54667 391.73642 c 0
 725.10267 494.63942 600.33367 612.95542 394.74967 673.31842 c 0
 391.43978 674.290799 387.93789 674.81254 384.31507 674.81254 c 0
 384.2574817 674.81254 384.207553 674.81868183 384.150026 674.81841844 c 2
 384.15 674.818 l 2
EndSplineSet
EndChar

StartChar: "+MLAw6jDV 31"
Encoding: 31 12411 30
Width: 1024
LayerCount: 2
Fore
SplineSet
688.283 840.318 m 1
 688.283 840.316 l 2
 687.794022 840.31291531 687.327877 840.30082 686.84355 840.2789 c 2
 686.84355 840.2789 627.19195 837.46178 565.83955 834.64608 c 0
 535.16335 833.23818 504.05745 831.82518 479.81225 830.77108 c 0
 455.56655 829.71728 434.55795 829.05048 436.21455 829.05038 c 1
 415.79465 829.04926378 399.21655 812.46468 399.21655 792.04448 c 0
 399.2176664 771.62518 415.79535 755.04758 436.21455 755.04648 c 0
 444.71354 755.04648 458.67085 755.7823 483.02905 756.8414 c 0
 507.38775 757.9 538.52035 759.31521 569.22825 760.72421 c 0
 574.45344 760.96402 578.2864 761.14441 583.45095 761.38241 c 1
 585.68337 618.53641 l 1
 522.43407 620.20481 457.20037 624.05166 391.72237 623.33914 c 0
 371.48807 623.121304 355.12797 606.62674 355.12797 586.34124 c 0
 355.12797 586.205757 355.12128831 586.077781 355.12274411 585.94264 c 0
 355.34053411 565.70824 371.83514411 549.34814 392.12064411 549.34814 c 0
 392.25878211 549.34814 392.38927111 549.34148719 392.52705311 549.34300054 c 0
 455.26545311 550.02570054 520.63705311 545.48702054 586.85305311 543.73363054 c 1
 588.71633311 424.53063054 l 1
 512.76743311 436.91843054 430.71133311 431.08156054 349.01933311 388.01303054 c 0
 315.62643311 370.40883054 301.84603311 330.27293054 310.62483311 293.79043054 c 0
 319.40353311 257.30743054 348.89423311 223.53673054 396.56623311 201.84903054 c 0
 448.27013311 178.32603054 508.65123311 179.51783054 559.98623311 193.31387054 c 0
 585.65333311 200.21189054 609.19143311 210.37557054 628.67373311 225.76507054 c 0
 648.15563311 241.15497054 665.20373311 264.81337054 664.77143311 293.84127054 c 0
 664.771434367 293.84524711 664.771434996 293.84922383 664.771434996 293.85320064 c 0
 664.771434996 293.85717745 664.771434367 293.86069392 664.77143311 293.86467054 c 2
 664.23237311 328.30997054 l 1
 719.91307311 308.52787054 774.97637311 281.25237054 828.24437311 256.83727054 c 0
 832.93062311 254.68923054 838.14172311 253.49155054 843.63037311 253.49155054 c 0
 858.56307311 253.49155054 871.45347311 262.30609054 877.29717311 275.05605054 c 0
 879.44521311 279.74230054 880.64288311 284.95340054 880.64288311 290.44205054 c 0
 880.64288311 305.37475054 871.82834311 318.26515054 859.07838311 324.10885054 c 0
 800.36908311 351.01755054 734.47938311 383.71115054 663.01638311 405.97405054 c 1
 660.86795311 543.35705054 l 1
 713.68105311 544.48713054 766.60995311 549.23026054 818.76595311 561.61485054 c 0
 835.05905311 565.48609054 847.19335311 580.14465054 847.19335311 597.61495054 c 0
 847.19335311 600.56474054 846.86474611 603.41257054 846.21126511 606.16365054 c 0
 842.34108511 622.45815054 827.68176511 634.59395054 810.21046511 634.59395054 c 0
 810.13430431 634.59395054 810.06468411 634.61330904 809.98863111 634.61284844 c 0
 807.12215111 634.59382924 804.34744111 634.24588844 801.67027111 633.60894844 c 0
 756.69097111 622.92874844 709.05887111 618.90734844 659.70127111 618.00944844 c 1
 657.40635111 764.81444844 l 1
 675.49455111 765.66064844 690.33605111 766.35937844 690.33605111 766.35937844 c 2
 709.93465111 767.28630144 725.56235111 783.49127844 725.56235111 803.31757844 c 0
 725.56235111 803.91097544 725.57470771 804.47589844 725.54702181 805.06248844 c 0
 724.62266081 824.66338844 708.41652181 840.29388844 688.58862181 840.29388844 c 0
 688.48505081 840.29388844 688.38675981 840.31924634 688.28338781 840.31839504 c 2
 688.283 840.318 l 1
185.102 772.691 m 1
 184.789511 772.68958663 184.492703 772.68453179 184.18208 772.6754 c 0
 164.31088 772.046397 148.37168 755.717 148.37168 735.6941 c 0
 148.37168 735.291989 148.3587288 734.910334 148.371488482 734.5113 c 0
 153.234688482 581.7733 124.253488482 397.2743 164.937888482 252.2963 c 0
 169.307688482 236.7315 183.612988482 225.3052 200.565888482 225.3052 c 0
 204.032118482 225.3052 207.374428482 225.780153 210.556998482 226.6732 c 0
 226.125698482 231.04044 237.555698482 245.3476 237.555698482 262.3034 c 0
 237.555698482 265.76955 237.080832482 269.1118 236.187828482 272.2943 c 0
 202.845528482 391.1083 227.526418482 573.9273 222.338228482 736.8643 c 0
 221.710729482 756.6478 205.516028482 772.5523 185.613628482 772.6905 c 0
 185.526797382 772.691100462 185.439895482 772.691401185 185.352924482 772.691401185 c 0
 185.265953482 772.691401185 185.188739482 772.691100462 185.101908482 772.6905 c 1
 185.102 772.691 l 1
520.838 356.84 m 1
 522.28862 356.8287 523.73763 356.8137 525.18761 356.7873 c 0
 546.77091 356.37269 568.29811 353.50012 589.89851 349.14081 c 1
 590.77546 292.73461 l 1
 590.77546 292.96062 591.12467 290.41226 582.80476 283.84007 c 0
 574.48454 277.26748 559.11466 269.71507 540.77936 264.78737 c 0
 504.10966 254.93259 456.12206 256.04724 427.20936 269.20143 c 0
 394.95646 283.87473 384.96296 301.19273 382.57846 311.10183 c 0
 380.19396 321.01141 383.56671 322.57073 383.52964 322.55103 c 1
 430.56064 347.34653 475.87024 357.06733 520.83864 356.84013 c 1
 520.83864 356.8401 l 1
 520.838 356.84 l 1
EndSplineSet
EndChar

StartChar: "+MLAw6jDV 32"
Encoding: 32 12414 31
Width: 1024
LayerCount: 2
Fore
SplineSet
519.947 921.102 m 2
 519.796794 921.09951262 519.653407 921.09627614 519.50364 921.092 c 0
 499.48404 920.628972 483.37384 904.232 483.37384 884.102 c 0
 483.37384 883.81312 483.3622924 883.539465 483.36889197 883.252159 c 2
 486.71459197 738.297159 l 1
 479.08157197 738.630959 471.43419197 738.856149 463.77709197 738.980749 c 0
 401.09989197 739.999649 337.81509197 734.585819 277.21509197 732.277619 c 0
 257.45539197 731.525696 241.64399197 715.247119 241.64399197 695.304719 c 0
 241.64399197 694.826684 241.63064877 694.372399 241.64865566 693.898739 c 0
 242.40057366 674.138939 258.67915566 658.327639 278.62155566 658.327639 c 0
 279.09959066 658.327639 279.55387566 658.3142959 280.02753566 658.33230279 c 0
 352.18363566 661.08100279 423.48353566 666.26540279 488.45153566 663.11550279 c 1
 492.11755566 504.27350279 l 2
 492.14887706 502.98620279 492.24483666 501.73802279 492.40466566 500.48639279 c 0
 492.43486566 500.24261279 492.46936566 499.99896279 492.50036566 499.75397279 c 1
 431.07166566 502.89596279 374.74936566 515.17467279 325.74436566 542.93167279 c 0
 320.41745566 545.94943279 314.22706566 547.70765279 307.67986566 547.73831279 c 0
 307.62077326 547.738590745 307.56164866 547.738729877 307.50249166 547.738729877 c 0
 293.69329166 547.738729877 281.66759166 540.196759877 275.31069166 528.972729877 c 0
 272.26768166 523.599169877 270.53009166 517.390829877 270.53009166 510.779829877 c 0
 270.53009166 496.971829877 278.04726166 484.904329877 289.26969166 478.546929877 c 0
 355.61909166 440.966929877 428.48769166 427.123329877 503.45569166 424.988329877 c 1
 509.55785166 385.175329877 514.87629166 347.500029877 514.69789166 313.584329877 c 1
 474.90379166 323.919329877 433.86059166 330.852129877 394.08689166 330.762029877 c 2
 394.07893813 330.762030715 l 1
 394.07129166 330.762029877 l 2
 347.92519166 330.647129877 313.72239166 321.972999877 289.72129166 300.430029877 c 0
 265.72059166 278.886029877 259.89099166 246.697329877 262.98299166 222.668329877 c 0
 269.16713166 174.610329877 299.22909166 139.068729877 299.22909166 139.068729877 c 2
 301.88835166 135.539369877 305.10838166 132.554109877 308.84041166 130.166389877 c 0
 351.45531166 102.884389877 404.60471166 95.987489877 453.84241166 108.951489877 c 0
 502.63951166 121.799489877 548.54271166 156.724589877 569.59841166 211.824489877 c 0
 570.42011166 213.670489877 570.78700166 215.561389877 571.55348166 217.412379877 c 0
 585.24478166 212.373399877 598.98438166 207.290379877 611.62378166 201.998279877 c 0
 678.50048166 173.998279877 726.92078166 146.162379877 726.92078166 146.162379877 c 2
 732.34346166 143.043419877 738.62938166 141.259079877 745.32868166 141.259079877 c 0
 759.05068166 141.259079877 771.05418166 148.681979877 777.44228166 159.789379877 c 0
 780.56004166 165.211289877 782.34364166 171.495979877 782.34364166 178.193879877 c 0
 782.34364166 191.918379877 774.91810166 203.923679877 763.80754166 210.310779877 c 2
 763.80754166 210.310779877 711.49034166 240.410979877 640.19854166 270.259979877 c 0
 624.21714166 276.950989877 607.01394166 283.619979877 589.39584166 290.050979877 c 1
 593.66244166 335.858979877 587.24032166 382.049679877 579.62631166 426.353979877 c 1
 601.15211166 427.600989877 622.72651166 429.452519877 644.25131166 431.664519877 c 0
 662.87801166 433.581009877 677.42671166 449.339319877 677.42671166 468.468919877 c 0
 677.42671166 469.757939877 677.39978186 470.995259877 677.27086766 472.250469877 c 0
 675.35794766 490.880869877 659.59786766 505.433569877 640.46566766 505.433569877 c 0
 639.17691766 505.433569877 637.93986766 505.406652477 636.68491766 505.277791877 c 0
 613.06581766 502.850811877 589.87971766 500.980691877 567.20051766 499.906701877 c 0
 566.79538766 502.751661877 566.40262766 505.585861877 566.04035766 508.398891877 c 2
 562.66340766 654.716891877 l 1
 582.48630766 650.853091877 601.35120766 645.570231877 619.04230766 638.445391877 c 0
 623.30771766 636.727501877 627.96579766 635.781791877 632.84300766 635.781791877 c 0
 648.38730766 635.781791877 661.71230766 645.350651877 667.18680766 658.945391877 c 0
 668.90469766 663.210801877 669.85040766 667.868881877 669.85040766 672.746091877 c 0
 669.85040766 688.290391877 660.28154766 701.615391877 646.68680766 707.089891877 c 0
 618.86820766 718.293391877 590.15490766 725.835191877 560.90950766 730.773491877 c 1
 557.35091766 884.957491877 l 2
 556.88789566 904.977091877 540.49091766 921.087291877 520.36091766 921.087291877 c 0
 520.35293022 921.087291877 520.34524286 921.101994777 520.33725656 921.101989677 c 0
 520.27128036 921.102336208 520.20526356 921.102509689 520.13920656 921.102509689 c 0
 520.07314946 921.102509689 520.01456256 921.102336208 519.94858656 921.101989677 c 2
 519.947 921.102 l 2
394.248 256.766 m 1
 426.592 256.8359 463.8445 250.21161 501.322 240.1566 c 1
 501.16665 239.783316 501.014172 239.399211 500.87082 239.01988 c 0
 488.72142 206.31288 464.51002 188.28898 434.99582 180.51798 c 0
 407.88082 173.378 377.55172 177.46115 354.92352 189.51017 c 1
 350.27693 197.06317 338.31052 217.11177 336.38052 232.10977 c 0
 335.21869 241.13879 335.44216 242.03573 339.1481 245.36177 c 0
 342.85373 248.68877 358.0078 256.67407 394.2477 256.76607 c 1
 394.248 256.766 l 1
EndSplineSet
EndChar

StartChar: "+MLAw6jDV 33"
Encoding: 33 12415 32
Width: 1024
LayerCount: 2
Fore
SplineSet
475.514 783.119 m 1
 475.514 783.117 l 1
 475.4821525 783.117080687 475.4502956 783.117121054 475.4184293 783.117121054 c 0
 475.386563 783.117121054 475.3583475 783.117080687 475.3265 783.117 c 0
 471.38357 783.0726502 467.57389 782.400634 464.0179 781.2127 c 2
 464.0179 781.2127 332.0209 739.592 259.4439 741.2693 c 0
 259.153968 741.27602105 258.863216 741.2794001 258.57168 741.2794001 c 0
 238.44158 741.2794001 222.05918 725.1542001 221.59628 705.1345001 c 0
 221.58955895 704.8445681 221.5861799 704.5538161 221.5861799 704.2622811 c 0
 221.5861799 684.1321811 237.7113799 667.7497811 257.7310799 667.2868811 c 0
 315.3148799 665.9560811 380.5190799 680.4666811 427.5060799 693.2282811 c 1
 422.1437999 668.3136811 415.3439799 638.6290811 406.2326799 605.2868811 c 0
 400.6020899 584.6818811 394.0642799 563.2568811 386.9279799 541.9938811 c 1
 380.2487999 541.4798611 373.3893799 541.3424411 366.8127799 540.6364611 c 0
 295.6373799 532.9894511 229.4577799 514.5079611 183.3737799 469.8220611 c 0
 154.0053799 441.3450611 139.7938799 401.3525611 137.4284799 360.9240611 c 0
 135.0630599 320.4950611 147.3752699 272.7277611 190.1725799 250.8970611 c 0
 210.6950799 240.4290611 234.2207799 239.9177611 253.3678799 245.2427711 c 0
 272.5149799 250.5677411 288.4490799 260.4681711 302.7740799 271.5591711 c 0
 331.4239799 293.7411711 354.4755799 322.0500711 370.9537799 341.9771711 c 0
 399.6948799 376.7331711 421.9034799 422.3697711 440.2779799 470.2881711 c 1
 485.7944799 470.7141611 533.6833799 467.7927311 579.9869799 462.5147311 c 0
 602.6943799 459.9257211 624.9249799 456.8664611 646.2564799 453.5674711 c 1
 639.5879899 393.1214711 619.2055799 338.3194711 600.5083799 291.6394711 c 0
 598.8075099 287.3922911 597.8716699 282.7574311 597.8716699 277.9056711 c 0
 597.8716699 262.3383711 607.4695899 248.9971711 621.0962699 243.5378711 c 0
 625.3434599 241.8370011 629.9783199 240.9011511 634.8300699 240.9011511 c 0
 650.3973699 240.9011511 663.7385699 250.4990711 669.1978699 264.1257511 c 0
 687.8815699 310.7727511 710.8826699 371.3167511 719.2466699 440.8387511 c 1
 790.8026699 426.9927511 840.0946699 413.5496511 840.0946699 413.5496511 c 2
 843.2087499 412.6976301 846.4861699 412.2426711 849.8689999 412.2426711 c 0
 866.9048999 412.2426711 881.2524999 423.7861711 885.5457999 439.4676711 c 0
 886.3987429 442.5833211 886.8542199 445.8625011 886.8542199 449.2472311 c 0
 886.8542199 466.2864311 875.3061199 480.6364311 859.6200199 484.9266311 c 2
 859.6200199 484.9266311 802.9886199 500.4506311 721.8990199 515.6766311 c 1
 720.3787399 544.4406311 715.7606199 574.2723311 706.9693199 604.8973311 c 0
 702.5366599 620.3451311 688.3079199 631.6725311 671.4478199 631.6922311 c 0
 671.4369713 631.69224046 671.4261216 631.692245141 671.4152709 631.692245141 c 0
 667.8684109 631.692245141 664.4441909 631.186334141 661.1958709 630.252775141 c 0
 645.7348709 625.816005141 634.4078709 611.561575141 634.4078709 594.682375141 c 0
 634.4078709 591.138875141 634.9065699 587.722975141 635.8384309 584.477375141 c 0
 641.3072609 565.427375141 644.8097809 546.698575141 646.7153309 528.344575141 c 1
 627.8065309 531.153555141 608.2844309 533.767915141 588.3735309 536.037935141 c 0
 548.2533309 540.610935141 506.6437309 543.592505141 465.3915309 544.305515141 c 1
 469.5754309 558.245515141 473.9411609 572.336015141 477.6161309 585.784015141 c 0
 500.5404309 669.674015141 512.2431309 740.044015141 512.2431309 740.044015141 c 2
 512.5737389 742.031115141 512.7457749 744.071545141 512.7457749 746.151835141 c 0
 512.7457749 766.574735141 496.1649749 783.155635141 475.7419749 783.155635141 c 0
 475.6649768 783.155635141 475.5914619 783.120694541 475.5145739 783.120223941 c 1
 475.5145739 783.120273941 l 1
 475.514 783.119 l 1
356.309 464.143 m 1
 342.8225 434.035 328.5886 406.8583 313.9281 389.1293 c 0
 297.6377 369.4293 276.5583 344.8526 257.4711 330.0746 c 0
 247.92749 322.68558 239.0949 318.0805 233.5395 316.5355 c 0
 227.98405 314.99046 226.87061 315.2479 223.79536 316.81675 c 0
 216.35876 320.60977 209.93816 333.33395 211.29926 356.59795 c 0
 212.66034 379.86095 224.64156 406.75365 234.89106 416.69175 c 0
 258.94446 440.01575 302.53806 456.11485 356.30906 464.14295 c 1
 356.309 464.143 l 1
EndSplineSet
EndChar

StartChar: "+MLAw6jDV 34"
Encoding: 34 12416 33
Width: 1024
LayerCount: 2
Fore
SplineSet
443.436 858.213 m 1
 443.434 858.2013 l 2
 443.3584223 858.201754811 443.282791 858.201982541 443.207107 858.201982541 c 0
 443.1314231 858.201982541 443.064267 858.201754811 442.98869 858.2013 c 0
 442.161369 858.1907713 441.36659 858.1540651 440.55314 858.08997 c 0
 421.52174 856.57214 406.52944 840.62717 406.52944 821.20817 c 0
 406.52944 820.20639 406.53340866 819.24758 406.6117022 818.2658 c 2
 406.6117022 818.2658 410.3482822 770.4734 408.6409922 705.9568 c 1
 337.9787922 707.96751 269.6489922 711.37657 219.2949922 709.44118 c 0
 199.5422922 708.681501 183.7390922 692.40608 183.7390922 672.46888 c 0
 183.7390922 671.985329 183.7257747 671.525762 183.74419767 671.04669 c 0
 184.50390967 651.29409 200.77929767 635.49089 220.71649767 635.49089 c 0
 221.19938567 635.49089 221.65831867 635.4775472 222.13673767 635.49591987 c 0
 265.83493767 637.17572987 333.09173767 634.00988987 404.32773767 632.03107987 c 1
 404.02613767 628.79409987 403.70596767 625.54765987 403.36875767 622.29084987 c 0
 400.43213767 593.92894987 395.87358767 565.20634987 389.77895767 537.85134987 c 1
 380.63136767 545.24433987 370.09335767 551.19704987 358.00745767 554.40604987 c 0
 307.44995767 567.82804987 258.20355767 545.96119987 219.96645767 515.52514987 c 0
 181.72935767 485.09014987 148.36085767 440.64824987 160.02505767 387.81214987 c 0
 169.26865767 345.92914987 205.95055767 326.86854987 239.45475767 317.79454987 c 0
 269.85475767 309.56156987 302.31965767 308.45687987 332.56995767 320.94689987 c 1
 332.25327767 315.79887987 331.82875767 310.66919987 331.85316767 305.47619987 c 0
 332.00524767 273.17619987 342.61396767 234.78319987 375.40006767 212.93519987 c 1
 375.41006767 212.93519987 l 1
 435.80226767 172.69419987 517.01306767 159.11229987 595.03506767 168.80629987 c 0
 673.05746767 178.49927987 750.42906767 212.76529987 793.34206767 280.67929987 c 0
 796.94887767 286.38940987 799.03694767 293.15269987 799.03694767 300.39979987 c 0
 799.03694767 313.57059987 792.20234767 325.15919987 781.82644767 331.71639987 c 0
 776.11516767 335.32537987 769.34984767 337.41480987 762.10034767 337.41480987 c 0
 748.92804767 337.41480987 737.33834767 330.57863987 730.78154767 320.20080987 c 0
 703.84404767 277.56980987 648.38104767 250.00280987 585.91254767 242.24180987 c 0
 523.44384767 234.48080987 456.51254767 247.81906987 416.43754767 274.52300987 c 0
 408.56996767 279.76501987 405.94584767 285.81960987 405.85164767 305.82960987 c 0
 405.75754767 325.83960987 411.34860767 354.42080987 417.09574767 384.11280987 c 0
 418.54187767 391.58481987 419.62696767 399.31450987 420.97856767 406.91550987 c 0
 428.47313767 420.52450987 435.23916767 434.66120987 440.90236767 449.38430987 c 0
 460.87006767 501.29530987 471.26766767 559.54230987 476.97656767 614.67930987 c 0
 477.53057767 620.02941987 478.02463767 625.34260987 478.49023767 630.63050987 c 1
 557.20013767 629.98080987 633.29523767 632.76933987 690.80823767 652.06210987 c 0
 705.47143767 656.98064987 716.04823767 670.84040987 716.04823767 687.15100987 c 0
 716.04823767 691.26335987 715.35942667 695.21690987 714.11875767 698.91360987 c 0
 709.19904767 713.57480987 695.34035767 724.14960987 679.03115767 724.14960987 c 0
 678.83053867 724.14960987 678.65064267 724.14135867 678.45077667 724.13817047 c 0
 674.55607667 724.07472057 670.78929667 723.39837347 667.27497667 722.21825047 c 0
 628.88657667 709.34095047 557.88097667 704.66985047 482.64597667 704.70655047 c 1
 484.45119667 773.66495047 480.37840667 824.14755047 480.37840667 824.14755047 c 2
 478.86346667 843.18185047 462.91710667 858.17725047 443.49610667 858.17725047 c 0
 443.47573487 858.17725047 443.45543867 858.21203387 443.43507447 858.21200087 c 1
 443.436 858.213 l 1
780.342 689.506 m 1
 780.111192 689.50472468 779.892105 689.50149259 779.66231 689.496 c 0
 769.75816 689.308154 760.78331 685.22527 754.24631 678.7108 c 0
 747.51932 672.00945 743.35371 662.7387 743.35371 652.5027 c 0
 743.35371 642.3197 747.47704 633.0816 754.14281 626.3886 c 2
 849.12521 531.0373 l 2
 855.82656 524.31031 865.09731 520.1447 875.33331 520.1447 c 0
 885.51631 520.1447 894.75431 524.26803 901.44741 530.9338 c 0
 908.1744 537.63515 912.34001 546.9059 912.34001 557.1419 c 0
 912.34001 567.3249 908.21668 576.563 901.55091 583.256 c 2
 806.57631 678.6076 l 2
 799.87423 685.34016 790.59951 689.5097 780.35871 689.5097 c 0
 780.35460235 689.5097 780.3460452 689.50412519 780.3419378 689.50412384 c 1
 780.3419378 689.50607384 l 1
 780.342 689.506 l 1
331.062 483.719 m 1
 334.1205 483.7492 336.80848 483.46619 339.02098 482.87916 c 0
 352.75658 479.23214 349.92408 480.59544 351.71048 466.86746 c 0
 352.72288 459.08643 351.77148 446.81936 349.9761 432.83036 c 1
 337.4837 413.27936 323.3792 398.28526 307.6558 390.08226 c 0
 301.1576 386.69225 277.5323 384.14794 258.8023 389.22093 c 0
 240.0722 394.29295 232.073 404.72993 232.2867 403.76193 c 1
 230.4577 412.04692 240.91652 437.61713 266.0523 457.62523 c 0
 284.9041 472.63023 308.5579 481.45313 325.1812 483.33813 c 0
 327.2591 483.57322 329.22706 483.70206 331.06206 483.71899 c 1
 331.062 483.719 l 1
EndSplineSet
EndChar

StartChar: "+MLAw6jDV 35"
Encoding: 35 12417 34
Width: 1024
LayerCount: 2
Fore
SplineSet
576.041 762.721 m 1
 556.67 762.570951 540.8169 747.47 539.4258 728.4163 c 0
 539.28482 726.4838 531.73204 699.9842 521.082 668.7932 c 1
 460.8707 664.7954 396.907 653.6286 337.678 632.2209 c 1
 326.855 659.5026 317.1554 687.1756 308.8596 715.3733 c 0
 304.34763 730.7159 290.1513 741.9301 273.3564 741.9301 c 0
 273.290292 741.9301 273.234232 741.93423038 273.168205 741.93388331 c 0
 269.612115 741.91426831 266.174455 741.38558831 262.922105 740.42802331 c 0
 247.581705 735.91466331 236.369605 721.71942331 236.369605 704.92612331 c 0
 236.369605 701.29910331 236.894659 697.80384331 237.869315 694.49052331 c 0
 247.231915 662.66612331 258.124115 631.68752331 270.209115 601.40462331 c 1
 197.269615 559.73462331 139.781115 494.75762331 131.961115 403.18562331 c 0
 127.305415 348.67862331 155.262115 302.77662331 192.455215 276.33562331 c 0
 229.648315 249.89362331 275.112115 238.31022331 318.176215 238.31022331 c 0
 342.738415 238.31022331 361.458515 249.91662331 377.955515 263.54262331 c 0
 393.339815 276.24962331 407.510915 292.18652331 421.592215 310.58952331 c 1
 437.014215 284.73052331 452.475915 259.02042331 467.695715 233.34342331 c 0
 474.142385 222.46842331 485.999415 215.17122331 499.547215 215.17122331 c 0
 506.418505 215.17122331 512.871015 217.11158331 518.387115 220.38055331 c 0
 529.264015 226.82676331 536.562715 238.68485331 536.562715 252.23415331 c 0
 536.562715 259.10785331 534.621045 265.56245331 531.349965 271.07975331 c 0
 509.902965 307.26175331 488.300965 343.09475331 467.224965 378.91175331 c 1
 482.529365 404.56675331 497.424365 432.09135331 511.603865 460.13635331 c 0
 535.175365 506.75835331 555.804665 553.66615331 572.836265 595.89635331 c 1
 587.402165 595.92655331 602.244665 596.13085331 615.488565 595.25378331 c 0
 687.807065 590.46179331 769.119565 543.41408331 801.726565 482.40778331 c 0
 818.030265 451.90478331 823.778765 418.98748331 813.906265 381.17178331 c 0
 804.033385 343.35578331 777.314165 299.46558331 722.851565 252.51378331 c 0
 714.977375 245.72640331 709.989265 235.68108331 709.989265 224.47998331 c 0
 709.989265 215.26079331 713.396295 206.81328331 718.982445 200.33218331 c 0
 725.769785 192.46003331 735.813745 187.47338331 747.013245 187.47338331 c 0
 756.234825 187.47338331 764.684245 190.88210331 771.166045 196.47083331 c 0
 833.872245 250.52983331 870.944745 306.68583331 885.512045 362.48283331 c 0
 900.079145 418.27983331 890.910055 472.53583331 866.990545 517.28783331 c 0
 819.151545 606.79083331 718.760545 662.57783331 620.375545 669.09683331 c 0
 614.206145 669.50583331 607.158445 669.20168331 600.762245 669.45230331 c 1
 607.338015 689.25820331 612.060445 706.99350331 613.231045 723.02850331 c 0
 613.2968851 723.92974331 613.3303836 724.83990331 613.3303836 725.75782331 c 0
 613.3303836 745.26122331 598.1730836 761.22782331 579.0239836 762.62612331 c 0
 578.1289766 762.69104571 577.2251836 762.72407321 576.3137336 762.72407321 c 0
 576.2098786 762.72407321 576.1452146 762.72267924 576.0415596 762.72182329 c 2
 576.041 762.721 l 1
490.729 591.262 m 1
 477.1179 559.52 462.2443 526.5157 445.5649 493.5257 c 0
 438.68163 479.9117 431.61 466.4601 424.4555 453.3831 c 1
 404.0892 489.9761 384.7786 526.7913 367.2348 564.1661 c 1
 405.9995 577.5991 448.6767 586.2728 490.7288 591.2618 c 1
 490.729 591.262 l 1
299.67 533.572 m 1
 324.2724 480.931 351.8812 430.148 380.5724 380.351 c 1
 375.4586 372.756 370.4077 365.6033 365.4572 359.0034 c 0
 352.5763 341.8324 340.2668 328.3931 330.8283 320.5972 c 0
 321.38971 312.80116 315.6508 312.3072 318.176 312.30618 c 1
 289.388 312.30618 256.6221 321.51488 235.3303 336.65188 c 0
 214.0385 351.78888 203.2454 368.24918 205.6916 396.88818 c 0
 210.9795 458.80518 245.971 502.13018 299.6701 533.57218 c 1
 299.67 533.572 l 1
EndSplineSet
EndChar

StartChar: "+MLAw6jDV 36"
Encoding: 36 12418 35
Width: 1024
LayerCount: 2
Fore
SplineSet
455.018 841.959 m 1
 455.018 841.953 l 1
 455.0031464 841.953017548 454.9882907 841.953026324 454.973433 841.953026324 c 0
 441.116433 841.953026324 429.052533 834.358366324 422.713333 823.070226324 c 0
 408.761033 798.219426324 391.876233 758.252726324 376.055133 709.082226324 c 1
 336.383333 708.902016324 298.646433 707.148136324 264.432133 708.090036324 c 0
 264.088942 708.099463584 263.74459 708.104208024 263.399143 708.104208024 c 0
 243.325543 708.104208024 226.980943 692.066908024 226.430143 672.125308024 c 0
 226.42067953 671.781461024 226.4159168 671.436449024 226.4159168 671.090328024 c 0
 226.4159168 651.016628024 242.4534168 634.672028024 262.3950168 634.121428024 c 0
 292.9958168 633.279428024 324.0122168 633.879538024 354.8364168 634.121428024 c 1
 354.3797068 632.267418024 353.9213868 630.417158024 353.4711768 628.549168024 c 0
 340.1459768 573.283168024 329.9539768 513.032168024 329.0414768 454.219168024 c 1
 306.8009768 459.053188024 286.3255768 465.193368024 268.8383768 472.668368024 c 0
 264.3892068 474.568288024 259.4663168 475.638388024 254.3266768 475.641018024 c 0
 254.31712783 475.641025276 254.307578 475.641028902 254.2980274 475.641028902 c 0
 239.0263274 475.641028902 225.9210274 466.395288902 220.2739274 453.178128902 c 0
 218.3699374 448.721708902 217.3158374 443.816838902 217.3158374 438.667728902 c 0
 217.3158374 423.398728902 226.5409874 410.268328902 239.7544374 404.619528902 c 0
 268.4167374 392.368528902 300.3757374 383.230128902 333.9146374 376.928128902 c 1
 334.8061374 371.106148902 335.8167274 365.326928902 336.9732374 359.603928902 c 0
 351.0153374 290.119928902 383.4614374 224.359928902 445.6942374 195.431928902 c 0
 507.9268374 166.504928902 588.5012374 184.852028902 675.4112374 255.844028902 c 0
 716.1621374 289.131028902 778.7602374 345.652928902 804.4542374 416.098028902 c 0
 805.8965974 420.050868902 806.6836574 424.317838902 806.6836574 428.767128902 c 0
 806.6836574 444.742628902 796.5631574 458.368628902 782.3683574 463.543328902 c 0
 778.4176074 464.983958902 774.1532174 465.770018902 769.7066574 465.770018902 c 0
 753.7314574 465.770018902 740.1057574 455.649818902 734.9308574 441.455418902 c 0
 719.3028574 398.607418902 664.3262574 342.345518902 628.5948574 313.158418902 c 0
 553.2681574 251.627418902 507.1378574 248.476318902 476.8838574 262.539318902 c 0
 447.8690574 276.025318902 422.9467574 314.955918902 410.9795574 367.473318902 c 1
 468.6569574 363.828298902 527.1545574 367.354198902 578.7685574 376.893238902 c 0
 595.9686574 380.071548902 609.0137574 395.162838902 609.0137574 413.277038902 c 0
 609.0137574 415.585188902 608.8339014 417.812998902 608.4286784 420.004598902 c 0
 605.2503684 437.204698902 590.1590784 450.249798902 572.0448784 450.249798902 c 0
 569.7367284 450.249798902 567.5089284 450.069942902 565.3173284 449.664720902 c 0
 517.4273284 440.812730902 458.9613284 438.745220902 403.3333284 443.393240902 c 1
 403.3068284 497.051240902 412.2507784 556.626240902 425.4095284 611.202240902 c 0
 427.1735084 618.518240902 429.0198584 625.761340902 430.9251584 632.905340902 c 1
 474.4182584 630.555340902 516.4390584 624.297640902 555.1241584 608.641640902 c 0
 559.4058684 606.908420902 564.0847584 605.953820902 568.9848584 605.953820902 c 0
 584.5073584 605.953820902 597.8170584 615.495170902 603.3058584 629.059620902 c 0
 605.0373684 633.339520902 605.9909784 638.016090902 605.9909784 642.913620902 c 0
 605.9909784 658.435120902 596.4508984 671.744020902 582.8878784 677.233420902 c 0
 539.9572784 694.607420902 496.2844784 702.770720902 453.5888784 706.415020902 c 1
 466.6029784 743.559320902 479.3085784 772.707120902 487.2470784 786.846620902 c 0
 490.2496084 792.193470902 491.9623384 798.360120902 491.9623384 804.923620902 c 0
 491.9623384 818.783220902 484.3882584 830.889120902 473.0967384 837.227420902 c 0
 467.7599784 840.221870902 461.5672384 841.955020902 455.0186384 841.959840902 c 1
 455.018 841.959 l 1
EndSplineSet
EndChar

StartChar: "+MLAw6jDV 37"
Encoding: 37 12420 36
Width: 1024
LayerCount: 2
Fore
SplineSet
703.152 878.766 m 1
 690.7183 878.697428 679.7451 872.51779 673.0856 863.0433 c 0
 668.85652 857.02887 666.37266 849.7003 666.37266 841.7961 c 0
 666.37266 829.2794 672.54584 818.1915 682.06996 811.4945 c 2
 806.77896 723.8207 l 2
 812.79287 719.5928 820.12046 717.10971 828.02336 717.10971 c 0
 840.54176 717.10971 851.63106 723.28459 858.32776 732.81091 c 0
 862.55527 738.82465 865.03811 746.15191 865.03811 754.05441 c 0
 865.03811 766.57341 858.86267 777.66311 849.33561 784.35971 c 2
 724.63461 872.03351 l 2
 718.62029 876.26234 711.29191 878.74603 703.38801 878.74603 c 0
 703.3197526 878.74603 703.220379 878.766296 703.152208 878.765926 c 2
 703.152 878.766 l 1
365.709 844.893 m 1
 362.32939 844.88607179 359.06341 844.420204 355.95314 843.56292 c 0
 340.30544 839.24736 328.79954 824.90162 328.79954 807.88962 c 0
 328.79954 804.47914 329.257536 801.18995 330.12306 798.05311 c 0
 344.15266 747.18611 355.35766 681.66111 368.53906 611.50211 c 1
 358.90916 606.8031 349.28816 602.09125 339.77926 597.41231 c 0
 253.65966 555.03431 178.79526 515.90251 178.79526 515.90251 c 2
 166.97096 509.72406 158.89266 497.34141 158.89266 483.08691 c 0
 158.89266 476.91921 160.46515 471.08671 163.13896 465.97091 c 0
 169.31836 454.14961 181.69936 446.07371 195.95176 446.07371 c 0
 202.11981 446.07371 207.95256 447.64638 213.06866 450.32048 c 2
 213.06866 450.32048 287.28086 489.10188 372.45166 531.01188 c 0
 376.05166 532.78387 379.70771 534.56971 383.35406 536.35172 c 1
 389.00755 509.45172 395.17096 482.38982 402.09816 455.67982 c 0
 434.14806 332.10282 482.49696 211.50882 585.58216 150.40982 c 0
 591.09955 147.13874 597.53796 145.26031 604.41166 145.26031 c 0
 617.96096 145.26031 629.83516 152.49581 636.28136 163.37271 c 0
 639.55066 168.88902 641.42798 175.32571 641.42798 182.19731 c 0
 641.42798 195.74871 634.19028 207.62441 623.31068 214.06991 c 0
 549.45278 257.84491 504.00368 357.51091 473.72468 474.25891 c 0
 465.6645 505.33791 458.69608 537.30341 452.27738 569.31941 c 1
 512.55218 597.50141 568.30038 621.74131 593.14838 628.86631 c 0
 655.96858 646.87931 712.01538 628.0648 744.76538 598.84481 c 0
 761.14028 584.23481 771.06108 567.37321 774.29858 552.82531 c 0
 777.53608 538.27631 775.7784 526.37721 765.9353 512.91121 c 0
 733.2383 468.17921 709.1739 463.58691 682.9783 466.92291 c 0
 656.7827 470.2569 626.5772 488.58621 603.3709 506.45221 c 0
 597.12806 511.25768 589.3108 514.11642 580.8311 514.11642 c 0
 568.8911 514.11642 558.2514 508.49389 551.4842 499.70412 c 0
 546.67643 493.46047 543.81619 485.64132 543.81619 477.15932 c 0
 543.81619 465.21762 549.44035 454.57662 558.23229 447.80952 c 0
 585.17299 427.06852 624.06449 399.82762 673.63229 393.51652 c 0
 723.20039 387.20652 781.56429 408.89012 825.67729 469.23912 c 0
 847.59159 499.21912 853.83309 536.08812 846.53079 568.90322 c 0
 839.22859 601.71822 820.06849 630.82152 794.02299 654.05942 c 0
 754.95469 688.91642 698.98849 711.36572 636.72199 709.88172 c 0
 615.96659 709.38772 594.51279 706.23696 572.75129 699.99696 c 0
 539.67539 690.51196 490.82999 669.48326 437.88629 644.73326 c 1
 426.39229 706.87026 415.53459 766.67326 401.45469 817.72326 c 0
 397.17856 833.23766 383.03959 844.69126 366.22029 844.88926 c 0
 366.1334589 844.889860462 366.046557 844.890161185 365.959586 844.890161185 c 0
 365.872615 844.890161185 365.795401 844.889860462 365.70857 844.88926 c 1
 365.70857 844.89122 l 1
 365.709 844.893 l 1
EndSplineSet
EndChar

StartChar: "+MLAw6jDV 38"
Encoding: 38 12422 37
Width: 1024
LayerCount: 2
Fore
SplineSet
462.123 862.82 m 1
 462.123 862.816 l 1
 462.0513937 862.816408239 461.979739 862.816612635 461.908038 862.816612635 c 0
 461.8363364 862.816612635 461.772726 862.816408239 461.70112 862.816 c 0
 448.56582 862.683585 437.07672 855.73129 430.61522 845.2945 c 0
 427.11906 839.64554 425.1004 832.9876 425.1004 825.862 c 0
 425.1004 812.5642 432.06799 800.8795 442.6113 794.357 c 0
 486.5271 767.183 518.8406 738.7103 542.0508 709.1382 c 1
 537.0918 708.4622 532.11917 707.74313 527.1192 706.93312 c 0
 449.0126 694.29312 383.3322 651.56972 330.8052 590.44912 c 0
 314.3607 571.31512 299.4226 549.81212 285.1333 527.28112 c 1
 281.6383 590.24912 270.4569 651.55312 249.7231 710.56412 c 0
 244.66303 724.97292 230.9308 735.31522 214.802 735.31522 c 0
 214.7621014 735.31522 214.7355885 735.3045217 214.695719 735.3043952 c 0
 210.446499 735.2909712 206.352029 734.5486152 202.553119 733.2145452 c 0
 188.147419 728.1527552 177.808119 714.4220452 177.808119 698.2956452 c 0
 177.808119 693.9997052 178.563654 689.8741752 179.912509 686.0368452 c 0
 215.749609 584.0408452 220.202709 471.9478452 201.889109 351.1718452 c 0
 201.616767 349.3627852 201.475592 347.5110152 201.475592 345.6265252 c 0
 201.475592 325.2036252 218.056392 308.6227252 238.479392 308.6227252 c 0
 254.399192 308.6227252 267.972992 318.7195252 273.189892 332.8358252 c 0
 304.968592 419.0578252 342.847392 490.9208252 386.929892 542.2148252 c 0
 431.012592 593.5088252 479.866292 624.3227252 538.945892 633.8847252 c 0
 553.300292 636.2077352 567.235492 637.7462552 580.699792 638.6132352 c 1
 595.071992 596.2722352 596.131592 552.1844352 590.057212 506.8532352 c 0
 583.071022 454.7182352 564.644412 401.7122352 542.545512 351.9602352 c 1
 497.349612 363.1722352 454.831712 383.8018352 429.191512 396.6418352 c 0
 424.214772 399.1342952 418.599312 400.5373152 412.658812 400.5373152 c 0
 398.179412 400.5373152 385.617112 392.2598352 379.541112 380.1301152 c 0
 377.047672 375.1526052 375.644072 369.5361152 375.644072 363.5943152 c 0
 375.644072 349.1112152 383.925862 336.5461152 396.060672 330.4719152 c 0
 419.545072 318.7109152 460.505272 297.9393152 509.562672 284.0364152 c 1
 496.894572 259.7234152 484.226872 236.8684152 472.722872 216.1204152 c 0
 469.780502 210.8139252 468.104642 204.7097152 468.104642 198.2172152 c 0
 468.104642 184.2889152 475.754962 172.1319152 487.138842 165.8196152 c 0
 492.445142 162.8775352 498.549042 161.2018452 505.041142 161.2018452 c 0
 518.970042 161.2018452 531.127542 168.8528452 537.439542 180.2375452 c 0
 551.998442 206.4945452 569.202142 236.9713452 586.244242 270.6184452 c 1
 652.250142 267.3974152 726.042242 288.0734452 776.000242 357.9915452 c 0
 817.480342 416.0455452 840.290342 469.0175452 845.213142 518.1285452 c 0
 850.135822 567.2385452 834.972542 612.5202452 805.136942 644.8085452 c 0
 763.042642 690.3625452 698.770942 711.7490452 624.499942 713.9140452 c 1
 595.167342 766.3030452 549.080742 815.5030452 481.550942 857.2890452 c 0
 475.913262 860.7754652 469.231542 862.8139552 462.123242 862.8202952 c 1
 462.123242 862.8203952 l 1
 462.123 862.82 l 1
655.889 635.889 m 1
 699.266 629.34199 732.5938 614.2734 750.7913 594.5804 c 0
 766.9604 577.0824 774.7139 556.7871 771.5784 525.5081 c 0
 768.44298 494.2281 752.218 451.9952 715.7854 401.0061 c 0
 688.224 362.4321 656.0628 347.2499 620.2561 344.2249 c 1
 639.9218 391.8779 656.2245 443.5076 663.3967 497.0299 c 0
 669.47861 542.4159 667.92147 589.5653 655.88889 635.8889 c 1
 655.889 635.889 l 1
EndSplineSet
EndChar

StartChar: "+MLAw6jDV 39"
Encoding: 39 12424 38
Width: 1024
LayerCount: 2
Fore
SplineSet
516.426 897.238 m 1
 516.426 897.234 l 1
 516.295856 897.23535002 516.165551 897.23602669 516.03509 897.23602669 c 0
 515.904629 897.23602669 515.788565 897.23535002 515.65842 897.234 c 0
 498.35422 896.985897 483.90082 884.8126 480.14282 868.5856 c 0
 472.44392 835.3326 472.97152 786.7819 474.46704 717.8236 c 0
 475.96305 648.8666 480.03167 563.5736 485.19944 473.8746 c 0
 487.38094 436.0096 495.59154 401.4184 503.40454 369.2146 c 1
 440.66394 381.0836 376.42354 384.2823 308.87754 372.72828 c 0
 263.81154 365.01929 232.57464 354.29518 212.65294 327.44118 c 0
 202.69214 314.01418 198.31534 296.12908 199.86194 280.98608 c 0
 201.40854 265.84208 207.22481 253.48168 213.96744 242.79268 c 0
 240.93794 200.03768 288.46524 171.34328 308.81114 156.80828 c 0
 353.22304 125.08028 406.01974 121.31228 450.97714 132.68328 c 0
 495.93464 144.05428 534.98114 168.99058 562.53414 199.63058 c 0
 581.13474 220.31558 589.20434 244.30788 591.47164 269.03488 c 1
 649.76034 249.79688 709.66264 225.04958 773.50864 199.04658 c 0
 777.81056 197.29422 782.51531 196.3285 787.44384 196.3285 c 0
 802.93644 196.3285 816.22504 205.83223 821.73324 219.3552 c 0
 823.48508 223.65657 824.45049 228.36062 824.45049 233.2884 c 0
 824.45049 248.7829 814.94437 262.0728 801.41879 267.5798 c 0
 728.15529 297.4178 656.61579 327.3593 584.06679 349.0173 c 1
 574.69008 393.9003 561.34199 438.8385 559.07849 478.1343 c 0
 556.38052 524.9643 554.00204 570.458 552.12732 612.9393 c 1
 557.05103 612.51732 562.25602 612.16609 567.75232 611.86508 c 0
 589.89542 610.65307 616.52342 610.31193 643.09802 610.70493 c 0
 669.67262 611.09894 696.02122 612.21872 717.70742 614.13071 c 0
 728.55052 615.0867 738.15662 616.20953 746.75622 617.76352 c 0
 755.35612 619.31755 760.57302 617.31833 775.78942 628.56232 c 0
 784.911 635.30364 790.83052 646.13412 790.83052 658.33632 c 0
 790.83052 666.55564 788.09426 674.16632 783.55307 680.31032 c 0
 776.81203 689.43492 765.97967 695.35672 753.77517 695.35672 c 0
 753.6987638 695.35672 753.645031 695.3244151 753.568733 695.3239516 c 0
 746.542773 695.2800426 739.934933 693.2502916 734.353933 689.8024616 c 1
 739.148943 693.0334716 737.641873 691.3156716 733.601973 690.5856716 c 0
 728.646673 689.6906716 720.662573 688.6813816 711.203573 687.8473916 c 0
 692.284773 686.1783816 667.171273 685.0670416 641.998473 684.6950416 c 0
 616.825673 684.3220416 591.413773 684.6860416 571.797273 685.7575416 c 0
 562.697373 686.2555416 554.903873 686.9285516 549.299173 687.6325416 c 1
 548.966193 698.5575416 548.668413 709.2475416 548.447613 719.4255416 c 0
 546.986403 786.7885416 549.694453 840.8885416 552.242533 851.8945416 c 0
 552.865337 854.5839816 553.194561 857.3853416 553.194561 860.2630016 c 0
 553.194561 877.8078016 540.937361 892.4938016 524.539361 896.2891016 c 0
 521.924051 896.8934046 519.220101 897.2219636 516.426081 897.2383216 c 2
 516.426081 897.2384216 l 1
 516.426 897.238 l 1
394.852 305.855 m 1
 435.9847 305.64486 476.6915 299.44446 517.717 289.7515 c 1
 518.37849 271.3715 515.51944 258.015 507.508 249.107 c 0
 490.5356 230.232 461.8075 211.7465 432.8322 204.4176 c 0
 403.8569 197.0886 376.5631 199.34518 351.8244 217.0192 c 0
 329.4377 233.0122 287.4593 264.9862 276.5588 282.2673 c 0
 275.3704 284.1503 275.67785 283.88308 275.21505 284.9841 c 0
 278.28665 286.88508 289.98605 294.41987 321.35175 299.7849 c 0
 340.13245 302.99791 358.71955 304.87699 377.19555 305.57201 c 0
 383.09117 305.79386 388.97575 305.88544 394.85175 305.85521 c 2
 394.852 305.855 l 1
EndSplineSet
EndChar

StartChar: "+MLAw6jDV 40"
Encoding: 40 12425 39
Width: 1024
LayerCount: 2
Fore
SplineSet
496.008 884.094 m 1
 496.008 884.092 l 1
 495.9705172 884.09211179 495.9330213 884.092167725 495.895512 884.092167725 c 0
 495.8580032 884.092167725 495.8247824 884.09211179 495.7873 884.092 c 0
 485.1556 883.958142 475.5933 879.3448 468.924 872.0373 c 0
 462.92266 865.45938 459.26094 856.7109 459.26094 847.1139 c 0
 459.26094 836.2888 463.90212 826.5325 471.32244 819.7639 c 2
 574.51344 725.5998 l 1
 511.50174 687.467 l 2
 500.78834 680.98223 493.62154 669.2166 493.62154 655.7904 c 0
 493.62154 648.79743 495.62879 642.2389 499.00566 636.6584 c 0
 505.48981 625.9423 517.25696 618.7733 530.68526 618.7733 c 0
 537.68025 618.7733 544.24056 620.78168 549.82206 624.16035 c 2
 655.17606 687.91815 l 2
 665.88986 694.40373 673.05676 706.17005 673.05676 719.59715 c 0
 673.05676 730.42025 668.37466 740.13735 660.95736 746.90645 c 2
 521.20336 874.42845 l 2
 514.6254 880.43 505.87676 884.09186 496.27956 884.09186 c 0
 496.1920945 884.09186 496.095408 884.09507266 496.008084 884.09446536 c 2
 496.008 884.094 l 1
332.959 752.596 m 1
 332.959 752.59 l 1
 332.8883888 752.590396965 332.817731 752.590595712 332.747027 752.590595712 c 0
 332.6763231 752.590595712 332.613601 752.590396965 332.54299 752.59 c 0
 332.054254 752.58559428 331.587599 752.5722219 331.10354 752.549 c 0
 311.50494 751.622077 295.87724 735.4171 295.87724 715.5908 c 0
 295.87724 714.9974 295.8648836 714.43248 295.8925698 713.84588 c 0
 301.7673098 589.79188 272.1739698 472.94188 239.1249698 352.80488 c 0
 238.2644168 349.67622 237.8047398 346.38225 237.8047398 342.98176 c 0
 237.8047398 322.55886 254.3855398 305.97796 274.8085398 305.97796 c 0
 281.1551298 305.97796 287.1645398 307.61165 292.3867398 310.4318 c 0
 348.0495398 340.4958 419.1737398 378.421 488.7657398 399.967 c 0
 558.3574398 421.513 623.1317398 425.5831 671.6817398 398.37911 c 0
 694.3236398 385.69111 706.2041398 377.13441 711.5665398 366.53341 c 0
 716.9288198 355.93241 720.4895298 335.30371 707.8321598 288.98071 c 0
 704.1171498 275.38471 691.3492598 260.95141 667.1641598 247.95141 c 0
 642.9791598 234.95141 609.3955598 224.95851 575.0684598 219.44951 c 0
 540.7412598 213.94051 505.5174598 212.74255 478.3204598 215.07256 c 0
 451.1234598 217.40354 431.3854598 228.72286 436.3927598 223.7249 c 1
 429.6974598 230.40676 420.4583598 234.5406 410.2613598 234.5406 c 0
 400.0383598 234.5406 390.7678598 230.38598 384.0685598 223.6741 c 0
 377.3878398 216.97896 373.2547598 207.7407 373.2547598 197.5447 c 0
 373.2547598 187.3217 377.4093498 178.0512 384.1212598 171.3519 c 0
 409.2438598 146.2799 437.5407598 144.2971 472.0021598 141.3441 c 0
 506.4635598 138.39112 546.5171598 139.92309 586.7971598 146.38707 c 0
 627.0770598 152.85108 667.4230598 164.07887 702.1991598 182.77187 c 0
 736.9756598 201.46587 768.2081598 229.19787 779.2147598 269.47887 c 0
 794.3274598 324.78787 794.3718598 366.77877 777.5975798 399.93987 c 0
 760.8232798 433.10087 731.9387798 449.44777 707.8534798 462.94377 c 0
 633.0696798 504.84877 546.0794798 495.17957 466.8784798 470.65861 c 0
 418.9940798 455.83361 373.3693798 435.19201 331.9664798 414.51801 c 1
 356.1510798 510.46301 374.8950798 610.05401 369.8140798 717.34601 c 0
 368.8878118 736.90901 352.7362798 752.54081 332.9585798 752.59601 c 1
 332.959 752.596 l 1
EndSplineSet
EndChar

StartChar: "+MLAw6jDV 41"
Encoding: 41 12426 40
Width: 1024
LayerCount: 2
Fore
SplineSet
639.891 912.635 m 1
 636.51442 912.6156297 633.24863 912.13784 630.14296 911.26976 c 0
 614.55696 906.91381 603.11026 892.59816 603.11026 875.63006 c 0
 603.11026 872.1751 603.581692 868.84349 604.46914 865.67015 c 0
 708.30614 494.23315 623.74504 354.88315 563.86754 159.19315 c 0
 562.81868 155.76683 562.25424 152.1297 562.25424 148.36175 c 0
 562.25424 131.70745 573.27524 117.61675 588.42024 112.98215 c 0
 591.84593 111.93371 595.48232 111.36951 599.24944 111.36951 c 0
 615.90634 111.36951 629.99884 122.39401 634.63114 137.54271 c 0
 691.72484 324.13471 783.86714 498.78471 675.73274 885.59371 c 0
 671.40381 901.08521 657.23514 912.49601 640.40264 912.63471 c 0
 640.3158089 912.635310462 640.228907 912.635611185 640.141936 912.635611185 c 0
 640.054965 912.635611185 639.977751 912.635310462 639.89092 912.63471 c 1
 639.891 912.635 l 1
373.408 785.113 m 1
 373.408 785.111 l 1
 373.368859 785.111121903 373.3297038 785.1111829 373.290535 785.1111829 c 0
 373.2513657 785.1111829 373.2166714 785.111121903 373.17753 785.111 c 0
 356.19603 784.968165 341.92573 773.3493 337.73803 757.6462 c 0
 313.08293 665.1182 270.29643 558.2582 322.35323 438.4742 c 0
 328.05092 425.3705 341.11553 416.1979 356.30563 416.1979 c 0
 366.00742 416.1979 374.83703 419.96957 381.43913 426.08744 c 2
 476.04463 513.75544 l 2
 483.33748 520.51527 487.90473 530.17514 487.90473 540.89334 c 0
 487.90473 550.59442 484.14846 559.43904 478.03091 566.04054 c 0
 471.27086 573.33643 461.60891 577.90594 450.88811 577.90594 c 0
 441.18844 577.90594 432.34501 574.15069 425.74381 568.03472 c 2
 375.15591 521.14992 l 1
 363.72641 592.02992 388.20051 659.61192 409.24571 738.59292 c 0
 410.055441 741.63429 410.48706 744.82918 410.48706 748.12409 c 0
 410.48706 765.24699 398.82296 779.65269 383.01916 783.86439 c 0
 379.97485 784.675808 376.77662 785.10836 373.47817 785.10836 c 0
 373.4502375 785.10836 373.4357461 785.11250689 373.407828 785.11244488 c 1
 373.407828 785.11249488 l 1
 373.408 785.113 l 1
EndSplineSet
EndChar

StartChar: "+MLAw6jDV 42"
Encoding: 42 12427 41
Width: 1024
LayerCount: 2
Fore
SplineSet
564.756 872.598 m 2
 563.35705 872.5951817 562.01305 872.515984 560.65444 872.36167 c 2
 560.65444 872.36167 388.29444 852.86767 364.24444 851.16047 c 0
 345.05874 849.79962 329.89524 833.78367 329.89524 814.25407 c 0
 329.89524 813.360717 329.89301962 812.50678 329.9554117 811.6292 c 0
 331.3165217 792.4438 347.3323117 777.2805 366.8617117 777.2805 c 0
 367.7524107 777.2805 368.6037917 777.27809145 369.4788117 777.3401165 c 0
 390.3356117 778.8209365 446.6704117 785.0072565 496.5938117 790.6213165 c 1
 429.0906117 680.1543165 343.5238117 579.8683165 257.6138117 477.3693165 c 0
 244.2431117 465.3243165 233.3925117 454.2426165 225.2798117 444.2775165 c 0
 221.0162717 439.0406065 217.4553817 434.2671165 214.1626117 428.2814165 c 0
 212.5162117 425.2884065 210.8629417 422.0446365 209.4165217 416.9865165 c 0
 207.9700517 411.9283765 205.5972117 404.2523165 210.0590917 391.8732165 c 0
 215.2013617 377.6147165 228.8584917 367.4103165 244.8801917 367.4103165 c 0
 256.3661917 367.4103165 266.6134917 372.6442965 273.4027917 380.8673165 c 0
 285.6783917 395.7420165 298.3050917 410.6450165 310.7699917 425.4982165 c 0
 334.7447917 446.5823165 369.5142917 471.9933165 410.4633917 492.3185165 c 0
 494.3311917 533.9470165 597.3473917 554.7978165 698.1863917 486.8634365 c 0
 732.2230917 463.9330365 741.5164917 442.0141365 742.4558917 416.0196365 c 0
 743.3953317 390.0251365 732.2405917 358.0503365 712.9206917 327.8360365 c 0
 700.5535917 308.4950365 685.0144917 290.3702365 669.0729917 274.7520365 c 1
 656.3958917 285.3800365 639.3805917 299.3632365 619.2370917 314.8067365 c 0
 601.1489917 328.6745365 581.9733917 342.6029365 564.0065917 353.6856365 c 0
 555.0231817 359.2271765 546.4021917 364.0773365 537.4987917 367.9786365 c 0
 528.5953517 371.8798565 520.1597917 375.9104565 505.1276917 375.2051965 c 0
 463.3717917 373.2523165 433.4533917 348.8414965 411.0085917 328.4766965 c 0
 391.4179917 310.7015965 379.3019917 295.4293965 376.0476917 291.2578965 c 0
 366.4034617 282.7758865 357.7771917 271.2163965 355.4011917 256.1133965 c 0
 352.6572917 238.6719965 359.8827017 222.2225965 368.1784917 211.9180965 c 0
 384.7700917 191.3086965 405.8283917 182.1815965 430.2761917 173.3321965 c 0
 477.5844917 156.2078965 538.2641917 147.1921965 592.6331917 153.9688965 c 1
 629.4690917 150.3624665 656.7380917 169.2054965 686.9886917 192.1407965 c 0
 718.7598917 216.2288965 750.5574917 249.3403965 775.2601917 287.9727965 c 0
 799.9627917 326.6051965 818.1229917 371.1998965 816.4066917 418.6917965 c 0
 814.6903717 466.1830965 789.3628917 514.6657965 739.5316917 548.2367965 c 0
 638.3166917 616.4247965 530.6476917 612.8589965 441.3776917 584.0687965 c 1
 498.9031917 657.1285965 553.1776917 733.6797965 597.6236917 818.4147965 c 0
 600.3108017 823.5408365 601.8312117 829.3728965 601.8312117 835.5572965 c 0
 601.8312117 855.8379965 585.4952117 872.3677965 565.2682117 872.5964965 c 0
 565.1324217 872.5979662 564.9964567 872.59870294 564.8603207 872.59870294 c 0
 564.8225095 872.59870294 564.7942763 872.598610086 564.7564917 872.598496498 c 2
 564.7564917 872.598456498 l 1
 564.756 872.598 l 2
506.191 300.654 m 1
 506.191 300.652 l 2
 506.81485 300.48948 506.95188 300.5657 507.79842 300.19497 c 0
 511.75203 298.46244 518.02942 295.09762 525.15392 290.70278 c 0
 539.40292 281.91312 557.25062 269.07358 574.20662 256.07388 c 0
 585.91342 247.09826 595.43212 239.20558 605.20272 231.22618 c 1
 599.66209 229.11267 596.21271 227.88784 598.59726 227.51329 c 1
 596.71382 227.809234 594.78341 227.962888 592.81739 227.962888 c 0
 590.98987 227.962888 589.26623 227.8303 587.50937 227.57389 c 0
 549.66287 222.04935 491.43957 229.88942 455.46237 242.91179 c 0
 448.53518 245.41951 443.50567 248.27085 438.69087 250.92937 c 1
 443.64352 256.74341 450.67727 264.54267 460.73187 273.66567 c 0
 476.48287 287.95687 496.32437 298.85337 506.19087 300.65397 c 1
 506.19087 300.65396 l 1
 506.191 300.654 l 1
EndSplineSet
EndChar

StartChar: "+MLAw6jDV 43"
Encoding: 43 12428 42
Width: 1024
LayerCount: 2
Fore
SplineSet
340.141 863.896 m 1
 339.685129 863.8936704 339.25106 863.8835112 338.79921 863.8648 c 0
 338.466874 863.8475554 338.142851 863.8263751 337.81288 863.8004 c 1
 337.81288 863.8141 l 1
 318.58818 862.49339 303.38118 846.4596 303.38118 826.902 c 0
 303.38118 826.374196 303.3593544 825.87175 303.381285295 825.3493 c 2
 308.912535295 693.1793 l 1
 291.610735295 681.5108 271.126935295 667.7402 249.586335295 653.4215 c 0
 224.353835295 636.6491 198.722435295 619.8191 178.922235295 607.2477 c 0
 169.022135295 600.96159 160.535835295 595.7181 154.644935295 592.2731 c 0
 151.802085295 590.60973 149.621565295 589.41947 148.488685295 588.83364 c 0
 134.021885295 583.80534 123.626285295 570.04394 123.626285295 553.87364 c 0
 123.626285295 551.80312 123.805580295 549.81771 124.133184295 547.83946 c 0
 127.037724295 530.30806 142.285284295 516.92186 160.634784295 516.92186 c 0
 162.705784295 516.92186 164.703344295 517.056665 166.682034295 517.384417 c 0
 179.123434295 519.445007 178.742634295 521.182667 181.945734295 522.819957 c 0
 185.148814295 524.456877 188.349414295 526.260757 192.004334295 528.398087 c 0
 199.314314295 532.673867 208.272434295 538.227447 218.588334295 544.776987 c 0
 232.888934295 553.857307 251.013134295 565.868887 268.465234295 577.370787 c 1
 249.788534295 542.128587 246.251234295 535.668087 224.441834295 494.239887 c 0
 196.516334295 441.193487 168.856034295 388.337887 148.617634295 348.936887 c 0
 138.498434295 329.236487 130.264034295 312.953487 124.621534295 301.366587 c 0
 121.800384295 295.572567 119.674944295 291.112287 117.967244295 287.126387 c 0
 117.113334295 285.134197 116.437064295 283.879757 115.232864295 279.669357 c 0
 114.630784295 277.563787 111.544324295 277.930427 114.258254295 262.462357 c 0
 114.936794295 258.594767 116.258824295 252.871557 121.467244295 246.143957 c 0
 126.675654295 239.417157 137.112944295 233.243257 145.934044295 232.079557 c 0
 163.570144295 229.754387 169.064844295 236.322567 172.371544295 238.677207 c 0
 179.823074295 243.974597 176.917204295 242.386397 178.422334295 243.778777 c 0
 179.927524295 245.171907 181.795994295 246.928447 184.117644295 249.132287 c 0
 188.760944295 253.540727 195.171144295 259.689587 203.174244295 267.397887 c 0
 219.180544295 282.816487 241.501244295 304.432987 268.041444295 330.200587 c 0
 283.905744295 345.602487 303.494044295 364.669587 321.912544295 382.585387 c 1
 329.805124295 193.980387 l 2
 330.627628295 174.285287 346.876724295 158.547787 366.772524295 158.547787 c 0
 367.298966295 158.547787 367.799634295 158.5347305 368.320754295 158.55654888 c 0
 388.013054295 159.38209988 403.747354295 175.62994888 403.747354295 195.52364888 c 0
 403.747354295 196.04951188 403.760500695 196.54962888 403.738730035 197.07017888 c 2
 393.074630035 451.84517888 l 1
 415.496030035 473.68437888 437.751530035 495.35597888 460.728930035 517.75537888 c 0
 551.583230035 606.32557888 589.826930035 643.71037888 641.734930035 694.39637888 c 1
 628.249130035 640.94067888 616.794230035 580.68337888 618.412630035 519.00537888 c 0
 621.570200035 398.66737888 684.441930035 271.65337888 866.810630035 200.67137888 c 0
 870.967240035 199.05329888 875.487500035 198.16531888 880.213530035 198.16531888 c 0
 895.908830035 198.16531888 909.339730035 207.92550888 914.713030035 221.73001888 c 0
 916.331110035 225.88662888 917.219090035 230.40688888 917.219090035 235.13291888 c 0
 917.219090035 250.82821888 907.458900035 264.25911888 893.654390035 269.63241888 c 0
 731.854390035 332.60881888 694.990390035 421.71541888 692.386390035 520.94341888 c 0
 689.782600035 620.17151888 731.449390035 727.20341888 748.646190035 807.36341888 c 0
 749.183488035 809.87133888 749.466327035 812.47317888 749.466327035 815.14055888 c 0
 749.466327035 835.56345888 732.885527035 852.14435888 712.462527035 852.14435888 c 0
 711.549158035 852.14435888 710.677787035 852.08684258 709.780927035 852.02165488 c 0
 700.807367035 851.36933088 692.676327035 847.51287488 686.611027035 841.59005488 c 2
 686.611027035 841.59005488 548.368027035 706.54305488 409.068027035 570.74605488 c 0
 401.969697035 563.82649488 395.742127035 557.77125488 388.919627035 551.12495488 c 1
 385.208687035 639.81245488 l 1
 391.146707035 650.97795488 402.493887035 672.33975488 402.493887035 672.33975488 c 2
 405.248067035 677.51484488 406.809167035 683.41965488 406.809167035 689.68625488 c 0
 406.809167035 705.97865488 396.286967035 719.85415488 381.650167035 724.78895488 c 1
 377.314227035 828.44695488 l 2
 376.488418035 848.13905488 360.240727035 863.87305488 340.347127035 863.87305488 c 0
 340.277016635 863.87305488 340.210437035 863.89656788 340.140417035 863.89617748 c 1
 340.141 863.896 l 1
316.566 510.252 m 1
 317.75545 481.8497 l 1
 306.75305 471.1461 295.72985 460.4187 284.62655 449.6153 c 1
 286.57826 453.32567 287.96849 456.05672 289.92538 459.7735 c 0
 298.95736 476.9307 307.72308 493.5106 316.56598 510.252 c 1
 316.566 510.252 l 1
EndSplineSet
EndChar

StartChar: "+MLAw6jDV 44"
Encoding: 44 12429 43
Width: 1024
LayerCount: 2
Fore
SplineSet
569.727 832.613 m 2
 567.9306 832.60710916 566.19891 832.474184 564.47114 832.22042 c 2
 383.17214 805.69892 l 2
 365.30374 803.08464 351.56554 787.67892 351.56554 769.08992 c 0
 351.56554 767.25807 351.6605699 765.49299 351.918199 763.73216 c 0
 354.531789 745.86296 369.937799 732.12396 388.527499 732.12396 c 0
 390.358589 732.12396 392.122929 732.2188742 393.883059 732.476294 c 2
 492.004159 746.835694 l 1
 412.417159 638.231694 314.379159 546.991694 211.559159 457.435694 c 0
 203.787969 450.650204 198.875059 440.671694 198.875059 429.554894 c 0
 198.875059 409.131994 215.455859 392.551094 235.878859 392.551094 c 0
 242.859729 392.551094 249.449659 394.519144 255.024059 397.884924 c 0
 315.277659 434.359624 374.498059 474.675824 434.522059 498.204924 c 0
 494.546259 521.734324 553.219059 529.764624 621.924059 504.458824 c 0
 714.087059 470.518324 745.012059 432.117424 750.149059 406.462724 c 0
 755.285059 380.808024 739.577159 350.215124 700.815059 321.277124 c 0
 662.052959 292.338824 603.810759 270.189324 546.409059 266.103324 c 0
 489.007159 262.017274 433.968059 275.124434 393.944059 310.484224 c 0
 387.418849 316.248964 378.846959 319.749114 369.464159 319.749114 c 0
 358.424859 319.749114 348.497259 314.927664 341.715559 307.249814 c 0
 335.951409 300.724744 332.451649 292.153314 332.451649 282.771014 c 0
 332.451649 271.732214 337.272679 261.804914 344.949949 255.023314 c 0
 403.262749 203.506114 479.592949 187.162514 551.664949 192.292814 c 0
 623.737549 197.423144 693.075949 223.150114 745.084949 261.978414 c 0
 797.094249 300.806614 835.350349 357.871314 822.713849 420.990414 c 0
 810.077349 484.108914 751.491549 535.603414 647.496849 573.900414 c 0
 577.138249 599.815514 510.425849 597.346814 449.978849 580.927754 c 1
 505.373449 640.022954 557.011849 703.944754 601.365849 776.267754 c 0
 604.812369 781.888914 606.799989 788.499354 606.799989 795.570354 c 0
 606.799989 815.993254 590.219189 832.574154 569.796189 832.574154 c 0
 569.7647624 832.574154 569.7585538 832.6135714 569.7271455 832.613493 c 2
 569.727 832.613 l 2
EndSplineSet
EndChar

StartChar: "+MLAw6jDV 45"
Encoding: 45 12431 44
Width: 1024
LayerCount: 2
Fore
SplineSet
381.463 921.666 m 1
 381.463 921.664 l 1
 381.3956996 921.664360589 381.328357 921.664541112 381.260973 921.664541112 c 0
 381.1935885 921.664541112 381.133821 921.664360589 381.06652 921.664 c 0
 362.03802 921.48935 346.41462 906.8826 344.58412 888.291 c 0
 338.1826 823.247 335.72288 756.747 335.61928 689.486 c 1
 165.89828 585.088 l 2
 155.30928 578.5754 148.24238 566.8806 148.24238 553.5482 c 0
 148.24238 546.45701 150.30436 539.813 153.76936 534.1817 c 0
 160.28238 523.5946 171.97606 516.5293 185.30696 516.5293 c 0
 192.39577 516.5293 199.03766 518.58993 204.66776 522.05279 c 2
 275.43726 565.58399 l 1
 148.75726 295.96899 l 2
 146.52643 291.20923 145.27968 285.89789 145.27968 280.29769 c 0
 145.27968 259.87479 161.86048 243.29389 182.28348 243.29389 c 0
 191.55368 243.29389 200.03118 246.68521 206.52678 252.32633 c 0
 254.56878 294.13233 300.59478 342.99783 345.67678 390.18133 c 1
 350.11496 305.52433 354.73285 221.17833 356.57918 138.51933 c 0
 357.026945 118.48623 373.43008 102.36033 393.56988 102.36033 c 0
 393.850562 102.36033 394.11641 102.3490317 394.395608 102.3552629 c 0
 414.428608 102.8030919 430.554508 119.2061629 430.554508 139.3459629 c 0
 430.554508 139.6246569 430.5658504 139.8886139 430.55970693 140.1658439 c 0
 428.17255693 247.0398439 421.51458693 355.2988439 416.36630693 462.1388439 c 1
 428.83680693 474.2128439 441.27660693 485.7910439 453.71010693 496.6740439 c 0
 493.71760693 531.6950439 533.32650693 559.2318439 571.45810693 574.1838439 c 0
 608.83080693 588.8388439 643.97800693 592.1700439 682.87410693 580.7170539 c 1
 755.17100693 546.1270539 787.78610693 510.1376539 799.13810693 481.2756539 c 0
 810.63900693 452.0316539 804.94062693 425.4792539 787.05410693 397.4611539 c 0
 769.16760693 369.4441539 738.03340693 343.2631539 706.81970693 327.3771539 c 0
 675.60600693 311.4921539 644.41470693 308.1840539 633.99740693 311.3810539 c 0
 630.56428693 312.4344839 626.91922693 313.0014839 623.14280693 313.0014839 c 0
 606.50010693 313.0014839 592.41730693 301.9961839 587.77280693 286.8673839 c 0
 586.71912693 283.4339039 586.15199693 279.7884239 586.15199693 276.0114839 c 0
 586.15199693 259.3679839 597.15839693 245.2844839 612.28839693 240.6407839 c 0
 654.45049693 227.7007839 698.39449693 240.0560339 740.37839693 261.4220839 c 0
 782.36209693 282.7890839 822.48589693 315.4428839 849.42339693 357.6368839 c 0
 876.36089693 399.8308839 889.05149693 454.8605839 868.01129693 508.3598839 c 0
 846.97109693 561.8578839 796.45759693 609.2028839 711.88429693 649.0378839 c 0
 710.33689693 649.7657719 708.69779693 650.4021939 707.04249693 650.9128839 c 0
 650.56489693 668.3568839 594.72749693 662.7968839 544.44849693 643.0808539 c 0
 496.96619693 624.4628539 453.64559693 594.1137539 412.26849693 558.6667539 c 1
 408.38771693 669.7477539 408.12031693 778.3087539 418.23138693 881.0437539 c 0
 418.34989893 882.2480939 418.41056393 883.4693139 418.41056393 884.7045939 c 0
 418.41056393 903.8889939 403.73956393 919.6467939 385.03606393 921.4890939 c 0
 383.84802393 921.6059749 382.68001393 921.6652399 381.46184393 921.6668339 c 1
 381.463 921.666 l 1
339.133 527.133 m 1
 339.60877 515.216 340.10861 503.2934 340.64667 491.3654 c 1
 328.78257 479.4244 317.01477 467.3064 305.31267 455.1564 c 1
 339.133 527.133 l 1
EndSplineSet
EndChar

StartChar: "+MLAw6jDV 46"
Encoding: 46 12434 45
Width: 1024
LayerCount: 2
Fore
SplineSet
432.334 893.486 m 1
 432.184387 893.48031843 432.039796 893.4739567 431.89064 893.4665 c 0
 411.97944 892.881966 395.99424 876.5343 395.99424 856.4826 c 0
 395.99424 856.113932 395.9814341 855.764211 395.99216642 855.39812 c 0
 397.20508642 814.20412 396.97513642 774.26712 394.51364642 736.06412 c 1
 357.56114642 740.85812 321.98864642 748.68042 287.61864642 757.75942 c 0
 284.59838642 758.557115 281.42736642 758.9821 278.15787642 758.9821 c 0
 278.02477142 758.9821 277.91157942 758.9854345 277.77880442 758.98402928 c 0
 260.80470442 758.80476628 246.55240442 747.15892928 242.39790442 731.44102928 c 0
 241.59908742 728.41878928 241.17348442 725.24554928 241.17348442 721.97367928 c 0
 241.17348442 704.82197928 252.87768442 690.39687928 268.72208442 686.21247928 c 0
 305.50238442 676.49747928 344.81618442 667.84357928 386.45108442 662.54057928 c 1
 375.57468442 595.19247928 354.89698442 535.15157928 319.12488442 485.62657928 c 0
 314.73275442 479.54221928 312.14367442 472.07187928 312.14367442 464.00167928 c 0
 312.14367442 443.57877928 328.72447442 426.99787928 349.14747442 426.99787928 c 0
 357.77976442 426.99787928 365.73367442 429.94136928 372.03117442 434.90392928 c 0
 413.01587442 467.22092928 458.62327442 484.37382928 493.27717442 482.73982928 c 1
 459.60227442 458.18582928 429.66377442 430.96822928 405.35337442 402.72612928 c 0
 367.36297442 358.59212928 340.74697442 310.54512928 345.55257442 258.97812928 c 0
 347.95527442 233.19412928 359.99847442 207.64632928 380.04087442 188.30432928 c 0
 400.08317442 168.96232928 426.93667442 155.27142928 460.12677442 145.84342928 c 0
 495.81587442 135.70742928 548.34927442 130.94172928 603.43177442 130.54072928 c 0
 658.51387442 130.13873928 712.33777442 133.03887928 753.32777442 149.74192928 c 0
 766.85017442 155.25041928 776.39217442 168.53152928 776.39217442 184.02372928 c 0
 776.39217442 188.95314928 775.38738442 193.66593928 773.63441442 197.96852928 c 0
 768.12410442 211.48702928 754.84501442 221.02562928 739.35561442 221.02562928 c 0
 734.42578442 221.02562928 729.71265442 220.02062928 725.40981442 218.26738928 c 0
 706.65661442 210.62638928 654.31471442 204.16988928 603.97081442 204.53688928 c 0
 553.62631442 204.90387928 501.46581442 211.02813928 480.34581442 217.02708928 c 0
 455.38411442 224.11710928 439.95831442 233.33128928 431.43371442 241.55828928 c 0
 422.90922442 249.78529928 420.10471442 256.46348928 419.23061442 265.84348928 c 0
 417.48231442 284.60448928 430.59581442 318.62278928 461.44151442 354.45678928 c 0
 486.20131442 383.21978928 520.87281442 412.23408928 560.26961442 437.61298928 c 1
 573.31811442 414.30198928 583.93611442 378.63668928 587.42781442 327.91798928 c 0
 588.75244442 308.69708928 604.78451442 293.49428928 624.33941442 293.49428928 c 0
 625.20299442 293.49428928 626.02817442 293.49051057 626.87705442 293.54884638 c 0
 646.09795442 294.87347638 661.30075442 310.90554638 661.30075442 330.46044638 c 0
 661.30075442 331.32402638 661.30453313 332.14920638 661.24619732 332.99808638 c 0
 657.22920732 391.34708638 645.07749732 437.68808638 624.86139732 473.72308638 c 1
 666.54829732 493.67608638 710.15399732 508.28578638 750.93539732 513.98678638 c 0
 768.91759732 516.50034638 782.77569732 531.95918638 782.77569732 550.62928638 c 0
 782.77569732 552.38069638 782.69273192 554.06753638 782.45686332 555.75438638 c 0
 779.94500332 573.73848638 764.48526332 587.59858638 745.81386332 587.59858638 c 0
 745.57078332 587.59858638 745.33948832 587.63401488 745.09751932 587.62933808 c 0
 743.59648932 587.59831518 742.14151932 587.47890608 740.68930932 587.27386808 c 0
 683.43910932 579.27086808 625.71330932 559.27326808 572.57430932 531.75626808 c 1
 559.89030932 540.33824808 546.25580932 546.77286808 532.10750932 550.89686808 c 0
 499.67990932 560.34984808 466.48620932 558.62910808 434.16410932 549.80311808 c 1
 446.33040932 584.12411808 454.79960932 620.07751808 460.50790932 657.16011808 c 1
 497.55960932 656.59211808 536.15990932 659.30492808 576.19890932 666.66792808 c 0
 593.41410932 669.83401808 606.47460932 684.93242808 606.47460932 703.05732808 c 0
 606.47460932 705.35327808 606.29718432 707.56924808 605.89613832 709.74996808 c 0
 602.73141832 726.96676808 587.63213832 740.02906808 569.50613832 740.02906808 c 0
 567.21109832 740.02906808 564.99600832 739.85182908 562.81608832 739.45109108 c 0
 530.35418832 733.48209108 498.91328832 730.98447108 468.39418832 731.06047108 c 1
 471.07039832 772.49047108 471.21612832 814.86607108 469.95863832 857.57647108 c 0
 469.37238632 877.48617108 453.02543832 893.46947108 432.97483832 893.46947108 c 0
 432.88775242 893.46947108 432.80533832 893.48719328 432.71839332 893.48659118 c 0
 432.65307832 893.486930796 432.58772332 893.487100812 432.52232932 893.487100812 c 0
 432.45693512 893.487100812 432.39893832 893.486930796 432.33362332 893.48659118 c 1
 432.334 893.486 l 1
EndSplineSet
EndChar

StartChar: "+MLAw6jDV 47"
Encoding: 47 12435 46
Width: 1024
LayerCount: 2
Fore
SplineSet
450.879 862.34 m 1
 450.8598958 862.339339579 450.8414969 862.33868944 450.8224 862.338 c 0
 435.922 862.195811 423.1283 853.25693 417.3986 840.4435 c 0
 311.2846 603.0605 196.6136 431.4015 84.1426 222.9865 c 0
 81.33658 217.77428 79.74397 211.8138 79.74397 205.4843 c 0
 79.74397 185.0614 96.32477 168.4805 116.74777 168.4805 c 0
 127.04457 168.4805 136.34577 172.6504 143.05667 179.4474 c 2
 407.20267 447.5434 l 2
 413.66305 454.10043 416.63276 456.14408 417.82967 456.81879 c 1
 417.91967 456.38304 423.35453 453.16023 431.23197 441.29149 c 0
 449.66847 413.51349 472.54167 353.88889 500.44287 288.88349 c 0
 531.94637 215.48279 609.41787 173.20549 692.27687 164.01249 c 0
 775.13547 154.81879 867.95687 179.09799 934.15187 249.02229 c 0
 940.42635 255.65329 944.27627 264.60169 944.27627 274.44219 c 0
 944.27627 285.01979 939.83873 294.57709 932.71247 301.32299 c 0
 926.08107 307.59966 917.13107 311.45109 907.28857 311.45109 c 0
 896.71297 311.45109 887.15737 307.01522 880.41167 299.89139 c 0
 832.20417 248.96759 763.13467 230.60899 700.44067 237.56519 c 0
 637.74777 244.52141 585.99567 277.17969 568.44467 318.07299 c 0
 541.50687 380.83319 520.88927 440.02099 492.88417 482.21599 c 0
 478.88177 503.31329 461.57307 523.57789 432.86267 529.63009 c 0
 404.15187 535.68224 375.70067 521.01179 354.48967 499.48359 c 2
 286.84907 430.83129 l 1
 353.69757 546.99129 420.64207 666.36929 484.95607 810.24529 c 0
 487.01371 814.84894 488.15802 819.94871 488.15802 825.31359 c 0
 488.15802 840.36739 479.1968 853.34449 466.28032 859.12029 c 0
 461.67589 861.17878 456.57506 862.32358 451.20892 862.32358 c 0
 451.10651 862.32358 450.980147 862.3418238 450.877932 862.3409915 c 1
 450.879 862.34 l 1
EndSplineSet
EndChar

StartChar: "+MLAw6jDV 48"
Encoding: 48 12364 47
Width: 1024
LayerCount: 2
Fore
SplineSet
342.422 910.535 m 1
 342.422 910.525 l 1
 324.0706 910.376877 308.878 896.804 306.1544 879.1756 c 0
 292.6309 791.5736 278.1289 705.6626 261.2794 624.4766 c 1
 161.2774 619.79887 l 2
 141.668 618.883575 126.0281 602.67367 126.0281 582.83957 c 0
 126.0281 582.250528 126.0157796 581.68979 126.0430629 581.10745 c 0
 126.9602479 561.49985 143.1693629 545.86185 163.0021629 545.86185 c 0
 163.5925929 545.86185 164.1546629 545.8495544 164.7383629 545.8769657 c 2
 244.7031629 549.6211057 l 1
 216.8491629 432.1081057 182.6376629 327.5821057 137.2711629 246.6481057 c 0
 134.2776229 241.3072257 132.5704129 235.1499057 132.5704129 228.5969057 c 0
 132.5704129 214.7313057 140.1511829 202.6209057 151.4508129 196.2848057 c 0
 156.7916029 193.2913857 162.9488129 191.5842557 169.5016129 191.5842557 c 0
 183.3703129 191.5842557 195.4831129 199.1684557 201.8179129 210.4723557 c 0
 255.3915129 306.0473557 292.7880129 423.9343557 322.1149129 553.2433557 c 1
 480.8749129 560.6749957 l 1
 483.6861629 555.5529857 486.9665829 545.8171957 489.0096829 538.2061957 c 0
 514.8076829 442.1131957 511.8898829 367.0401957 495.3592929 317.0631957 c 0
 483.1016929 280.0061957 464.6848929 257.5759957 444.6014929 245.9479957 c 1
 408.9979929 296.0358957 l 2
 402.2899129 305.4704457 391.2701929 311.6298957 378.8231929 311.6298957 c 0
 370.8508229 311.6298957 363.4495929 309.0485757 357.4061929 304.7526857 c 0
 347.9688229 298.0449457 341.8071929 287.0234857 341.8071929 274.5742857 c 0
 341.8071929 266.6000357 344.3897129 259.1971857 348.6874529 253.1530857 c 2
 400.7812529 179.8737857 l 2
 407.4903829 170.4414757 418.5093529 164.2838857 430.9550529 164.2838857 c 0
 433.6226529 164.2838857 436.1793529 164.6020697 438.6874729 165.1394537 c 0
 496.6980729 177.5594537 543.1244729 225.8369537 565.6134729 293.8274537 c 0
 588.1023729 361.8174537 589.1039729 450.7874537 560.4826129 557.3974537 c 0
 558.0918329 566.3034537 554.1830229 581.7230537 544.9435129 597.9111537 c 0
 540.3237929 606.0051237 534.2463129 614.6825537 524.3986129 622.2705537 c 0
 514.5508629 629.8575437 499.7784129 635.6423537 484.7578129 634.9443537 c 2
 337.9898129 628.0752137 l 1
 353.4298129 705.5662137 366.6764129 786.2012137 379.2867129 867.8872137 c 0
 379.5730969 869.7408337 379.7216939 871.6396937 379.7216939 873.5729837 c 0
 379.7216939 892.0630837 366.0920939 907.3683837 348.3628939 910.1039837 c 0
 346.5151339 910.3885047 344.6224639 910.5361157 342.6955939 910.5361157 c 0
 342.5900689 910.5361157 342.5268089 910.53455734 342.4214909 910.53367367 c 1
 342.4216809 910.53367367 l 1
 342.422 910.535 l 1
842.266 859.684 m 1
 842.266 859.682 l 1
 842.2179181 859.682212765 842.1698114 859.682319259 842.12168 859.682319259 c 0
 842.0735486 859.682319259 842.0308819 859.682212765 841.9828 859.682 c 0
 838.38298 859.6538559 834.91045 859.020578 831.6859 857.89489 c 0
 819.198 853.533 810.2292 841.64329 810.2292 827.67529 c 0
 810.2292 823.98216 810.874443 820.43497 812.02768 817.13309 c 0
 822.96688 785.82209 831.89978 758.76389 831.73668 722.22489 c 0
 831.736469055 722.1770141 831.736363473 722.1291135 831.736363473 722.081188 c 0
 831.736363473 704.466988 846.001463473 690.160288 863.597963473 690.084288 c 0
 863.645853873 690.084076927 863.693768973 690.08397128 863.741708473 690.08397128 c 0
 881.352008473 690.08397128 895.656108473 704.34287128 895.738608473 721.93387128 c 0
 895.950638473 769.42887128 883.595908473 806.32957128 872.447608473 838.23887128 c 0
 868.087918473 850.71707128 856.220808473 859.67217128 842.266008473 859.68417128 c 1
 842.266008473 859.68422128 l 1
 842.266 859.684 l 1
546.178 810.498 m 1
 546.178 810.496 l 1
 546.0875301 810.496651888 545.996983 810.496978389 545.906361 810.496978389 c 0
 545.8157387 810.496978389 545.73527 810.496651888 545.6448 810.496 c 0
 537.52422 810.4139308 529.9881 807.69229 523.9202 803.17374 c 0
 514.85977 796.42692 508.9868 785.63374 508.9868 773.47964 c 0
 508.9868 765.21061 511.75476 757.55794 516.34597 751.39444 c 0
 581.41687 664.02644 638.31697 570.00544 682.99197 464.90644 c 0
 688.62489 451.65724 701.76467 442.35684 717.05947 442.35684 c 0
 722.18337 442.35684 727.07447 443.44393 731.51337 445.3303 c 0
 744.76327 450.96289 754.06437 464.103 754.06437 479.3984 c 0
 754.06437 484.52357 752.97676 489.4158 751.08951 493.8557 c 0
 703.77721 605.1587 643.61251 704.4017 575.68951 795.5997 c 0
 568.97314 804.61731 558.26301 810.4452 546.17781 810.4981 c 1
 546.17781 810.49814 l 1
 546.178 810.498 l 1
726.146 793.93 m 2
 726.1394772 793.930003912 726.1329539 793.930005869 726.1264302 793.930005869 c 0
 719.5794002 793.930005869 713.4570302 791.940495869 708.3843302 788.560855869 c 0
 699.7751302 782.823235869 694.0984302 773.026055869 694.0984302 761.913555869 c 0
 694.0984302 755.362985869 696.1224002 749.256255869 699.5053802 744.181955869 c 0
 713.0392802 723.871955869 723.2689802 693.037955869 728.8549802 653.806955869 c 0
 731.0631502 638.293455869 744.4148802 626.348755869 760.5344802 626.348755869 c 0
 762.0746302 626.348755869 763.5582302 626.424266469 765.0405402 626.635044869 c 0
 780.5553402 628.842044869 792.5014402 642.194444869 792.5014402 658.314944869 c 0
 792.5014402 659.856984869 792.4256664 661.342424869 792.2143802 662.826474869 c 0
 785.8005302 707.872474869 774.1545802 747.577074869 752.7651802 779.676474869 c 0
 747.0292302 788.283434869 737.2547802 793.927174869 726.1460802 793.930374869 c 1
 726.146 793.93 l 2
EndSplineSet
EndChar

StartChar: "+MLAw6jDV 49"
Encoding: 49 12366 48
Width: 1024
LayerCount: 2
Fore
SplineSet
789.123 951.631 m 1
 784.71655 951.5982269 780.4927 950.657706 776.6796 949.01186 c 0
 765.3069 944.10239 757.3387 932.78306 757.3387 919.61736 c 0
 757.3387 915.1224 758.306311 910.83426 759.98228 906.95136 c 2
 802.98028 807.32436 l 2
 807.88921 795.95036 819.20918 787.98116 832.37578 787.98116 c 0
 836.8711 787.98116 841.15958 788.948908 845.04278 790.62513 c 0
 856.41588 795.53444 864.38438 806.85403 864.38438 820.01993 c 0
 864.38438 824.51552 863.416508 828.80425 861.74009 832.68763 c 2
 818.74209 932.31263 l 2
 813.86295 943.61723 802.66139 951.53483 789.59759 951.63103 c 0
 789.5170651 951.631627173 789.43647 951.631926284 789.355805 951.631926284 c 0
 789.2751404 951.631926284 789.203505 951.631627173 789.12298 951.63103 c 1
 789.123 951.631 l 1
677.533 901.811 m 1
 671.9746 901.80764957 666.7117 900.36402 662.1561 897.86373 c 0
 652.24524 892.42332 645.5209 881.88683 645.5209 869.79223 c 0
 645.5209 864.22508 646.99937 858.97443 649.50379 854.41253 c 2
 711.85139 740.84253 l 2
 717.29313 730.93622 727.82709 724.21563 739.91829 724.21563 c 0
 745.4865 724.21563 750.73809 725.69466 755.30059 728.19997 c 0
 765.21137 733.64041 771.93569 744.17677 771.93569 756.27137 c 0
 771.93569 761.83696 770.45802 767.08627 767.9549 771.64717 c 2
 705.6072 885.21717 l 2
 700.16555 895.12379 689.6314 901.84467 677.54 901.84467 c 0
 677.53081738 901.84467 677.54219872 901.810943 677.5330179 901.8109353 c 2
 677.533 901.811 l 1
387.469 881.139 m 1
 387.469 881.135 l 1
 387.4252677 881.135152193 387.3815176 881.135228352 387.33775 881.135228352 c 0
 379.60653 881.135228352 372.39215 878.737508352 366.45335 874.676008352 c 0
 356.70646 868.009558352 350.30505 856.803708352 350.30505 844.114608352 c 0
 350.30505 836.385578352 352.73777 829.191908352 356.79715 823.254108352 c 2
 408.56475 747.562708352 l 1
 381.67695 742.529708352 355.56095 737.666148352 334.59995 733.836108352 c 0
 320.34885 731.232108352 308.28515 729.066288352 299.68395 727.578288352 c 0
 295.38335 726.834298352 291.92999 726.262318352 289.67415 725.910328352 c 0
 288.80315 725.773318352 287.49146 725.726258352 286.55696 725.705248352 c 1
 287.21456 725.705248352 288.38072 725.714248352 290.06282 725.724748352 c 1
 269.88642 725.440318352 253.58442 708.972148352 253.58432 688.728648352 c 0
 253.58432 668.307748352 270.16932 651.724748352 290.59022 651.724748352 c 0
 301.12352 651.724748352 298.12914 652.331058352 301.10192 652.795058352 c 0
 304.07482 653.260058352 307.78079 653.882198352 312.29922 654.664198352 c 0
 321.33602 656.226198352 333.53072 658.421008352 347.90272 661.047018352 c 0
 376.64682 666.300008352 414.04002 673.275018352 451.16072 680.254018352 c 0
 452.2019 680.450018352 453.16893 680.634188352 454.20954 680.830188352 c 2
 501.11974 612.240288352 l 1
 211.08674 543.412188352 l 2
 194.79064 539.543138352 182.65334 524.883088352 182.65334 507.410588352 c 0
 182.65334 504.463388352 182.981281 501.618058352 183.633648 498.869188352 c 0
 187.500038 482.569388352 202.161848 470.428388352 219.636948 470.428388352 c 0
 222.583528 470.428388352 225.428268 470.756124352 228.176608 471.408223352 c 2
 545.871608 546.804723352 l 1
 602.482908 464.033223352 l 1
 521.975908 469.217223352 452.775908 465.581093352 396.888908 455.455103352 c 0
 323.297208 442.120103352 269.569908 422.596903352 244.200908 376.298903352 c 0
 223.801008 339.067903352 216.267908 299.997703352 225.304408 264.138903352 c 0
 234.340808 228.279903352 259.110808 198.764503352 291.710608 177.572503352 c 0
 356.910308 135.187503352 454.975608 118.555403352 577.921608 124.828403352 c 0
 597.454108 125.826180352 613.006908 142.001003352 613.006908 161.779703352 c 0
 613.006908 162.420692352 613.0183784 163.031353352 612.9861026 163.664373352 c 0
 611.9873426 183.195873352 595.8130026 198.747673352 576.0349026 198.747673352 c 0
 575.3938796 198.747673352 574.7831926 198.759160652 574.1501326 198.726881452 c 0
 460.5651326 192.931881452 374.5751326 211.964481452 332.0391326 239.617481452 c 0
 310.7707326 253.443481452 300.7543326 267.544081452 297.0567326 282.217081452 c 0
 293.3591326 296.891081452 295.1464026 315.269481452 309.1036326 340.742481452 c 0
 311.8712326 345.793481452 346.3609326 371.092981452 410.0806326 382.638981452 c 0
 473.7997326 394.183981452 563.7506326 396.864581452 672.9496326 383.033511452 c 0
 674.4845326 382.839175452 676.0486226 382.739017452 677.6359226 382.739017452 c 0
 698.0588226 382.739017452 714.6397226 399.319817452 714.6397226 419.742817452 c 0
 714.6397226 427.471397452 712.2055526 434.687517452 708.1469326 440.625317452 c 2
 623.0063326 565.113317452 l 1
 757.0963326 596.935617452 l 2
 773.3961326 600.802007452 785.5371326 615.463817452 785.5371326 632.938917452 c 0
 785.5371326 635.885497452 785.2093966 638.730237452 784.5572976 641.478577452 c 0
 780.6899176 657.776977452 766.0287976 669.916677452 748.5545976 669.916677452 c 0
 748.4790662 669.916677452 748.4100266 669.936098652 748.3346016 669.935645652 c 0
 745.4674216 669.916773952 742.6920816 669.568821652 740.0142916 668.931735652 c 2
 578.2542916 630.545035652 l 1
 533.6038916 695.834135652 l 1
 570.8114916 702.890135652 598.5335916 708.174035652 598.5335916 708.174035652 c 2
 615.6283916 711.437015652 628.5660916 726.478435652 628.5660916 744.517835652 c 0
 628.5660916 746.896685652 628.3716736 749.193025652 627.9418466 751.447475652 c 0
 624.6811666 768.545175652 609.6383466 781.485775652 591.5969466 781.485775652 c 0
 591.4054956 781.485775652 591.2244146 781.514867752 591.0336486 781.511963852 c 0
 588.8525586 781.477101052 586.7367586 781.253121852 584.6625586 780.855713852 c 2
 584.6625586 780.855713852 541.4975586 772.622053852 488.0004586 762.508013852 c 1
 417.8832586 865.034013852 l 2
 411.2380186 874.745573852 400.1045586 881.097913852 387.4691586 881.139513852 c 1
 387.469 881.139 l 1
EndSplineSet
EndChar

StartChar: "+MLAw6jDV 50"
Encoding: 50 12370 49
Width: 1024
LayerCount: 2
Fore
SplineSet
719.043 972.395 m 2
 717.67345 972.3801573 716.35069 972.280233 715.02737 972.09813 c 0
 699.41217 969.98072 687.36007 956.58153 687.36007 940.38953 c 0
 687.36007 938.92081 687.4252504 937.50669 687.617238 936.09026 c 2
 707.269538 791.15426 l 2
 709.386948 775.53906 722.786138 763.48696 738.978138 763.48696 c 0
 740.446848 763.48696 741.860978 763.5521398 743.277398 763.744126 c 0
 758.891798 765.862256 770.943098 779.261126 770.943098 795.452426 c 0
 770.943098 796.921896 770.8778133 798.336746 770.685633 799.753866 c 2
 751.035233 944.689866 l 2
 748.920523 960.308066 735.519933 972.363366 719.325833 972.363366 c 0
 719.2301064 972.363366 719.138564 972.3957725 719.043034 972.3949318 c 2
 719.043 972.395 l 2
835.463 956.449 m 2
 835.45530665 956.449005442 835.4476127 956.449008164 835.4399181 956.449008164 c 0
 832.8041381 956.449008164 830.2579081 956.127278164 827.8067481 955.525170164 c 0
 813.8313481 952.094520164 803.4507481 939.472670164 803.4507481 924.445570164 c 0
 803.4507481 921.815340164 803.7559741 919.276370164 804.3556281 916.829910164 c 2
 825.8517281 829.156110164 l 2
 829.2810781 815.178810164 841.9037281 804.796410164 856.9322281 804.796410164 c 0
 859.5649181 804.796410164 862.1062781 805.102216164 864.5548181 805.702959164 c 0
 878.5348181 809.130359164 888.9200181 821.754359164 888.9200181 836.784859164 c 0
 888.9200181 839.417069164 888.6143741 841.957969164 888.0138441 844.406109164 c 2
 866.5118441 932.074109164 l 2
 863.0848341 946.042209164 850.4783441 956.435309164 835.4630441 956.449109164 c 1
 835.463 956.449 l 2
530.064 871.963 m 2
 526.34298 871.9367895 522.74677 871.352504 519.3628 870.30284 c 0
 504.2816 865.62949 493.3145 851.56194 493.3145 834.95314 c 0
 493.3145 831.14138 493.899719 827.47108 494.97218 824.00984 c 0
 510.80858 772.91484 528.95738 724.02884 545.22808 675.21684 c 1
 343.48808 615.39064 l 2
 328.18918 610.85129 317.01638 596.67644 317.01638 579.91254 c 0
 317.01638 576.25843 317.550141 572.73747 318.53888 569.40234 c 0
 323.07537 554.09884 337.25248 542.92174 354.01958 542.92174 c 0
 357.67273 542.92174 361.19279 543.45514 364.52708 544.44337 c 2
 566.97008 604.47657 l 1
 574.77908 575.92157 581.26578 547.04557 585.60678 517.43357 c 0
 601.03878 412.16457 591.50851 296.86257 516.53448 146.08757 c 0
 514.07138 141.13421 512.68599 135.55217 512.68599 129.64907 c 0
 512.68599 115.12877 521.01114 102.53667 533.19659 96.48017 c 0
 538.14878 94.01853 543.72919 92.63402 549.63039 92.63402 c 0
 564.14659 92.63402 576.73579 100.9545 582.79419 113.13442 c 0
 663.52059 275.47742 676.10479 410.30942 658.82739 528.16542 c 0
 653.87387 561.95542 646.63749 594.28662 638.11449 625.57362 c 1
 794.55249 671.96422 l 2
 809.85369 676.50215 821.02859 690.67812 821.02859 707.44362 c 0
 821.02859 711.10079 820.493956 714.62468 819.50363 717.96222 c 0
 814.96565 733.26332 800.78963 744.43822 784.02423 744.43822 c 0
 783.9293591 744.43822 783.846327 744.44149509 783.751623 744.4407807 c 0
 780.195583 744.4133717 776.756443 743.8767047 773.505523 742.9114807 c 2
 616.511523 696.3548807 l 1
 599.470123 747.6758807 580.868823 796.8488807 565.661923 845.9118807 c 0
 561.014203 860.9154807 547.071823 871.8479807 530.576023 871.9626807 c 0
 530.4891919 871.963281162 530.40229 871.963581885 530.315319 871.963581885 c 0
 530.2283476 871.963581885 530.151134 871.963281162 530.064303 871.9626807 c 2
 530.064 871.963 l 2
214.451 658.77 m 2
 214.4132103 658.770113629 214.3754074 658.770170484 214.337591 658.770170484 c 0
 214.20146 658.770170484 214.075065 658.769469744 213.93928 658.768000004 c 2
 213.93928 658.764000004 l 1
 213.8862211 658.764224072 213.833136 658.764336218 213.780025 658.764336218 c 0
 213.7269139 658.764336218 213.679839 658.764224072 213.62678 658.764000004 c 0
 195.65058 658.458926004 180.76728 645.273300004 177.79478 628.068700004 c 0
 158.29928 515.350700004 132.94048 374.481700004 197.46858 224.574700004 c 0
 203.1389 211.407900004 216.23648 202.180000004 231.47228 202.180000004 c 0
 242.74898 202.180000004 252.82758 207.241640004 259.61708 215.207500004 c 2
 291.87488 253.063000004 l 2
 297.3781 259.522440004 300.70123 267.894900004 300.70123 277.037500004 c 0
 300.70123 288.316200004 295.67377 298.434300004 287.70493 305.223200004 c 0
 281.2456 310.726010004 272.87343 314.048870004 263.73123 314.048870004 c 0
 257.43632 314.048870004 251.44743 312.459890004 246.25573 309.682180004 c 1
 216.82833 417.089180004 234.04733 519.105180004 250.71276 615.461180004 c 0
 251.068941 617.520910004 251.254577 619.638740004 251.254577 621.799590004 c 0
 251.254577 640.059690004 237.963977 655.214990004 220.558477 658.224890004 c 0
 218.562937 658.571429004 216.542117 658.757198004 214.451057 658.769810004 c 2
 214.451 658.77 l 2
EndSplineSet
EndChar

StartChar: "+MLAw6jDV 51"
Encoding: 51 12372 50
Width: 1024
LayerCount: 2
Fore
SplineSet
653.166 918.592 m 1
 653.166 918.59 l 1
 653.1268634 918.590140936 653.0877102 918.590211464 653.048541 918.590211464 c 0
 653.0093715 918.590211464 652.9746669 918.590140936 652.93553 918.59 c 0
 649.98076 918.5473668 647.11805 918.09801 644.40818 917.30485 c 0
 631.11288 913.41911 621.38928 901.12835 621.38928 886.58455 c 0
 621.38928 883.46734 621.837132 880.46309 622.66993 877.61346 c 2
 662.19923 742.36146 l 2
 666.0848 729.06586 678.37563 719.34206 692.91973 719.34206 c 0
 696.03759 719.34206 699.04246 719.790098 701.89261 720.62323 c 0
 715.18791 724.50897 724.91151 736.79973 724.91151 751.34353 c 0
 724.91151 754.46074 724.463659 757.46498 723.63087 760.31461 c 2
 684.10157 895.57261 l 2
 680.21494 908.86651 667.92487 918.58881 653.38207 918.58881 c 0
 653.3068319 918.58881 653.241165 918.59268483 653.166049 918.59216524 c 1
 653.166049 918.59220524 l 1
 653.166 918.592 l 1
814.344 904.504 m 1
 811.86993 904.4900469 809.47573 904.192855 807.16431 903.64657 c 0
 793.06231 900.30622 782.55721 887.62337 782.55721 872.50637 c 0
 782.55721 869.96092 782.83988 867.50343 783.402596 865.129 c 2
 810.767796 749.594 l 2
 814.107986 735.4918 826.790896 724.9865 841.908096 724.9865 c 0
 844.454206 724.9865 846.912336 725.269324 849.287326 725.832323 c 0
 863.389526 729.172513 873.894826 741.855423 873.894826 756.972623 c 0
 873.894826 759.518733 873.612002 761.976863 873.049003 764.351853 c 2
 845.676003 879.884853 l 2
 842.355473 893.895553 829.809403 904.371953 814.820503 904.503953 c 0
 814.7396478 904.504555086 814.658722 904.50485666 814.577726 904.50485666 c 0
 814.49673 904.50485666 814.424799 904.504555086 814.343943 904.503953 c 1
 814.344 904.504 l 1
460.439 722.838 m 1
 396.0941 722.489 335.722 708.623 286.904 693.004 c 0
 271.9871 688.23237 261.1742 674.2463 261.1742 657.7546 c 0
 261.1742 653.82616 261.798826 650.04568 262.93525 646.4923 c 0
 267.7062 631.5742 281.69285 620.7602 298.18535 620.7602 c 0
 302.11638 620.7602 305.89932 621.385635 309.45475 622.5235 c 0
 359.60985 638.5685 422.48075 651.7831 483.99375 648.2481 c 0
 535.68025 645.27911 585.72675 631.0769 630.50175 597.4239 c 1
 580.51155 532.3751 l 2
 575.71576 526.13571 572.86339 518.3264 572.86339 509.8561 c 0
 572.86339 497.9038 578.49736 487.2545 587.30259 480.4883 c 0
 593.54136 475.69423 601.34929 472.84299 609.81779 472.84299 c 0
 621.76879 472.84299 632.41709 478.47574 639.18339 487.27929 c 2
 710.64039 580.26949 l 2
 715.43423 586.50864 718.2853 594.31669 718.2853 602.78549 c 0
 718.2853 613.17619 714.01738 622.60419 707.1111 629.32809 c 0
 642.1981 692.49509 562.8961 717.83789 488.2381 722.12689 c 0
 478.90599 722.66289 469.6314 722.88783 460.4393 722.83783 c 1
 460.439 722.838 l 1
215.92 338.312 m 1
 204.9168 338.2622309 195.0452 333.41702 188.297 325.7397 c 0
 182.56588 319.2225 179.08857 310.676 179.08857 301.3238 c 0
 179.08857 290.255 183.9351 280.3039 191.64857 273.5209 c 0
 320.30757 160.3899 518.50457 144.5549 693.07857 171.7549 c 0
 710.78147 174.51316 724.34637 189.8413 724.34637 208.3128 c 0
 724.34637 210.26116 724.232679 212.13953 723.941897 214.00689 c 0
 721.184567 231.71089 705.855897 245.27689 687.383697 245.27689 c 0
 685.434777 245.27689 683.555857 245.163118 681.687987 244.872172 c 0
 520.463987 219.753172 342.412987 239.486902 240.509987 329.090872 c 0
 233.991937 334.825522 225.442787 338.305232 216.087387 338.305232 c 0
 216.0365547 338.305232 215.970951 338.3117818 215.920167 338.31157654 c 2
 215.92 338.312 l 1
EndSplineSet
EndChar

StartChar: "+MLAw6jDV 52"
Encoding: 52 12368 51
Width: 1024
LayerCount: 2
Fore
SplineSet
764.455 972.389 m 1
 764.4026691 972.388447894 764.352971 972.38780358 764.3007 972.387 c 0
 762.2991 972.3672466 760.36079 972.163228 758.46281 971.7913 c 0
 743.75861 968.90541 732.65111 955.9348 732.65111 940.3903 c 0
 732.65111 938.27394 732.831713 936.23075 733.224549 934.22877 c 2
 754.726449 824.63677 l 2
 757.612479 809.93277 770.583049 798.82537 786.127349 798.82537 c 0
 788.243059 798.82537 790.285599 799.005845 792.287009 799.398443 c 0
 806.995409 802.280973 818.107309 815.253643 818.107309 830.801043 c 0
 818.107309 832.918863 817.926468 834.963483 817.533103 836.966753 c 2
 796.029203 946.550753 l 2
 793.143803 961.255553 780.172903 972.363753 764.628003 972.363753 c 0
 764.5691668 972.363753 764.513758 972.3889868 764.454996 972.388669 c 1
 764.454996 972.388719 l 1
 764.455 972.389 l 1
637.555 932.541 m 1
 633.95238 932.5156664 630.47757 931.88432 627.2503 930.75975 c 0
 614.7451 926.40732 605.7605 914.50895 605.7605 900.52865 c 0
 605.7605 896.84776 606.401237 893.31203 607.54718 890.01955 c 2
 650.55498 766.48255 l 2
 654.9084 753.97915 666.80588 744.99625 680.78488 744.99625 c 0
 684.46621 744.99625 688.00236 745.637169 691.29518 746.78337 c 0
 703.79918 751.13647 712.78268 763.03427 712.78268 777.01367 c 0
 712.78268 780.69414 712.14207 784.22946 710.99638 787.52167 c 2
 667.99048 911.05667 l 2
 663.63914 923.56387 651.73978 932.55027 637.75808 932.55027 c 0
 637.685857 932.55027 637.627076 932.5415373 637.554965 932.54105849 c 1
 637.555 932.541 l 1
558.094 826.273 m 1
 558.094 826.271 l 1
 558.0366347 826.271261937 557.979239 826.271393047 557.921812 826.271393047 c 0
 557.8643856 826.271393047 557.813475 826.271261937 557.75611 826.271 c 0
 545.69501 826.121071 535.02641 820.22057 528.37721 811.1519 c 0
 442.35611 693.7839 341.62521 591.7599 217.73821 511.4839 c 0
 207.56341 504.88725 200.82631 493.4302 200.82631 480.412 c 0
 200.82631 467.1649 207.80153 455.5802 218.27731 449.0425 c 0
 337.18231 374.8785 435.29931 263.6255 531.58031 144.3705 c 0
 538.36526 135.96582 548.75091 130.5864 560.38311 130.5864 c 0
 569.17372 130.5864 577.26461 133.69722 583.61541 138.8256 c 0
 592.01666 145.61065 597.39351 155.9942 597.39351 167.6236 c 0
 597.39351 176.41191 594.28431 184.501 589.15834 190.851 c 0
 503.38504 297.093 413.48234 401.311 303.61934 480.675 c 1
 415.45334 561.157 508.43434 658.768 588.05834 767.409 c 0
 592.54516 773.53148 595.19567 781.0823 595.19567 789.2474 c 0
 595.19567 801.4996 589.27879 812.3828 580.09347 819.118 c 0
 573.97136 823.60389 566.42127 826.2538 558.25717 826.2538 c 0
 558.2126092 826.2538 558.137986 826.2724552 558.093462 826.2722974 c 1
 558.094 826.273 l 1
EndSplineSet
EndChar

